<?xml version="1.0" standalone="no"?>
<!DOCTYPE svg PUBLIC "-//W3C//DTD SVG 1.1//EN" "http://www.w3.org/Graphics/SVG/1.1/DTD/svg11.dtd" >
<svg xmlns="http://www.w3.org/2000/svg">
<metadata>
This is a custom SVG webfont generated by Font Squirrel.
Copyright   : Copyright c 2006 by Georg Seifert All rights reserved
Designer    : Georg Seifert
Foundry     : Georg Seifert
Foundry URL : wwwfontsinfo
</metadata>
<defs>
<font id="webfontpVz7l4Ai" horiz-adv-x="948" >
<font-face units-per-em="2048" ascent="1638" descent="-410" />
<missing-glyph horiz-adv-x="483" />
<glyph unicode="&#xfb01;" horiz-adv-x="1048" d="M838 1610l-50 -129q-137 76 -256 75q-104 0 -145 -67.5t-41 -204.5v-180h551v-1104h-174v973h-377v-973h-174v973h-129v131h129v180q0 410 348 410q138 0 318 -84z" />
<glyph unicode="&#xfb02;" horiz-adv-x="1054" d="M905 0h-174v1522q-109 37 -201 37q-102 0 -143 -70t-41 -207v-178h240v-131h-240v-973h-174v973h-127v131h127v180q0 410 358 410q174 0 375 -88v-1606z" />
<glyph unicode=" "  horiz-adv-x="483" />
<glyph unicode="&#x09;" horiz-adv-x="483" />
<glyph unicode="&#xa0;" horiz-adv-x="483" />
<glyph unicode="!" horiz-adv-x="532" d="M420 1513l-17 -1062h-161l-15 1062h193zM461 92q0 -51 -34 -86t-81 -35q-51 0 -85 35t-34 86t35 86t84 35q47 0 81 -35t34 -86z" />
<glyph unicode="&#x22;" horiz-adv-x="710" d="M279 1538l-27 -340h-133l-25 338v209h185v-207zM616 1538l-24 -340h-135l-21 338v209h180v-207z" />
<glyph unicode="#" horiz-adv-x="1179" d="M1079 313h-196v-512h-166v512h-250v-512h-164v512h-205v146h203v422h-203v143h205v498h164v-498h248v498h168v-498h198v-143h-198v-422h196v-146zM715 459v422h-248v-422h248z" />
<glyph unicode="$" horiz-adv-x="962" d="M371 -279l12 261q-184 18 -313 94l57 164q119 -88 264 -111l31 582q-78 66 -117 102.5t-93 101t-77.5 131t-23.5 142.5q0 156 100 247t254 103l12 223h135l-12 -229q102 -12 225 -64l-47 -143q-84 43 -186 59l-31 -548q78 -66 119 -105t96 -105.5t81 -137t26 -152.5 q0 -156 -100.5 -249t-266.5 -107l-14 -259h-131zM698 330q0 129 -149 272l-25 -473q80 16 127 68.5t47 132.5zM295 1202q0 -123 139 -256l23 438q-72 -12 -117 -58t-45 -124z" />
<glyph unicode="%" horiz-adv-x="1263" d="M1145 1208l-926 -1095l-98 104l926 1098zM602 1126q0 -119 -71.5 -210t-194.5 -91q-121 0 -189.5 88t-68.5 213q0 113 66.5 205t197.5 92q123 0 191.5 -79t68.5 -218zM463 1126q0 76 -35 123t-88 47q-61 0 -91 -52t-30 -118q0 -74 31 -124t90 -50q61 0 92 51t31 123z M1182 272q0 -119 -69 -210t-193 -91q-121 0 -192 88t-71 213q0 113 67 205t198 92q125 0 192.5 -78t67.5 -219zM1042 272q0 78 -33.5 124t-88.5 46q-61 0 -91 -51t-30 -119q0 -74 30.5 -123t90.5 -49q61 0 91.5 51t30.5 121z" />
<glyph unicode="&#x26;" horiz-adv-x="1126" d="M909 1153q0 -53 -22.5 -105.5t-46 -88t-81 -87t-84.5 -72.5l-102 -77q45 -53 112 -125l117 -125l163 -168l172 -176l-115 -139l-168 174q-190 -190 -401 -191q-170 0 -260.5 99.5t-90.5 257.5q0 225 226 413q-111 166 -111 332t91 261.5t263 95.5q154 0 246 -76t92 -203z M473 111q123 0 279 159q-246 254 -320 340q-154 -139 -153 -272q0 -92 53 -159.5t141 -67.5zM391 1087q0 -106 86 -235q63 43 98 69.5t77 65.5t60.5 77t18.5 79q0 72 -52 110.5t-116 38.5q-78 2 -125 -56.5t-47 -148.5z" />
<glyph unicode="'" horiz-adv-x="372" d="M279 1538l-27 -340h-133l-25 338v209h185v-207z" />
<glyph unicode="(" horiz-adv-x="559" d="M578 -340l-123 -80q-334 465 -334 1102q0 193 27.5 357.5t83 304t102.5 227.5t123 209l118 -84q-55 -98 -93 -176t-88 -211t-76.5 -292t-26.5 -331q0 -565 287 -1026z" />
<glyph unicode=")" horiz-adv-x="550" d="M430 682q0 -184 -24.5 -343t-77 -297t-98.5 -233.5t-124 -228.5l-122 82q137 254 205.5 476t68.5 542q0 217 -44 414.5t-91 306t-141 299.5l129 80q152 -254 235.5 -502t83.5 -596z" />
<glyph unicode="*" horiz-adv-x="999" d="M621 1102l-29 -393l291 149l55 -168l-324 -102l224 -305l-142 -105l-168 326l-155 -328l-144 103l215 309l-317 94l53 168l291 -139l-35 391h185z" />
<glyph unicode="+" horiz-adv-x="999" d="M899 510h-319v-434h-160v434h-322v147h322v412h160v-412h319v-147z" />
<glyph unicode="," horiz-adv-x="454" d="M195 -334l-107 90q100 119 100 224q0 39 -26.5 80.5t-26.5 82.5t27.5 69t73.5 28q61 0 97 -55.5t36 -143.5q0 -185 -174 -375z" />
<glyph unicode="-" horiz-adv-x="755" d="M645 596h-541v145h541v-145z" />
<glyph unicode="." horiz-adv-x="458" d="M360 92q0 -51 -33.5 -86t-80.5 -35q-51 0 -85 35t-34 86t35 86t84 35q47 0 80.5 -35t33.5 -86z" />
<glyph unicode="/" horiz-adv-x="686" d="M694 1626l-499 -1855l-156 49l498 1855z" />
<glyph unicode="0" horiz-adv-x="1085" d="M993 684q0 -137 -22.5 -256t-72.5 -224.5t-143 -167t-220 -61.5q-129 0 -220.5 62.5t-137.5 169t-65.5 218.5t-19.5 239q0 135 23.5 254.5t75 226t145.5 169t221 62.5q102 0 181 -42t126 -109.5t77 -160.5t41 -185.5t11 -194.5zM817 670q0 111 -13 205t-43 178t-85 132 t-131 48q-96 0 -161 -85t-88.5 -204t-23.5 -268q0 -555 271 -555q76 0 131 46t86 127t44 174t13 202z" />
<glyph unicode="1" horiz-adv-x="661" d="M502 0h-176v1147l-242 -139l-59 122l337 232h140v-1362z" />
<glyph unicode="2" horiz-adv-x="866" d="M782 0h-727v113q223 262 367.5 491.5t144.5 411.5q0 106 -53 162.5t-152 56.5q-129 0 -258 -70l-43 133q164 82 326 82q180 0 269 -93t89 -253q0 -109 -39.5 -228.5t-106.5 -230t-132 -201.5l-137 -184q-25 -29 -35 -43h487v-147z" />
<glyph unicode="3" horiz-adv-x="839" d="M698 1049q0 -229 -196 -338q123 -27 188.5 -131.5t65.5 -249.5q0 -248 -165 -388.5t-425 -140.5q-68 0 -111 9v147q55 -6 121 -6q166 0 279.5 102.5t113.5 276.5q0 135 -78.5 211.5t-257.5 62.5l-81 -6l-7 135l82 6q131 12 210 88t79 197q0 102 -57.5 153.5t-151.5 51.5 q-111 0 -221 -45l-39 139q145 51 283 51q168 0 268 -82.5t100 -242.5z" />
<glyph unicode="4" horiz-adv-x="872" d="M373 1427h168l-330 -960h336l24 463h136v-463h145v-143h-145v-324h-164v324h-486l-37 116z" />
<glyph unicode="5" horiz-adv-x="843" d="M309 1217l-20 -410q59 6 96 6q176 0 283.5 -106.5t107.5 -329.5q0 -274 -158.5 -419.5t-429.5 -145.5q-61 0 -96 6v149q39 -8 92 -8q186 0 298 110.5t112 307.5q0 301 -279 301q-98 0 -190 -25l35 699h579v-135h-430z" />
<glyph unicode="6" horiz-adv-x="1046" d="M854 1378q-250 33 -384 -97t-167 -437q119 78 258 78q184 0 282.5 -122t98.5 -337q0 -217 -111.5 -354.5t-302.5 -137.5q-84 0 -151.5 29t-111.5 80t-74.5 112.5t-47 138.5t-22.5 144.5t-6 138.5q0 920 626 920q72 0 109 -6zM524 784q-96 0 -231 -84v-84q0 -500 239 -499 q111 0 168.5 96t57.5 244q-1 327 -234 327z" />
<glyph unicode="7" horiz-adv-x="735" d="M512 1206h-518v146h700l17 -103l-453 -1411h-184z" />
<glyph unicode="8" horiz-adv-x="987" d="M86 358q0 240 254 441q-213 164 -213 372q0 168 108.5 268.5t262.5 100.5q152 0 259 -95t107 -255q0 -119 -65.5 -222.5t-157.5 -174.5q123 -86 191.5 -182.5t68.5 -245.5q0 -188 -118.5 -291t-288.5 -103t-289 103.5t-119 283.5zM729 358q0 111 -68.5 187t-203.5 168 q-197 -168 -197 -338q0 -113 67.5 -187.5t166.5 -74.5q96 0 165.5 68t69.5 177zM299 1182q0 -100 56.5 -169t162.5 -139q174 137 174 302q0 92 -59.5 159.5t-140.5 67.5q-80 0 -136.5 -62.5t-56.5 -158.5z" />
<glyph unicode="9" horiz-adv-x="1046" d="M184 -31q248 -33 382 97.5t167 435.5q-117 -76 -256 -76q-184 0 -282.5 122t-98.5 337q0 217 111.5 354t302.5 137q84 0 151.5 -28.5t111.5 -79.5t75 -112.5t47 -138.5t22.5 -144.5t6.5 -139.5q0 -920 -627 -919q-72 0 -109 6zM514 563q98 0 229 84q2 27 2 84 q0 500 -239 500q-111 0 -168 -96.5t-57 -243.5q0 -328 233 -328z" />
<glyph unicode=":" horiz-adv-x="522" d="M399 92q0 -51 -33.5 -86t-80.5 -35q-51 0 -85 35t-34 86t35 86t84 35q47 0 80.5 -35t33.5 -86zM399 1012q0 -51 -33.5 -86t-80.5 -35q-51 0 -85 35t-34 86t35 86t84 35q47 0 80.5 -35t33.5 -86z" />
<glyph unicode=";" horiz-adv-x="522" d="M248 -334l-107 90q100 119 101 224q0 39 -27 80.5t-27 82.5t28 69t73 28q61 0 97 -55.5t36 -143.5q0 -185 -174 -375zM399 1012q0 -51 -33.5 -86t-80.5 -35q-51 0 -85 35t-34 86t35 86t84 35q47 0 80.5 -35t33.5 -86z" />
<glyph unicode="&#x3c;" horiz-adv-x="905" d="M684 1169l96 -110l-446 -473l444 -473l-92 -115l-569 588z" />
<glyph unicode="=" horiz-adv-x="999" d="M899 709h-801v147h801v-147zM899 313h-801v148h801v-148z" />
<glyph unicode="&#x3e;" horiz-adv-x="999" d="M266 1169l568 -583l-574 -588l-88 115l438 473l-442 475z" />
<glyph unicode="?" horiz-adv-x="804" d="M301 442v121q0 98 25.5 178t62.5 134.5t74 102.5t62.5 103.5t25.5 116.5q0 82 -44 125t-118 43q-100 0 -223 -86l-60 125q158 104 318 104t233.5 -86t73.5 -215q0 -94 -40 -180t-88 -142.5t-88 -144.5t-40 -188v-111h-174zM506 92q0 -51 -33 -86t-82 -35t-83 35t-34 86 t34 86t83 35t82 -35t33 -86z" />
<glyph unicode="@" horiz-adv-x="1757" d="M809 -23q-102 0 -172 74t-98.5 177.5t-28.5 222.5q0 258 123 434t307 176q123 0 260 -88v-645q0 -219 100 -219q82 0 124 135t42 338q0 334 -139 536.5t-399 202.5q-276 0 -458.5 -217t-182.5 -608q0 -354 157.5 -577.5t454.5 -223.5q184 0 344 69l41 -133 q-190 -70 -395 -69q-365 0 -564.5 256t-199.5 671q0 438 222 702.5t568 264.5q315 0 515 -225t200 -625q0 -115 -18.5 -219t-58.5 -199.5t-113.5 -153t-173.5 -57.5q-90 0 -133 45.5t-58 129.5q-41 -78 -110.5 -126.5t-155.5 -48.5zM1040 303v598q-49 29 -102 29 q-123 0 -192.5 -133t-69.5 -324q0 -154 48 -257t132 -103q59 0 112.5 55t71.5 135z" />
<glyph unicode="A" horiz-adv-x="1085" d="M891 0l-129 440h-459l-125 -440h-176l432 1513h199l450 -1513h-192zM528 1354l-188 -772h383z" />
<glyph unicode="B" horiz-adv-x="1071" d="M1018 430q0 -242 -129 -336t-373 -94h-326v1513h332q446 0 447 -378q0 -231 -176 -324q225 -102 225 -381zM831 432q0 293 -323 293h-143v-582h161q154 0 229.5 63.5t75.5 225.5zM782 1124q0 246 -264 246h-153v-510h122q295 0 295 264z" />
<glyph unicode="C" d="M913 182l21 -149q-137 -57 -293 -58q-555 0 -555 770q0 795 567 795q141 0 279 -49l-31 -148q-27 14 -100.5 32t-145.5 18q-385 0 -385 -627q0 -643 375 -643q135 0 268 59z" />
<glyph unicode="D" horiz-adv-x="1245" d="M1153 768q0 -131 -16.5 -238.5t-58.5 -209t-109.5 -170t-177 -109.5t-254.5 -41h-349v1513h357q608 0 608 -745zM971 760q0 137 -19.5 239.5t-66.5 189.5t-138.5 133t-222.5 46h-162v-1223h185q104 0 181 33t123 86t73.5 135t37 166t9.5 195z" />
<glyph unicode="E" horiz-adv-x="1019" d="M958 0h-770v1513h734v-145h-560v-508h504v-143h-504v-572h596v-145z" />
<glyph unicode="F" horiz-adv-x="888" d="M897 1368h-535v-557h469v-143h-469v-668h-174v1513h709v-145z" />
<glyph unicode="G" horiz-adv-x="1212" d="M1090 686v-604q-186 -109 -420 -109q-152 0 -262.5 55.5t-176 159t-96.5 237.5t-31 304q0 377 149.5 594t453.5 217q168 0 358 -67l-39 -146q-158 66 -324 66q-414 0 -413 -645q0 -627 391 -627q123 0 242 55v510h168z" />
<glyph unicode="H" horiz-adv-x="1323" d="M1135 0h-177v723h-591v-723h-177v1513h177v-645h591v645h177v-1513z" />
<glyph unicode="I" horiz-adv-x="552" d="M362 0h-172v1513h172v-1513z" />
<glyph unicode="J" horiz-adv-x="657" d="M485 1513v-925q0 -141 -22.5 -244.5t-57 -167t-99 -111t-124 -71t-157.5 -51.5l-33 149q70 23 114 44.5t88 58t66.5 88t36.5 128t14 183.5v919h174z" />
<glyph unicode="K" horiz-adv-x="1105" d="M1083 1513l-446 -639l498 -874h-226l-381 735l-163 -237v-498h-177v1513h177v-772l491 772h227z" />
<glyph unicode="L" horiz-adv-x="937" d="M928 0h-740v1513h174v-1361h566v-152z" />
<glyph unicode="M" horiz-adv-x="1542" d="M1419 0h-178l-57 1157l-371 -1157h-100l-373 1157l-59 -1157h-156l86 1513h170l389 -1196l397 1196h164z" />
<glyph unicode="N" horiz-adv-x="1363" d="M1176 0h-129l-691 1159v-1159h-168v1513h136l686 -1142v1142h166v-1513z" />
<glyph unicode="O" horiz-adv-x="1277" d="M1188 786q0 -813 -565 -813q-532 0 -533 754q0 162 27.5 299t90 257t176.5 188.5t269 68.5q150 0 257.5 -61.5t166 -171t85 -238.5t26.5 -283zM1004 778q0 616 -361 617q-371 0 -371 -660q0 -616 359 -616q373 0 373 659z" />
<glyph unicode="P" horiz-adv-x="1048" d="M991 1047q0 -233 -119.5 -361.5t-343.5 -128.5q-109 0 -166 18v-575h-176v1513h324q481 1 481 -466zM803 1030q0 168 -72 253t-239 85h-130v-649q63 -18 146 -19q158 0 226.5 83t68.5 247z" />
<glyph unicode="Q" horiz-adv-x="1284" d="M1188 786q0 -627 -340 -772q125 -43 309 -113l281 -106q96 -35 224 -63.5t239 -28.5q104 0 260 21l-11 -138q-141 -18 -264 -18q-141 0 -308 40t-294 89l-348 137q-221 88 -369 141q-477 37 -477 752q0 162 27.5 299t90 257t176.5 188.5t269 68.5q150 0 257.5 -61.5 t166 -171t85 -238.5t26.5 -283zM1004 778q0 616 -361 617q-371 0 -371 -660q0 -616 359 -616q373 0 373 659z" />
<glyph unicode="R" horiz-adv-x="1085" d="M188 1513h301q252 0 372 -99t120 -314q0 -311 -248 -416l293 -684h-209l-244 639q-68 -11 -158 -11q-26 0 -53 1v-629h-174v1513zM362 1366v-596q25 -1 49 -1q65 0 117 8q72 11 136.5 44t99.5 101.5t35 169.5q0 150 -76 215q-71 62 -217 61h-19z" />
<glyph unicode="S" horiz-adv-x="929" d="M803 1470l-41 -145q-135 68 -270 68q-96 0 -161 -49.5t-65 -149.5q0 -76 45 -144.5t113 -117.5l147 -111q80 -61 147.5 -121.5t113 -152.5t45.5 -203q0 -182 -123 -275.5t-308 -93.5q-217 0 -397 97l51 164q174 -113 349 -113q111 0 178 58.5t67 160.5q0 82 -45 153.5 t-112 122.5l-148 112q-80 60 -147.5 118.5t-112.5 145.5t-45 190q0 172 114.5 264t284.5 92q148 0 320 -70z" />
<glyph unicode="T" horiz-adv-x="921" d="M958 1366h-413v-1366h-174v1366h-408v147h995v-147z" />
<glyph unicode="U" horiz-adv-x="1286" d="M1108 1513v-1044q0 -221 -114.5 -358.5t-360.5 -137.5q-244 0 -349.5 135.5t-105.5 356.5v1048h176v-1011q0 -184 64.5 -278.5t226.5 -94.5t225.5 99.5t63.5 277.5v1007h174z" />
<glyph unicode="V" horiz-adv-x="1062" d="M1083 1513l-497 -1513h-107l-499 1513h192l365 -1206l362 1206h184z" />
<glyph unicode="W" horiz-adv-x="1562" d="M1528 1513l-256 -1513h-137l-355 1217l-356 -1217h-137l-254 1513h186l174 -1177l326 1177h139l326 -1177l176 1177h168z" />
<glyph unicode="X" horiz-adv-x="1007" d="M811 0l-315 645l-310 -645h-196l395 788l-367 725h211l287 -589l275 589h196l-371 -725l406 -788h-211z" />
<glyph unicode="Y" horiz-adv-x="974" d="M1006 1513l-431 -1017v-496h-174v492l-434 1021h199l326 -837l331 837h183z" />
<glyph unicode="Z" horiz-adv-x="907" d="M907 0h-884l-23 123l678 1239h-623v151h824l22 -112l-678 -1249h684v-152z" />
<glyph unicode="[" horiz-adv-x="612" d="M565 -270h-403v2052h403v-135h-252v-1782h252v-135z" />
<glyph unicode="\" horiz-adv-x="569" d="M430 -229l-498 1861l160 51l500 -1863z" />
<glyph unicode="]" horiz-adv-x="610" d="M449 -270h-402v135h250v1782h-250v135h402v-2052z" />
<glyph unicode="^" horiz-adv-x="972" d="M967 631h-193l-293 733l-288 -733h-193l403 928h160z" />
<glyph unicode="_" horiz-adv-x="878" d="M860 -160h-846v133h846v-133z" />
<glyph unicode="`" horiz-adv-x="249" d="M-72 1540l156 84l192 -319l-114 -56z" />
<glyph unicode="a" horiz-adv-x="927" d="M788 0h-145l-18 106q-4 -2 -36 -25.5t-43 -30.5t-43 -25.5t-52.5 -25.5t-52 -14.5t-62.5 -7.5q-119 0 -182.5 84t-63.5 211q0 117 70.5 190t177 100.5t258.5 31.5v209q0 106 -37 149t-113 43q-109 0 -266 -77l-39 133q209 80 330 79q160 0 228.5 -82.5t68.5 -240.5v-496 q0 -96 20 -311zM598 209v276q-55 -2 -96 -5t-91.5 -15t-82 -31.5t-54 -56.5t-22.5 -86q0 -84 39 -134.5t106 -50.5q66 1 201 103z" />
<glyph unicode="b" horiz-adv-x="1046" d="M940 582q0 -281 -103.5 -446t-330.5 -165q-182 0 -340 101v1591h174v-590q111 61 242 62q178 0 268 -142.5t90 -410.5zM758 571q0 209 -51.5 313.5t-168 104.5t-198.5 -61v-764q66 -47 170 -47q248 -1 248 454z" />
<glyph unicode="c" horiz-adv-x="821" d="M739 176l37 -135q-115 -61 -272 -61q-195 0 -296.5 144t-101.5 423q0 289 109 433t311 144q145 0 246 -49l-37 -145q-94 55 -200 55q-248 0 -248 -418q0 -215 65.5 -330.5t184.5 -115.5q93 0 202 55z" />
<glyph unicode="d" horiz-adv-x="1048" d="M883 1663v-1624q-193 -68 -363 -68q-412 0 -411 574q0 260 103 425t325 165q82 0 172 -27v555h174zM709 145v801q-72 43 -174 43q-246 0 -246 -438q0 -436 239 -436q97 -1 181 30z" />
<glyph unicode="e" horiz-adv-x="942" d="M850 551h-584q2 -229 62.5 -333.5t201.5 -104.5q111 0 265 80l41 -134q-168 -86 -320 -86q-217 0 -312 148.5t-95 421.5q0 588 399 587q350 0 350 -464q0 -68 -8 -115zM500 1006q-207 0 -232 -340h426v15q0 159 -41 240q-42 85 -153 85z" />
<glyph unicode="f" horiz-adv-x="589" d="M748 1649l-37 -131q-94 39 -176 38q-100 0 -136.5 -53t-36.5 -184v-215h240v-131h-240v-973h-174v973h-127v131h127v215q0 193 75 284t247 91q119 0 238 -45z" />
<glyph unicode="g" horiz-adv-x="923" d="M461 1135q86 0 153 -31q72 109 130.5 172t121.5 80l54 -135q-123 -33 -211 -187q90 -104 90 -286q0 -193 -93.5 -285t-246.5 -92q-51 0 -90 8q-25 -43 -25 -94q0 -61 55.5 -101.5t133 -66t156.5 -58t134.5 -105.5t55.5 -183q0 -76 -26 -134.5t-65.5 -94.5t-96 -59.5 t-113 -31.5t-117.5 -8q-180 0 -285.5 74.5t-105.5 224.5q0 41 10 80t19.5 65.5t36 64.5t36.5 50t46 52t40 46q-55 61 -55 156q0 78 59 166q-135 92 -135 326q0 197 91 292t243 95zM715 -246q0 53 -21.5 93t-64.5 67t-84 43l-100.5 37.5t-94.5 40.5q-72 -88 -102.5 -142.5 t-30.5 -119.5q0 -102 66.5 -154.5t177.5 -52.5q109 0 181.5 45t72.5 143zM647 748q0 260 -188 260q-182 0 -183 -258q0 -254 187 -254q184 0 184 252z" />
<glyph unicode="h" horiz-adv-x="1083" d="M926 0h-174v754q0 223 -140 223q-115 0 -272 -143v-834h-174v1665h174l-6 -684q184 150 342 149q250 0 250 -348v-782z" />
<glyph unicode="i" horiz-adv-x="526" d="M352 0h-176v1104h176v-1104zM375 1460q0 -51 -33 -84t-80 -33q-49 0 -79.5 33t-30.5 84t31.5 85t78.5 34t80 -34t33 -85z" />
<glyph unicode="j" horiz-adv-x="526" d="M178 1104h174v-1073q0 -240 -79.5 -347.5t-311.5 -158.5l-33 141q94 25 144.5 56.5t78 103.5t27.5 194v1084zM377 1460q0 -51 -33 -84t-80 -33q-49 0 -79.5 33t-30.5 84t31.5 85t78.5 34t80 -34t33 -85z" />
<glyph unicode="k" horiz-adv-x="935" d="M909 1104l-354 -471l385 -633h-213l-276 494l-117 -158v-336h-168v1663h174v-825l-6 -281l364 547h211z" />
<glyph unicode="l" horiz-adv-x="516" d="M346 0h-176v1663h176v-1663z" />
<glyph unicode="m" horiz-adv-x="1642" d="M911 0h-174v778q0 111 -30.5 155t-98.5 44q-117 0 -268 -146v-831h-174v1104h156l12 -127q96 78 174 115.5t166 37.5q174 0 219 -159q195 160 354 159q115 0 175.5 -71.5t60.5 -247.5v-811h-174v778q0 111 -31 155t-98 44q-63 0 -125 -35t-144 -113v-18v-811z" />
<glyph unicode="n" horiz-adv-x="1083" d="M924 0h-174v778q0 111 -32 155t-102 44q-119 0 -276 -146v-831h-174v1104h156l12 -127q98 78 178 115.5t172 37.5q117 0 178.5 -71.5t61.5 -247.5v-811z" />
<glyph unicode="o" horiz-adv-x="1044" d="M106 541q0 268 104.5 428.5t324.5 160.5q403 0 403 -563q0 -274 -103.5 -434t-318.5 -160q-209 0 -309.5 154t-100.5 414zM285 549q0 -434 235 -434q240 0 240 448q0 428 -234 428q-241 0 -241 -442z" />
<glyph unicode="p" horiz-adv-x="1046" d="M166 -555v1624q193 68 362 68q412 0 412 -574q0 -260 -103.5 -425t-324.5 -165q-82 0 -172 27v-555h-174zM340 963v-801q72 -43 174 -43q246 0 246 438q0 436 -240 436q-96 1 -180 -30z" />
<glyph unicode="q" horiz-adv-x="1048" d="M113 526q0 281 103 446t331 165q182 0 340 -101v-1591h-174v590q-111 -61 -242 -62q-178 0 -268 142.5t-90 410.5zM295 537q0 -209 51 -313.5t168 -104.5t199 61v764q-66 47 -170 47q-248 1 -248 -454z" />
<glyph unicode="r" horiz-adv-x="772" d="M715 1124l-10 -159q-15 1 -29 1q-91 0 -167 -57q-87 -66 -171 -245v-664h-172v1104h172v-227q82 139 163 199q67 50 170 50q22 0 44 -2z" />
<glyph unicode="s" horiz-adv-x="780" d="M426 1137q102 0 244 -47l-33 -142q-117 49 -192.5 49t-119.5 -38.5t-44 -108.5q0 -63 44 -114.5t107 -92.5l127 -86q63 -45 107.5 -118.5t44.5 -170.5q0 -147 -92.5 -222t-239.5 -75q-162 0 -299 64l43 145q123 -72 239 -71q82 0 126 42t44 113q0 66 -44 120t-107 96 l-127 87q-63 45 -107.5 115t-44.5 158q0 141 92.5 219t231.5 78z" />
<glyph unicode="t" horiz-adv-x="636" d="M612 160l31 -144q-86 -43 -211 -43q-145 0 -202.5 71t-57.5 239v690h-127v131h127v366l174 43v-409h254v-131h-254v-668q0 -98 26.5 -140t92.5 -42q77 0 147 37z" />
<glyph unicode="u" horiz-adv-x="1083" d="M162 1104h174v-778q0 -111 31.5 -154t101.5 -43q123 0 276 143v832h175v-1104h-156l-12 125q-100 -78 -179 -115t-170 -37q-117 0 -179 72t-62 250v809z" />
<glyph unicode="v" horiz-adv-x="917" d="M901 1104l-371 -1104h-139l-375 1104h197l256 -868l244 868h188z" />
<glyph unicode="w" horiz-adv-x="1349" d="M1311 1104l-254 -1104h-119l-258 856l-260 -856h-119l-262 1104h178l168 -825l240 825h118l242 -823l158 823h168z" />
<glyph unicode="x" horiz-adv-x="876" d="M240 1104l235 -426l178 426h187l-265 -555l-28 -2l303 -547h-201l-235 424l-176 -426h-187l262 555h29l-303 551h201z" />
<glyph unicode="y" horiz-adv-x="890" d="M885 1104l-353 -1198q-59 -203 -154 -302.5t-263 -166.5l-64 141q127 57 200 136t116 218l32 107l-65 4l-320 1061h191l252 -940l248 940h180z" />
<glyph unicode="z" horiz-adv-x="788" d="M737 0h-667l-7 109l463 860h-436v135h627l12 -109l-465 -858h473v-137z" />
<glyph unicode="{" horiz-adv-x="591" d="M516 -156l-27 -116q-66 23 -104.5 43t-78.5 60t-57.5 107.5t-17.5 167.5v281q0 168 -44 247t-138 93v102q182 25 182 295v344q0 160 78 236t180 84l19 -117q-129 -6 -129 -227v-322q0 -256 -150 -340q66 -31 108 -126t42 -220v-348q0 -106 30.5 -159.5t106.5 -84.5z" />
<glyph unicode="|" horiz-adv-x="520" d="M344 -219h-166v1882h166v-1882z" />
<glyph unicode="}" horiz-adv-x="591" d="M76 1673l30 117q66 -23 103 -42t77 -59t57 -108t17 -168v-280q0 -168 44.5 -248t136.5 -94v-103q-80 -12 -130.5 -85t-50.5 -210v-342q0 -160 -77.5 -236.5t-178.5 -82.5l-18 116q131 6 131 226v321q0 256 148 340q-66 33 -107 127t-41 221v347q0 106 -32.5 159 t-108.5 84z" />
<glyph unicode="~" horiz-adv-x="894" d="M793 707l51 -121q-111 -115 -244 -115q-72 0 -164 60.5t-160 60.5q-98 0 -178 -72l-45 121q119 104 238 104q82 0 178 -60t145 -60q77 0 179 82z" />
<glyph unicode="&#xa1;" horiz-adv-x="446" d="M145 -410l15 1063h164l16 -1063h-195zM371 1007.5q0 -51.5 -34 -86t-81 -34.5q-51 0 -85 34.5t-34 86t35 86t84 34.5q47 0 81 -34.5t34 -86z" />
<glyph unicode="&#xa2;" horiz-adv-x="839" d="M752 182l39 -145q-100 -53 -199 -64v-247h-152v256q-162 33 -248 184t-86 389q0 240 88.5 386t245.5 183v246h152v-237q90 -8 196 -62l-43 -149q-102 68 -202 67q-119 0 -185.5 -107.5t-66.5 -312.5q0 -209 67.5 -330.5t190.5 -121.5q103 -1 203 65z" />
<glyph unicode="&#xa3;" horiz-adv-x="915" d="M639 750h-231v-218q0 -160 -17.5 -249.5t-71.5 -141.5h545v-141h-768l-14 111q96 76 127 169t31 261v209h-156v137h156v221q0 182 97 304t265 122q133 0 270 -57l-45 -138q-98 49 -202 50q-106 0 -161.5 -77t-55.5 -208v-217h231v-137z" />
<glyph unicode="&#xa4;" horiz-adv-x="1036" d="M805 862h-404q-2 -33 -2 -102q0 -47 2 -70h404v-131h-395q25 -209 101.5 -325.5t209.5 -116.5q98 0 219 63l45 -143q-154 -66 -278 -66q-217 0 -337 158t-149 430h-131v131h121v58q0 76 2 114h-123v135h137q39 248 160 395.5t336 147.5q123 0 250 -59l-47 -148 q-100 59 -195 60q-260 0 -317 -396h391v-135z" />
<glyph unicode="&#xa5;" horiz-adv-x="1013" d="M975 1513l-277 -632h220v-133h-277l-66 -150h343v-133h-330v-467h-176v467h-330v133h348l-63 150h-285v133h221l10 -13l-274 645h184l281 -763l282 763h189z" />
<glyph unicode="&#xa6;" horiz-adv-x="520" d="M178 604h166v-823h-166v823zM344 895h-166v770h166v-770z" />
<glyph unicode="&#xa7;" horiz-adv-x="958" d="M868 496q0 -172 -186 -293q92 -117 92 -242q0 -137 -94 -208.5t-248 -71.5q-172 0 -278 51l47 127q82 -45 217 -45q188 0 188 143q0 70 -51 140.5t-125 133.5l-146 130q-73 67 -124 153t-51 178q0 174 184 293q-104 129 -105 262q0 131 90.5 208t249.5 77q139 0 256 -45 l-45 -123q-72 33 -200 33q-88 0 -140.5 -38t-52.5 -107.5t54.5 -142.5t129.5 -137l153 -134q77 -70 131 -159t54 -183zM707 498q0 43 -17.5 84t-55.5 83t-71 72.5t-91 78.5t-89 77q-109 -98 -109 -195q0 -55 34 -112.5t64.5 -89t110.5 -101.5l105 -92q119 93 119 195z" />
<glyph unicode="&#xa8;" horiz-adv-x="614" d="M211 1434q0 -47 -29.5 -78t-72.5 -31q-49 0 -80 29.5t-31 79.5q0 51 30.5 81.5t80.5 30.5q43 0 72.5 -31.5t29.5 -80.5zM610 1433.5q0 -49.5 -30.5 -79t-79.5 -29.5q-43 0 -73 29.5t-30 79t29 81t74 31.5q47 0 78.5 -31.5t31.5 -81z" />
<glyph unicode="&#xa9;" horiz-adv-x="2080" d="M1942 614q0 -299 -111 -543.5t-318.5 -390t-472 -145.5t-471.5 143.5t-318.5 388t-111.5 547.5q0 297 110.5 542t318.5 390.5t472.5 145.5t472 -145.5t318.5 -390.5t111 -542zM1786 612q0 258 -92 470t-265.5 337t-390.5 125t-389 -126t-264 -338t-92 -468 q0 -399 208 -666.5t537.5 -267.5t538.5 269.5t209 664.5zM1331 199l49 -140q-152 -88 -344 -88q-215 0 -353 174t-138 484q0 281 143 443.5t348 162.5q170 0 334 -88l-49 -143q-86 47 -141.5 66.5t-120.5 19.5q-53 0 -108.5 -24t-109 -73t-86 -144t-32.5 -220 q0 -135 35 -240.5t87 -161t104 -83t98 -27.5q80 0 139 18.5t145 63.5z" />
<glyph unicode="&#xaa;" horiz-adv-x="665" d="M584 465h-521v137h521v-137zM575 739h-129l-10 88q-4 -4 -32.5 -28.5t-39.5 -31.5l-35 -23q-24 -15 -43.5 -20t-41.5 -5q-90 0 -139.5 61.5t-49.5 155.5q0 139 93.5 195.5t271.5 60.5v86q0 147 -105 147q-78 0 -198 -63l-31 117q156 63 258 63q117 0 169 -73.5t52 -184.5 v-356q0 -52 10 -189zM420 928v172q-227 -4 -227 -154q0 -109 77 -108q64 0 150 90z" />
<glyph unicode="&#xab;" d="M285 557l219 -428l-127 -33l-287 461l287 463l125 -39zM838 180l-125 -37l-260 414l262 408l121 -39l-187 -367z" />
<glyph unicode="&#xac;" horiz-adv-x="1087" d="M858 616h-780v144h926v-551h-144z" />
<glyph unicode="&#xad;" horiz-adv-x="755" d="M647 596h-541v145h541v-145z" />
<glyph unicode="&#xae;" horiz-adv-x="2080" d="M1942 614q0 -299 -111 -543.5t-318.5 -390t-472 -145.5t-471.5 143.5t-318.5 388t-111.5 547.5q0 297 110.5 542t318.5 390.5t472.5 145.5t472 -145.5t318.5 -390.5t111 -542zM1786 612q0 258 -92 470t-265.5 337t-390.5 125t-389 -126t-264 -338t-92 -468 q0 -399 208 -666.5t537.5 -267.5t538.5 269.5t209 664.5zM1382 866q0 -227 -204 -319l247 -549h-174l-209 510q-84 -14 -165 -8v-502h-156v1216h256q219 0 312 -105.5t93 -242.5zM1223 858q0 106 -61.5 166.5t-223.5 60.5h-61v-467q346 -2 346 240z" />
<glyph unicode="&#xaf;" horiz-adv-x="565" d="M563 1294h-559v123h559v-123z" />
<glyph unicode="&#xb0;" horiz-adv-x="776" d="M672 1348q0 -137 -84 -231.5t-205 -94.5q-123 0 -205 93t-82 233q0 135 84 229t203 94q121 0 205 -94t84 -229zM543 1348q0 88 -47 147t-113 59t-112 -60t-46 -146q0 -88 46 -148.5t112 -60.5t113 60.5t47 148.5z" />
<glyph unicode="&#xb1;" horiz-adv-x="999" d="M899 641h-319v-395h-160v395h-322v143h322v404h160v-404h319v-143zM899 0h-801v147h801v-147z" />
<glyph unicode="&#xb2;" horiz-adv-x="583" d="M551 676h-496l-10 80l150 178q47 57 112.5 174t65.5 195q0 113 -103 112q-86 0 -178 -53l-35 115q121 63 236 63q113 0 172 -57.5t59 -167.5q0 -205 -291 -527h318v-112z" />
<glyph unicode="&#xb3;" horiz-adv-x="524" d="M502 926q0 -133 -81 -202t-222 -69q-84 0 -168 25l30 121q76 -29 134 -29q70 0 112.5 38t42.5 110q0 150 -174 149h-70l-2 102h46q68 0 117.5 37t49.5 107q0 47 -27.5 73.5t-74.5 26.5q-61 0 -133 -39l-39 109q109 51 205 51q100 0 163.5 -50t63.5 -147q0 -127 -108 -196 q135 -51 135 -217z" />
<glyph unicode="&#xb4;" horiz-adv-x="249" d="M-35 1294l191 332l137 -78l-225 -305z" />
<glyph unicode="&#xb5;" horiz-adv-x="1064" d="M152 -559v1663h176v-799q39 -84 93 -136t114 -52q80 0 138 88t58 227v672h174v-770q0 -154 21 -334h-156q-6 59 -10 127q-82 -156 -213 -156q-129 0 -219 113v-643h-176z" />
<glyph unicode="&#x3bc;" horiz-adv-x="1064" d="M152 -559v1663h176v-799q39 -84 93 -136t114 -52q80 0 138 88t58 227v672h174v-770q0 -154 21 -334h-156q-6 59 -10 127q-82 -156 -213 -156q-129 0 -219 113v-643h-176z" />
<glyph unicode="&#xb6;" horiz-adv-x="1105" d="M782 -162v1757h-176q-188 0 -296.5 -85t-108.5 -261q0 -92 39 -159.5t104.5 -102.5t134 -50t144.5 -15v-1084h-164v946q-211 27 -321.5 156t-110.5 299q0 227 137 363.5t428 136.5h358v-1901h-168z" />
<glyph unicode="&#xb7;" horiz-adv-x="491" d="M377 710.5q0 -51.5 -34 -86t-81 -34.5q-51 0 -85 34.5t-34 86t35 86t84 34.5q47 0 81 -34.5t34 -86z" />
<glyph unicode="&#xb8;" horiz-adv-x="505" d="M324 4l-21 -145q190 -39 191 -197q0 -100 -71 -145t-175 -45q-70 0 -142 20l25 94q59 -18 107 -18q131 0 131 102q0 53 -43 79t-133 32l26 223h105z" />
<glyph unicode="&#xb9;" horiz-adv-x="507" d="M397 672h-145l2 690l-186 -107l-41 105l254 172h116v-860z" />
<glyph unicode="&#xba;" horiz-adv-x="763" d="M688 465h-602v137h602v-137zM61 1133q0 43 8.5 91t30 106.5t55 103.5t91 75.5t131.5 30.5q94 0 159.5 -42t94 -110.5t39 -127t10.5 -119.5q0 -66 -14.5 -132.5t-46 -134t-98 -109.5t-157 -42t-154 41t-94 108.5t-43 131t-12.5 129.5zM221 1137q0 -45 5 -88t19.5 -91.5 t46.5 -78t79 -29.5t78.5 29.5t47 78t21.5 91.5t6 88q0 41 -6 82t-20.5 88t-47 76.5t-77.5 29.5q-59 0 -96 -52t-46.5 -108.5t-9.5 -115.5z" />
<glyph unicode="&#xbb;" horiz-adv-x="950" d="M446 985l127 35l287 -463l-289 -461l-125 37l220 424zM111 934l125 37l260 -414l-260 -407l-123 38l186 367z" />
<glyph unicode="&#xbc;" horiz-adv-x="1273" d="M383 672h-145l2 690l-187 -107l-41 105l254 172h117v-860zM920 872h141l-211 -567h186l29 277h92l2 -277h92v-119h-92v-186h-143v186h-281l-35 101zM1165 1403l-905 -1350l-110 101l909 1353z" />
<glyph unicode="&#xbd;" horiz-adv-x="1349" d="M1149 1403l-905 -1350l-111 101l909 1353zM1325 0h-496l-10 82q201 233 264 346q66 117 66 199q0 113 -105 112q-86 0 -178 -53l-32 117q121 61 233 61q233 0 233 -225q0 -209 -288 -524h313v-115zM383 672h-145l2 690l-187 -107l-41 105l254 172h117v-860z" />
<glyph unicode="&#xbe;" horiz-adv-x="1312" d="M1200 1403l-905 -1350l-111 101l910 1353zM502 926q0 -133 -81 -202t-222 -69q-84 0 -168 25l30 121q76 -29 134 -29q70 0 112.5 38t42.5 110q0 150 -174 149h-70l-2 102h46q68 0 117.5 37t49.5 107q0 47 -27.5 73.5t-74.5 26.5q-61 0 -133 -39l-39 109q109 51 205 51 q100 0 163.5 -50t63.5 -147q0 -127 -108 -196q135 -51 135 -217zM969 872h143l-211 -567h186l27 277h94v-277h95v-119h-95v-186h-141v186h-281l-34 101z" />
<glyph unicode="&#xbf;" horiz-adv-x="804" d="M537 662v-121q0 -98 -26 -178t-62.5 -134.5t-73.5 -102.5t-62.5 -103.5t-25.5 -116.5q0 -82 44 -125t118 -43q100 0 223 86l59 -125q-158 -104 -317.5 -104.5t-233.5 86t-74 215.5q0 94 40 180t88.5 142t88 144.5t39.5 188.5v111h175zM332 1012q0 51 32.5 86t82 35 t83 -35t33.5 -86t-33.5 -86t-83 -35t-82 35t-32.5 86z" />
<glyph unicode="&#xc0;" horiz-adv-x="1064" d="M881 0l-129 440h-459l-125 -440h-176l432 1513h199l450 -1513h-192zM518 1354l-188 -772h383zM295 1939l156 84l192 -317l-115 -55z" />
<glyph unicode="&#xc1;" horiz-adv-x="1064" d="M881 0l-129 440h-459l-125 -440h-176l432 1513h199l450 -1513h-192zM518 1354l-188 -772h383zM403 1696l189 329l139 -79l-225 -301z" />
<glyph unicode="&#xc2;" horiz-adv-x="1064" d="M881 0l-129 440h-459l-125 -440h-176l432 1513h199l450 -1513h-192zM518 1354l-188 -772h383zM520 1970l287 -248l-82 -82l-203 164l-198 -164l-84 72z" />
<glyph unicode="&#xc3;" horiz-adv-x="1064" d="M881 0l-129 440h-459l-125 -440h-176l432 1513h199l450 -1513h-192zM518 1354l-188 -772h383zM760 1837l67 -80q-92 -102 -194 -102q-53 0 -113.5 30.5t-95.5 30.5q-49 0 -127 -61l-66 84q106 100 199 100q51 0 111.5 -29.5t97.5 -29.5q49 0 121 57z" />
<glyph unicode="&#xc4;" horiz-adv-x="1064" d="M881 0l-129 440h-459l-125 -440h-176l432 1513h199l450 -1513h-192zM518 1354l-188 -772h383zM838 1767.5q0 -49.5 -34 -80t-85 -30.5q-43 0 -76 31.5t-33 78.5q0 49 32 82t77 33q51 0 85 -32.5t34 -82zM424 1767.5q0 -49.5 -32 -80t-77 -30.5q-51 0 -82.5 30.5t-31.5 80 t32.5 82t81.5 32.5q47 0 78 -32.5t31 -82z" />
<glyph unicode="&#xc5;" horiz-adv-x="1064" d="M731 1642q0 -125 -90 -194l432 -1448h-192l-129 440h-459l-125 -440h-176l411 1444q-90 63 -90 198q0 98 59.5 166t147.5 68q92 0 151.5 -69t59.5 -165zM518 1354l-188 -772h383zM618 1642.5q0 55.5 -25.5 93.5t-72.5 38t-71.5 -38t-24.5 -94q0 -123 86 -129h10 q47 0 72.5 37t25.5 92.5z" />
<glyph unicode="&#xc6;" horiz-adv-x="1484" d="M1434 0h-547l-70 473h-469l-201 -473h-206l704 1513h725v-145h-526l80 -498h426v-143h-408l94 -582h398v-145zM801 610l-107 733l-280 -733h387z" />
<glyph unicode="&#xc7;" d="M913 182l21 -149q-119 -51 -272 -58l-17 -116q190 -39 191 -197q0 -100 -71 -145t-175 -45q-70 0 -141 20l24 94q59 -18 107 -18q131 0 131 102q0 53 -43 79t-133 32l22 201q-471 53 -471 763q0 795 567 795q141 0 279 -49l-31 -148q-27 14 -100.5 32t-145.5 18 q-385 0 -385 -627q0 -643 375 -643q135 0 268 59z" />
<glyph unicode="&#xc8;" horiz-adv-x="1019" d="M958 0h-770v1513h734v-145h-560v-508h504v-143h-504v-572h596v-145zM328 1939l155 84l193 -317l-115 -55z" />
<glyph unicode="&#xc9;" horiz-adv-x="1019" d="M958 0h-770v1513h734v-145h-560v-508h504v-143h-504v-572h596v-145zM438 1696l189 329l139 -79l-225 -301z" />
<glyph unicode="&#xca;" horiz-adv-x="1019" d="M958 0h-770v1513h734v-145h-560v-508h504v-143h-504v-572h596v-145zM555 1970l287 -248l-82 -82l-203 164l-199 -164l-84 72z" />
<glyph unicode="&#xcb;" horiz-adv-x="1019" d="M958 0h-770v1513h734v-145h-560v-508h504v-143h-504v-572h596v-145zM457 1767.5q0 -49.5 -32 -80t-77 -30.5q-51 0 -83 30.5t-32 80t33 82t82 32.5q47 0 78 -32.5t31 -82zM870 1767.5q0 -49.5 -33.5 -80t-84.5 -30.5q-43 0 -76 31.5t-33 78.5q0 49 32 82t77 33 q51 0 84.5 -32.5t33.5 -82z" />
<glyph unicode="&#xcc;" horiz-adv-x="552" d="M362 0h-172v1513h172v-1513zM51 1939l156 84l192 -317l-114 -55z" />
<glyph unicode="&#xcd;" horiz-adv-x="552" d="M362 0h-172v1513h172v-1513zM162 1696l188 329l139 -79l-225 -301z" />
<glyph unicode="&#xce;" horiz-adv-x="552" d="M362 0h-172v1513h172v-1513zM279 1970l286 -248l-82 -82l-202 164l-199 -164l-84 72z" />
<glyph unicode="&#xcf;" horiz-adv-x="552" d="M362 0h-172v1513h172v-1513zM180 1767.5q0 -49.5 -31.5 -80t-76.5 -30.5q-51 0 -83 30.5t-32 80t33 82t82 32.5q47 0 77.5 -32.5t30.5 -82zM594 1767.5q0 -49.5 -34 -80t-85 -30.5q-43 0 -75.5 31.5t-32.5 78.5q0 49 31.5 82t76.5 33q51 0 85 -32.5t34 -82z" />
<glyph unicode="&#xd0;" horiz-adv-x="1245" d="M1153 768q0 -131 -16.5 -238.5t-58.5 -209t-109.5 -170t-177 -109.5t-254.5 -41h-349v1513h357q608 0 608 -745zM971 760q0 137 -19.5 239.5t-66.5 189.5t-138.5 133t-222.5 46h-162v-1223h185q104 0 181 33t123 86t73.5 135t37 166t9.5 195zM844 1704h-559v123h559v-123 z" />
<glyph unicode="&#xd1;" horiz-adv-x="1363" d="M1176 0h-129l-691 1159v-1159h-168v1513h136l686 -1142v1142h166v-1513zM932 1837l67 -80q-92 -102 -194 -102q-53 0 -113.5 30.5t-95.5 30.5q-49 0 -127 -61l-66 84q106 100 199 100q51 0 111.5 -29.5t97.5 -29.5q49 0 121 57z" />
<glyph unicode="&#xd2;" horiz-adv-x="1277" d="M1188 786q0 -813 -565 -813q-532 0 -533 754q0 162 27.5 299t90 257t176.5 188.5t269 68.5q150 0 257.5 -61.5t166 -171t85 -238.5t26.5 -283zM1004 778q0 616 -361 617q-371 0 -371 -660q0 -616 359 -616q373 0 373 659zM422 1939l156 84l192 -317l-115 -55z" />
<glyph unicode="&#xd3;" horiz-adv-x="1277" d="M1188 786q0 -813 -565 -813q-532 0 -533 754q0 162 27.5 299t90 257t176.5 188.5t269 68.5q150 0 257.5 -61.5t166 -171t85 -238.5t26.5 -283zM1004 778q0 616 -361 617q-371 0 -371 -660q0 -616 359 -616q373 0 373 659zM532 1696l189 329l139 -79l-225 -301z" />
<glyph unicode="&#xd4;" horiz-adv-x="1277" d="M1188 786q0 -813 -565 -813q-532 0 -533 754q0 162 27.5 299t90 257t176.5 188.5t269 68.5q150 0 257.5 -61.5t166 -171t85 -238.5t26.5 -283zM1004 778q0 616 -361 617q-371 0 -371 -660q0 -616 359 -616q373 0 373 659zM649 1970l287 -248l-82 -82l-203 164l-198 -164 l-84 72z" />
<glyph unicode="&#xd5;" horiz-adv-x="1277" d="M1188 786q0 -813 -565 -813q-532 0 -533 754q0 162 27.5 299t90 257t176.5 188.5t269 68.5q150 0 257.5 -61.5t166 -171t85 -238.5t26.5 -283zM1004 778q0 616 -361 617q-371 0 -371 -660q0 -616 359 -616q373 0 373 659zM887 1837l67 -80q-92 -102 -194 -102 q-53 0 -113.5 30.5t-95.5 30.5q-49 0 -127 -61l-66 84q106 100 199 100q51 0 111.5 -29.5t97.5 -29.5q49 0 121 57z" />
<glyph unicode="&#xd6;" horiz-adv-x="1277" d="M1188 786q0 -813 -565 -813q-532 0 -533 754q0 162 27.5 299t90 257t176.5 188.5t269 68.5q150 0 257.5 -61.5t166 -171t85 -238.5t26.5 -283zM1004 778q0 616 -361 617q-371 0 -371 -660q0 -616 359 -616q373 0 373 659zM551 1767.5q0 -49.5 -32 -80t-77 -30.5 q-51 0 -82.5 30.5t-31.5 80t32.5 82t81.5 32.5q47 0 78 -32.5t31 -82zM965 1767.5q0 -49.5 -34 -80t-85 -30.5q-43 0 -76 31.5t-33 78.5q0 49 32 82t77 33q51 0 85 -32.5t34 -82z" />
<glyph unicode="&#xd7;" horiz-adv-x="997" d="M870 926l-266 -324l268 -328l-106 -108l-266 328l-264 -326l-107 106l264 326l-268 330l104 110l271 -333l264 329z" />
<glyph unicode="&#xd8;" horiz-adv-x="1284" d="M1188 786q0 -813 -565 -813q-240 0 -371 152l-125 -162l-109 113l148 188q-76 176 -76 463q0 162 27.5 299t90 257t176.5 188.5t269 68.5q250 0 383 -176l150 188l104 -112l-174 -217q72 -179 72 -437zM272 735q0 -180 29 -309l625 791q-90 178 -283 178 q-371 -1 -371 -660zM1004 778q0 150 -25 279l-617 -789q90 -150 269 -149q373 0 373 659z" />
<glyph unicode="&#xd9;" horiz-adv-x="1286" d="M1108 1513v-1044q0 -221 -114.5 -358.5t-360.5 -137.5q-244 0 -349.5 135.5t-105.5 356.5v1048h176v-1011q0 -184 64.5 -278.5t226.5 -94.5t225.5 99.5t63.5 277.5v1007h174zM424 1939l156 84l192 -317l-115 -55z" />
<glyph unicode="&#xda;" horiz-adv-x="1286" d="M1108 1513v-1044q0 -221 -114.5 -358.5t-360.5 -137.5q-244 0 -349.5 135.5t-105.5 356.5v1048h176v-1011q0 -184 64.5 -278.5t226.5 -94.5t225.5 99.5t63.5 277.5v1007h174zM535 1696l188 329l139 -79l-225 -301z" />
<glyph unicode="&#xdb;" horiz-adv-x="1286" d="M1108 1513v-1044q0 -221 -114.5 -358.5t-360.5 -137.5q-244 0 -349.5 135.5t-105.5 356.5v1048h176v-1011q0 -184 64.5 -278.5t226.5 -94.5t225.5 99.5t63.5 277.5v1007h174zM651 1970l287 -248l-82 -82l-203 164l-198 -164l-84 72z" />
<glyph unicode="&#xdc;" horiz-adv-x="1286" d="M1108 1513v-1044q0 -221 -114.5 -358.5t-360.5 -137.5q-244 0 -349.5 135.5t-105.5 356.5v1048h176v-1011q0 -184 64.5 -278.5t226.5 -94.5t225.5 99.5t63.5 277.5v1007h174zM553 1767.5q0 -49.5 -32 -80t-77 -30.5q-51 0 -82.5 30.5t-31.5 80t32.5 82t81.5 32.5 q47 0 78 -32.5t31 -82zM967 1767.5q0 -49.5 -34 -80t-85 -30.5q-43 0 -76 31.5t-33 78.5q0 49 32 82t77 33q51 0 85 -32.5t34 -82z" />
<glyph unicode="&#xdd;" horiz-adv-x="974" d="M1006 1513l-431 -1017v-496h-174v492l-434 1021h199l326 -837l331 837h183zM379 1696l188 329l140 -79l-226 -301z" />
<glyph unicode="&#xde;" horiz-adv-x="1058" d="M211 1513h174v-280h131q115 0 204 -34t140 -84t83 -116.5t43 -124t11 -114.5q0 -68 -12 -131.5t-44 -127t-82 -109.5t-132 -74.5t-186 -28.5q-92 0 -156 16v-305h-174v1513zM809 760q0 39 -4 73.5t-23.5 84t-51.5 84t-93.5 60t-142.5 25.5h-109v-636q82 -18 150 -19 q274 0 274 328z" />
<glyph unicode="&#xdf;" horiz-adv-x="1009" d="M666 113q63 0 97 40t34 111q0 70 -40 137.5t-89.5 116.5t-89 127t-39.5 166q0 80 30.5 159t66.5 131t66.5 120.5t30.5 130.5q0 80 -42 135t-128 55q-111 0 -168 -94t-57 -244v-1204h-174v1198q0 219 103.5 351t295.5 132q164 0 256 -88t92 -223q0 -84 -30.5 -164 t-66.5 -132t-66.5 -119.5t-30.5 -129.5q0 -57 26.5 -108t63.5 -94l75 -91q38 -47 64.5 -115.5t26.5 -150.5q0 -86 -30 -148.5t-78 -93t-96 -43t-97 -12.5q-115 0 -246 76l47 148q123 -80 193 -80z" />
<glyph unicode="&#xe0;" horiz-adv-x="933" d="M788 0h-145l-18 106q-4 -2 -36 -25.5t-43 -30.5t-43 -25.5t-52.5 -25.5t-52 -14.5t-62.5 -7.5q-119 0 -182.5 84t-63.5 211q0 117 70.5 190t177 100.5t258.5 31.5v209q0 106 -37 149t-113 43q-109 0 -266 -77l-39 133q209 80 330 79q160 0 228.5 -82.5t68.5 -240.5v-496 q0 -96 20 -311zM598 209v276q-55 -2 -96 -5t-91.5 -15t-82 -31.5t-54 -56.5t-22.5 -86q0 -84 39 -134.5t106 -50.5q66 1 201 103zM236 1540l155 84l193 -319l-115 -56z" />
<glyph unicode="&#xe1;" horiz-adv-x="933" d="M788 0h-145l-18 106q-4 -2 -36 -25.5t-43 -30.5t-43 -25.5t-52.5 -25.5t-52 -14.5t-62.5 -7.5q-119 0 -182.5 84t-63.5 211q0 117 70.5 190t177 100.5t258.5 31.5v209q0 106 -37 149t-113 43q-109 0 -266 -77l-39 133q209 80 330 79q160 0 228.5 -82.5t68.5 -240.5v-496 q0 -96 20 -311zM598 209v276q-55 -2 -96 -5t-91.5 -15t-82 -31.5t-54 -56.5t-22.5 -86q0 -84 39 -134.5t106 -50.5q66 1 201 103zM383 1294l190 332l138 -78l-226 -305z" />
<glyph unicode="&#xe2;" horiz-adv-x="933" d="M788 0h-145l-18 106q-4 -2 -36 -25.5t-43 -30.5t-43 -25.5t-52.5 -25.5t-52 -14.5t-62.5 -7.5q-119 0 -182.5 84t-63.5 211q0 117 70.5 190t177 100.5t258.5 31.5v209q0 106 -37 149t-113 43q-109 0 -266 -77l-39 133q209 80 330 79q160 0 228.5 -82.5t68.5 -240.5v-496 q0 -96 20 -311zM598 209v276q-55 -2 -96 -5t-91.5 -15t-82 -31.5t-54 -56.5t-22.5 -86q0 -84 39 -134.5t106 -50.5q66 1 201 103zM479 1571l285 -248l-82 -82l-203 164l-198 -164l-84 70z" />
<glyph unicode="&#xe3;" horiz-adv-x="933" d="M788 0h-145l-18 106q-4 -2 -36 -25.5t-43 -30.5t-43 -25.5t-52.5 -25.5t-52 -14.5t-62.5 -7.5q-119 0 -182.5 84t-63.5 211q0 117 70.5 190t177 100.5t258.5 31.5v209q0 106 -37 149t-113 43q-109 0 -266 -77l-39 133q209 80 330 79q160 0 228.5 -82.5t68.5 -240.5v-496 q0 -96 20 -311zM598 209v276q-55 -2 -96 -5t-91.5 -15t-82 -31.5t-54 -56.5t-22.5 -86q0 -84 39 -134.5t106 -50.5q66 1 201 103zM696 1470l70 -77q-90 -111 -195 -111q-59 0 -116.5 32t-89.5 32q-10 0 -19.5 -1.5t-20 -6.5t-16.5 -7t-19.5 -11t-16.5 -12t-19 -15.5 t-21 -14.5l-63 84q100 106 197 106q55 0 113.5 -30.5t90.5 -30.5q53 0 125 63z" />
<glyph unicode="&#xe4;" horiz-adv-x="933" d="M788 0h-145l-18 106q-4 -2 -36 -25.5t-43 -30.5t-43 -25.5t-52.5 -25.5t-52 -14.5t-62.5 -7.5q-119 0 -182.5 84t-63.5 211q0 117 70.5 190t177 100.5t258.5 31.5v209q0 106 -37 149t-113 43q-109 0 -266 -77l-39 133q209 80 330 79q160 0 228.5 -82.5t68.5 -240.5v-496 q0 -96 20 -311zM598 209v276q-55 -2 -96 -5t-91.5 -15t-82 -31.5t-54 -56.5t-22.5 -86q0 -84 39 -134.5t106 -50.5q66 1 201 103zM379 1434q0 -47 -30 -78t-73 -31q-49 0 -79.5 29.5t-30.5 79.5q0 51 30.5 81.5t79.5 30.5q43 0 73 -31.5t30 -80.5zM778 1433.5 q0 -49.5 -30.5 -79t-79.5 -29.5q-43 0 -73 29.5t-30 79t29 81t74 31.5q47 0 78.5 -31.5t31.5 -81z" />
<glyph unicode="&#xe5;" horiz-adv-x="933" d="M788 0h-145l-18 106q-4 -2 -36 -25.5t-43 -30.5t-43 -25.5t-52.5 -25.5t-52 -14.5t-62.5 -7.5q-119 0 -182.5 84t-63.5 211q0 117 70.5 190t177 100.5t258.5 31.5v209q0 106 -37 149t-113 43q-109 0 -266 -77l-39 133q209 80 330 79q160 0 228.5 -82.5t68.5 -240.5v-496 q0 -96 20 -311zM598 209v276q-55 -2 -96 -5t-91.5 -15t-82 -31.5t-54 -56.5t-22.5 -86q0 -84 39 -134.5t106 -50.5q66 1 201 103zM686 1448q0 -98 -59.5 -167t-151.5 -69q-90 0 -148.5 69t-58.5 167t59.5 166.5t147.5 68.5q92 0 151.5 -68.5t59.5 -166.5zM573 1448 q0 55 -26.5 93t-71.5 38t-70.5 -38t-25.5 -93t25.5 -92t70.5 -37t71.5 39t26.5 90z" />
<glyph unicode="&#xe6;" horiz-adv-x="1370" d="M954 -29q-174 0 -270 150q-182 -143 -332 -144q-123 0 -195.5 86.5t-72.5 223.5q0 180 133 270t365 96v127q0 215 -138 215q-104 0 -266 -77l-39 133q209 80 326 79q170 0 221 -188q119 193 264 193q166 0 247 -135.5t81 -352.5q0 -49 -6 -96h-541q12 -442 248 -442 q109 0 235 96l43 -137q-139 -97 -303 -97zM403 106q98 0 234 109q-51 131 -57 330q-158 -4 -247 -62.5t-89 -175.5q0 -86 44.5 -143.5t114.5 -57.5zM930 1006q-90 0 -143.5 -98.5t-63.5 -241.5h393q7 340 -186 340z" />
<glyph unicode="&#xe7;" horiz-adv-x="827" d="M739 176l37 -135q-82 -45 -225 -59l-16 -123q190 -39 190 -197q0 -100 -70.5 -145t-175.5 -45q-70 0 -141 20l24 94q59 -18 107 -18q131 0 131 102q0 53 -43 79t-133 32l22 203q-340 41 -340 563q0 289 109 433t311 144q145 0 246 -49l-37 -145q-94 55 -200 55 q-248 0 -248 -418q0 -215 65.5 -330.5t184.5 -115.5q93 0 202 55z" />
<glyph unicode="&#xe8;" d="M852 551h-584q2 -229 62.5 -333.5t201.5 -104.5q111 0 265 80l41 -134q-168 -86 -320 -86q-217 0 -312 148.5t-95 421.5q0 588 399 587q350 0 350 -464q0 -68 -8 -115zM502 1006q-207 0 -232 -340h426q2 170 -40.5 255t-153.5 85zM268 1540l156 84l192 -319l-114 -56z " />
<glyph unicode="&#xe9;" d="M852 551h-584q2 -229 62.5 -333.5t201.5 -104.5q111 0 265 80l41 -134q-168 -86 -320 -86q-217 0 -312 148.5t-95 421.5q0 588 399 587q350 0 350 -464q0 -68 -8 -115zM502 1006q-207 0 -232 -340h426q2 170 -40.5 255t-153.5 85zM418 1294l190 332l137 -78l-225 -305z " />
<glyph unicode="&#xea;" d="M852 551h-584q2 -229 62.5 -333.5t201.5 -104.5q111 0 265 80l41 -134q-168 -86 -320 -86q-217 0 -312 148.5t-95 421.5q0 588 399 587q350 0 350 -464q0 -68 -8 -115zM502 1006q-207 0 -232 -340h426q2 170 -40.5 255t-153.5 85zM512 1571l285 -248l-82 -82l-203 164 l-199 -164l-84 70z" />
<glyph unicode="&#xeb;" d="M852 551h-584q2 -229 62.5 -333.5t201.5 -104.5q111 0 265 80l41 -134q-168 -86 -320 -86q-217 0 -312 148.5t-95 421.5q0 588 399 587q350 0 350 -464q0 -68 -8 -115zM502 1006q-207 0 -232 -340h426q2 170 -40.5 255t-153.5 85zM412 1434q0 -47 -30 -78t-73 -31 q-49 0 -79.5 29.5t-30.5 79.5q0 51 30.5 81.5t79.5 30.5q43 0 73 -31.5t30 -80.5zM811 1433.5q0 -49.5 -30.5 -79t-80.5 -29.5q-43 0 -72.5 29.5t-29.5 79t28.5 81t73.5 31.5q47 0 79 -31.5t32 -81z" />
<glyph unicode="&#xec;" horiz-adv-x="495" d="M336 0h-176v1104h176v-1104zM6 1540l156 84l192 -319l-114 -56z" />
<glyph unicode="&#xed;" horiz-adv-x="495" d="M336 0h-176v1104h176v-1104zM156 1294l190 332l137 -78l-225 -305z" />
<glyph unicode="&#xee;" horiz-adv-x="495" d="M336 0h-176v1104h176v-1104zM250 1571l285 -248l-82 -82l-203 164l-199 -164l-84 70z" />
<glyph unicode="&#xef;" horiz-adv-x="495" d="M336 0h-176v1104h176v-1104zM150 1434q0 -47 -30 -78t-73 -31q-49 0 -79.5 29.5t-30.5 79.5q0 51 30.5 81.5t79.5 30.5q43 0 73 -31.5t30 -80.5zM549 1433.5q0 -49.5 -31 -79t-80 -29.5q-43 0 -72.5 29.5t-29.5 79t28.5 81t73.5 31.5q47 0 79 -31.5t32 -81z" />
<glyph unicode="&#xf0;" horiz-adv-x="1056" d="M440 1059l-71 96l190 168q-106 131 -264 205l67 135q193 -82 320 -231l178 157l68 -92l-174 -158q186 -283 186 -708q0 -657 -416 -658q-188 0 -299.5 127t-111.5 340q0 127 36.5 227.5t100 159t144.5 87t170 21.5t175 -46q-35 197 -114 336zM299 463q0 -150 60.5 -246 t170.5 -96q229 0 230 491q0 74 -6 148q-119 49 -220.5 41t-168 -97t-66.5 -241z" />
<glyph unicode="&#xf1;" horiz-adv-x="1089" d="M924 0h-174v778q0 111 -32 155t-102 44q-119 0 -276 -146v-831h-174v1104h156l12 -127q98 78 178 115.5t172 37.5q117 0 178.5 -71.5t61.5 -247.5v-811zM782 1470l70 -77q-90 -111 -195 -111q-59 0 -116.5 32t-89.5 32q-10 0 -19.5 -1.5t-20 -6.5t-16.5 -7t-19.5 -11 t-16.5 -12t-19 -15.5t-21 -14.5l-63 84q100 106 197 106q55 0 113.5 -30.5t90.5 -30.5q53 0 125 63z" />
<glyph unicode="&#xf2;" horiz-adv-x="1050" d="M106 541q0 268 104.5 428.5t324.5 160.5q403 0 403 -563q0 -274 -103.5 -434t-318.5 -160q-209 0 -309.5 154t-100.5 414zM285 549q0 -434 235 -434q240 0 240 448q0 428 -234 428q-241 0 -241 -442zM291 1540l155 84l193 -319l-115 -56z" />
<glyph unicode="&#xf3;" horiz-adv-x="1050" d="M106 541q0 268 104.5 428.5t324.5 160.5q403 0 403 -563q0 -274 -103.5 -434t-318.5 -160q-209 0 -309.5 154t-100.5 414zM285 549q0 -434 235 -434q240 0 240 448q0 428 -234 428q-241 0 -241 -442zM440 1294l191 332l137 -78l-225 -305z" />
<glyph unicode="&#xf4;" horiz-adv-x="1050" d="M106 541q0 268 104.5 428.5t324.5 160.5q403 0 403 -563q0 -274 -103.5 -434t-318.5 -160q-209 0 -309.5 154t-100.5 414zM285 549q0 -434 235 -434q240 0 240 448q0 428 -234 428q-241 0 -241 -442zM535 1571l284 -248l-82 -82l-202 164l-199 -164l-84 70z" />
<glyph unicode="&#xf5;" horiz-adv-x="1050" d="M106 541q0 268 104.5 428.5t324.5 160.5q403 0 403 -563q0 -274 -103.5 -434t-318.5 -160q-209 0 -309.5 154t-100.5 414zM285 549q0 -434 235 -434q240 0 240 448q0 428 -234 428q-241 0 -241 -442zM752 1470l69 -77q-88 -111 -194 -111q-59 0 -116.5 32t-90.5 32 q-10 0 -19.5 -1.5t-19.5 -6.5t-16.5 -7t-19.5 -11t-16 -12t-19.5 -15.5t-20.5 -14.5l-64 84q100 106 197 106q55 0 113.5 -30.5t91.5 -30.5q53 0 125 63z" />
<glyph unicode="&#xf6;" horiz-adv-x="1050" d="M106 541q0 268 104.5 428.5t324.5 160.5q403 0 403 -563q0 -274 -103.5 -434t-318.5 -160q-209 0 -309.5 154t-100.5 414zM285 549q0 -434 235 -434q240 0 240 448q0 428 -234 428q-241 0 -241 -442zM434 1434q0 -47 -29.5 -78t-72.5 -31q-49 0 -80 29.5t-31 79.5 q0 51 31 81.5t80 30.5q43 0 72.5 -31.5t29.5 -80.5zM834 1433.5q0 -49.5 -31 -79t-80 -29.5q-43 0 -72.5 29.5t-29.5 79t28.5 81t73.5 31.5q47 0 79 -31.5t32 -81z" />
<glyph unicode="&#xf7;" horiz-adv-x="997" d="M905 688l-751 -336l-52 140l754 335zM786 92q0 -51 -33.5 -86t-80.5 -35q-51 0 -85 35t-34 86t35 86t84 35q47 0 80.5 -35t33.5 -86zM559 1055q0 -51 -33.5 -86t-81.5 -35q-51 0 -84.5 35t-33.5 86t34.5 86t83.5 35q47 0 81 -35t34 -86z" />
<glyph unicode="&#xf8;" horiz-adv-x="1050" d="M106 541q0 268 104.5 428.5t324.5 160.5q184 0 284 -122l131 131l115 -121l-164 -166q37 -117 37 -285q0 -274 -103.5 -434t-318.5 -160q-203 0 -307 150l-129 -127l-111 121l166 166q-29 106 -29 258zM760 563q0 80 -10 162l-428 -455q57 -156 198 -155q240 -1 240 448z M285 549q0 -72 6 -133l420 450q-57 125 -185 125q-241 0 -241 -442z" />
<glyph unicode="&#xf9;" horiz-adv-x="1083" d="M162 1104h174v-778q0 -111 31.5 -154t101.5 -43q123 0 276 143v832h175v-1104h-156l-12 125q-100 -78 -179 -115t-170 -37q-117 0 -179 72t-62 250v809zM297 1540l156 84l192 -319l-115 -56z" />
<glyph unicode="&#xfa;" horiz-adv-x="1083" d="M162 1104h174v-778q0 -111 31.5 -154t101.5 -43q123 0 276 143v832h175v-1104h-156l-12 125q-100 -78 -179 -115t-170 -37q-117 0 -179 72t-62 250v809zM446 1294l191 332l137 -78l-225 -305z" />
<glyph unicode="&#xfb;" horiz-adv-x="1083" d="M162 1104h174v-778q0 -111 31.5 -154t101.5 -43q123 0 276 143v832h175v-1104h-156l-12 125q-100 -78 -179 -115t-170 -37q-117 0 -179 72t-62 250v809zM541 1571l284 -248l-82 -82l-202 164l-199 -164l-84 70z" />
<glyph unicode="&#xfc;" horiz-adv-x="1083" d="M162 1104h174v-778q0 -111 31.5 -154t101.5 -43q123 0 276 143v832h175v-1104h-156l-12 125q-100 -78 -179 -115t-170 -37q-117 0 -179 72t-62 250v809zM440 1434q0 -47 -29.5 -78t-72.5 -31q-49 0 -80 29.5t-31 79.5q0 51 31 81.5t80 30.5q43 0 72.5 -31.5t29.5 -80.5z M840 1433.5q0 -49.5 -31 -79t-80 -29.5q-43 0 -72.5 29.5t-29.5 79t28.5 81t73.5 31.5q47 0 79 -31.5t32 -81z" />
<glyph unicode="&#xfd;" horiz-adv-x="890" d="M885 1104l-353 -1198q-59 -203 -154 -302.5t-263 -166.5l-64 141q127 57 200 136t116 218l32 107l-65 4l-320 1061h191l252 -940l248 940h180zM369 1294l190 332l137 -78l-225 -305z" />
<glyph unicode="&#xfe;" horiz-adv-x="1019" d="M926 563q0 -139 -41 -269t-141.5 -226.5t-239.5 -96.5q-72 0 -170 43v-571h-176v2220h176v-598q102 70 188 70q197 0 300.5 -165t103.5 -407zM739 551q0 188 -58 313t-183 125q-86 0 -164 -80v-735q80 -57 168 -57q66 0 115 44t74.5 114.5t36.5 139t11 136.5z" />
<glyph unicode="&#xff;" horiz-adv-x="890" d="M885 1104l-353 -1198q-59 -203 -154 -302.5t-263 -166.5l-64 141q127 57 200 136t116 218l32 107l-65 4l-320 1061h191l252 -940l248 940h180zM362 1434q0 -47 -29.5 -78t-72.5 -31q-49 0 -79.5 29.5t-30.5 79.5q0 51 30.5 81.5t79.5 30.5q43 0 72.5 -31.5t29.5 -80.5z M762 1433.5q0 -49.5 -31 -79t-80 -29.5q-43 0 -72.5 29.5t-29.5 79t28.5 81t73.5 31.5q47 0 79 -31.5t32 -81z" />
<glyph unicode="&#x100;" horiz-adv-x="1064" d="M881 0l-129 440h-459l-125 -440h-176l432 1513h199l450 -1513h-192zM518 1354l-188 -772h383zM801 1704h-559v123h559v-123z" />
<glyph unicode="&#x101;" horiz-adv-x="933" d="M788 0h-145l-18 106q-4 -2 -36 -25.5t-43 -30.5t-43 -25.5t-52.5 -25.5t-52 -14.5t-62.5 -7.5q-119 0 -182.5 84t-63.5 211q0 117 70.5 190t177 100.5t258.5 31.5v209q0 106 -37 149t-113 43q-109 0 -266 -77l-39 133q209 80 330 79q160 0 228.5 -82.5t68.5 -240.5v-496 q0 -96 20 -311zM598 209v276q-55 -2 -96 -5t-91.5 -15t-82 -31.5t-54 -56.5t-22.5 -86q0 -84 39 -134.5t106 -50.5q66 1 201 103zM758 1294h-559v123h559v-123z" />
<glyph unicode="&#x102;" horiz-adv-x="1064" d="M881 0l-129 440h-459l-125 -440h-176l432 1513h199l450 -1513h-192zM518 1354l-188 -772h383zM698 1952l111 -13q-16 -139 -91 -218t-196 -79t-196.5 79t-87.5 218l110 13q43 -188 174 -189q135 1 176 189z" />
<glyph unicode="&#x103;" horiz-adv-x="933" d="M788 0h-145l-18 106q-4 -2 -36 -25.5t-43 -30.5t-43 -25.5t-52.5 -25.5t-52 -14.5t-62.5 -7.5q-119 0 -182.5 84t-63.5 211q0 117 70.5 190t177 100.5t258.5 31.5v209q0 106 -37 149t-113 43q-109 0 -266 -77l-39 133q209 80 330 79q160 0 228.5 -82.5t68.5 -240.5v-496 q0 -96 20 -311zM598 209v276q-55 -2 -96 -5t-91.5 -15t-82 -31.5t-54 -56.5t-22.5 -86q0 -84 39 -134.5t106 -50.5q66 1 201 103zM643 1554l127 -12q-14 -137 -92 -211t-205 -74q-121 0 -194.5 74t-85.5 211l124 12q18 -92 55.5 -138t106.5 -46q131 0 164 184z" />
<glyph unicode="&#x104;" horiz-adv-x="1064" d="M1069 -332l35 -102q-92 -51 -182 -51q-203 0 -203 206q0 166 160 283l-127 436h-459l-125 -440h-176l432 1513h199l448 -1507l12 -6q-102 -51 -161.5 -125t-59.5 -137q0 -106 88 -107q51 0 119 37zM518 1354l-188 -772h383z" />
<glyph unicode="&#x105;" horiz-adv-x="933" d="M778 -332l35 -102q-92 -51 -182 -51q-203 0 -203 206q0 88 53.5 171t155.5 145l-12 69q-4 -2 -36 -25.5t-43 -30.5t-43 -25.5t-52.5 -25.5t-52 -14.5t-62.5 -7.5q-119 0 -182.5 84t-63.5 211q0 117 70.5 190t177 100.5t258.5 31.5v209q0 106 -37 149t-113 43 q-109 0 -266 -77l-39 133q209 80 330 79q160 0 228.5 -82.5t68.5 -240.5v-496q0 -94 20 -309l5 -2q-102 -51 -162 -125t-60 -137q0 -106 88 -107q51 0 119 37zM598 209v276q-55 -2 -96 -5t-91.5 -15t-82 -31.5t-54 -56.5t-22.5 -86q0 -84 39 -134.5t106 -50.5q66 1 201 103z " />
<glyph unicode="&#x106;" d="M913 182l21 -149q-137 -57 -293 -58q-555 0 -555 770q0 795 567 795q141 0 279 -49l-31 -148q-27 14 -100.5 32t-145.5 18q-385 0 -385 -627q0 -643 375 -643q135 0 268 59zM504 1696l188 329l139 -79l-225 -301z" />
<glyph unicode="&#x107;" horiz-adv-x="827" d="M739 176l37 -135q-115 -61 -272 -61q-195 0 -296.5 144t-101.5 423q0 289 109 433t311 144q145 0 246 -49l-37 -145q-94 55 -200 55q-248 0 -248 -418q0 -215 65.5 -330.5t184.5 -115.5q93 0 202 55zM436 1294l191 332l137 -78l-225 -305z" />
<glyph unicode="&#x108;" d="M913 182l21 -149q-137 -57 -293 -58q-555 0 -555 770q0 795 567 795q141 0 279 -49l-31 -148q-27 14 -100.5 32t-145.5 18q-385 0 -385 -627q0 -643 375 -643q135 0 268 59zM621 1970l286 -248l-82 -82l-202 164l-199 -164l-84 72z" />
<glyph unicode="&#x109;" horiz-adv-x="827" d="M739 176l37 -135q-115 -61 -272 -61q-195 0 -296.5 144t-101.5 423q0 289 109 433t311 144q145 0 246 -49l-37 -145q-94 55 -200 55q-248 0 -248 -418q0 -215 65.5 -330.5t184.5 -115.5q93 0 202 55zM532 1571l285 -248l-82 -82l-203 164l-198 -164l-84 70z" />
<glyph unicode="&#x10a;" d="M913 182l21 -149q-137 -57 -293 -58q-555 0 -555 770q0 795 567 795q141 0 279 -49l-31 -148q-27 14 -100.5 32t-145.5 18q-385 0 -385 -627q0 -643 375 -643q135 0 268 59zM731 1870q0 -51 -32.5 -84t-80.5 -33q-49 0 -79.5 33t-30.5 84t31.5 85t79 34t80 -34t32.5 -85z " />
<glyph unicode="&#x10b;" horiz-adv-x="827" d="M739 176l37 -135q-115 -61 -272 -61q-195 0 -296.5 144t-101.5 423q0 289 109 433t311 144q145 0 246 -49l-37 -145q-94 55 -200 55q-248 0 -248 -418q0 -215 65.5 -330.5t184.5 -115.5q93 0 202 55zM643 1460q0 -51 -32.5 -84t-80.5 -33q-49 0 -79.5 33t-30.5 84 t31.5 85t79 34t80 -34t32.5 -85z" />
<glyph unicode="&#x10c;" d="M913 182l21 -149q-137 -57 -293 -58q-555 0 -555 770q0 795 567 795q141 0 279 -49l-31 -148q-27 14 -100.5 32t-145.5 18q-385 0 -385 -627q0 -643 375 -643q135 0 268 59zM621 1765l196 162l80 -74l-211 -206h-131l-217 202l80 78z" />
<glyph unicode="&#x10d;" horiz-adv-x="827" d="M739 176l37 -135q-115 -61 -272 -61q-195 0 -296.5 144t-101.5 423q0 289 109 433t311 144q145 0 246 -49l-37 -145q-94 55 -200 55q-248 0 -248 -418q0 -215 65.5 -330.5t184.5 -115.5q93 0 202 55zM526 1393l197 163l80 -73l-211 -207h-131l-217 203l78 77z" />
<glyph unicode="&#x10e;" horiz-adv-x="1245" d="M1153 768q0 -131 -16.5 -238.5t-58.5 -209t-109.5 -170t-177 -109.5t-254.5 -41h-349v1513h357q608 0 608 -745zM971 760q0 137 -19.5 239.5t-66.5 189.5t-138.5 133t-222.5 46h-162v-1223h185q104 0 181 33t123 86t73.5 135t37 166t9.5 195zM567 1765l197 162l80 -74 l-211 -206h-131l-217 202l80 78z" />
<glyph unicode="&#x10f;" horiz-adv-x="1052" d="M887 1663v-1624q-193 -68 -363 -68q-412 0 -411 574q0 260 103 425t325 165q82 0 172 -27v555h174zM713 145v801q-72 43 -174 43q-246 0 -246 -438q0 -436 239 -436q97 -1 181 30zM1100 1260l-92 75q84 96 84 193q0 35 -21.5 70.5t-21.5 70.5q0 33 24.5 56.5t61.5 23.5 q49 0 78.5 -47t29.5 -123q0 -155 -143 -319z" />
<glyph unicode="&#x110;" horiz-adv-x="1245" d="M1153 768q0 -131 -16.5 -238.5t-58.5 -209t-109.5 -170t-177 -109.5t-254.5 -41h-349v1513h357q608 0 608 -745zM971 760q0 137 -19.5 239.5t-66.5 189.5t-138.5 133t-222.5 46h-162v-1223h185q104 0 181 33t123 86t73.5 135t37 166t9.5 195zM844 1704h-559v123h559v-123 z" />
<glyph unicode="&#x111;" horiz-adv-x="1015" d="M887 1663v-244h125v-123h-125v-1257q-193 -68 -363 -68q-412 0 -411 574q0 260 103 425t325 165q82 0 172 -27v188h-318v123h318v244h174zM713 145v801q-72 43 -174 43q-246 0 -246 -438q0 -436 239 -436q97 -1 181 30z" />
<glyph unicode="&#x112;" horiz-adv-x="1019" d="M958 0h-770v1513h734v-145h-560v-508h504v-143h-504v-572h596v-145zM834 1704h-560v123h560v-123z" />
<glyph unicode="&#x113;" d="M852 551h-584q2 -229 62.5 -333.5t201.5 -104.5q111 0 265 80l41 -134q-168 -86 -320 -86q-217 0 -312 148.5t-95 421.5q0 588 399 587q350 0 350 -464q0 -68 -8 -115zM502 1006q-207 0 -232 -340h426q2 170 -40.5 255t-153.5 85zM791 1294h-560v123h560v-123z" />
<glyph unicode="&#x114;" horiz-adv-x="1019" d="M958 0h-770v1513h734v-145h-560v-508h504v-143h-504v-572h596v-145zM731 1952l111 -13q-16 -139 -91 -218t-196 -79t-196.5 79t-88.5 218l111 13q43 -188 174 -189q135 1 176 189z" />
<glyph unicode="&#x115;" d="M852 551h-584q2 -229 62.5 -333.5t201.5 -104.5q111 0 265 80l41 -134q-168 -86 -320 -86q-217 0 -312 148.5t-95 421.5q0 588 399 587q350 0 350 -464q0 -68 -8 -115zM502 1006q-207 0 -232 -340h426q2 170 -40.5 255t-153.5 85zM678 1554l127 -12q-14 -137 -92 -211 t-205 -74q-121 0 -194.5 74t-86.5 211l125 12q18 -92 55 -138t107 -46q131 0 164 184z" />
<glyph unicode="&#x116;" horiz-adv-x="1019" d="M958 0h-770v1513h734v-145h-560v-508h504v-143h-504v-572h596v-145zM666 1870q0 -51 -33 -84t-80 -33q-49 0 -80 33t-31 84t32 85t79 34t80 -34t33 -85z" />
<glyph unicode="&#x117;" d="M852 551h-584q2 -229 62.5 -333.5t201.5 -104.5q111 0 265 80l41 -134q-168 -86 -320 -86q-217 0 -312 148.5t-95 421.5q0 588 399 587q350 0 350 -464q0 -68 -8 -115zM502 1006q-207 0 -232 -340h426q2 170 -40.5 255t-153.5 85zM625 1460q0 -51 -33 -84t-80 -33 q-49 0 -80 33t-31 84t32 85t79 34t80 -34t33 -85z" />
<glyph unicode="&#x118;" horiz-adv-x="1019" d="M942 -332l35 -102q-92 -51 -182 -51q-203 0 -203 206q0 162 153 279h-557v1513h734v-145h-560v-508h504v-143h-504v-572h596v-145h-2q-102 -51 -161.5 -125t-59.5 -137q0 -106 88 -107q51 0 119 37z" />
<glyph unicode="&#x119;" d="M829 -260l35 -102q-92 -51 -182 -52q-203 0 -203 207q0 96 60 180h-21q-217 0 -312 148.5t-95 421.5q0 588 399 587q350 0 350 -464q0 -68 -8 -115h-584q2 -229 62.5 -333.5t201.5 -104.5q111 0 265 80l34 -117l13 -4l-8 -4l2 -9q-10 -6 -66 -30q-70 -47 -109.5 -107.5 t-39.5 -111.5q0 -106 88 -107q50 0 118 37zM502 1006q-207 0 -232 -340h426q2 170 -40.5 255t-153.5 85z" />
<glyph unicode="&#x11a;" horiz-adv-x="1019" d="M958 0h-770v1513h734v-145h-560v-508h504v-143h-504v-572h596v-145zM555 1765l197 162l79 -74l-210 -206h-132l-217 202l80 78z" />
<glyph unicode="&#x11b;" d="M852 551h-584q2 -229 62.5 -333.5t201.5 -104.5q111 0 265 80l41 -134q-168 -86 -320 -86q-217 0 -312 148.5t-95 421.5q0 588 399 587q350 0 350 -464q0 -68 -8 -115zM502 1006q-207 0 -232 -340h426q2 170 -40.5 255t-153.5 85zM508 1393l197 163l79 -73l-211 -207 h-131l-217 203l78 77z" />
<glyph unicode="&#x11c;" horiz-adv-x="1212" d="M1090 686v-604q-186 -109 -420 -109q-152 0 -262.5 55.5t-176 159t-96.5 237.5t-31 304q0 377 149.5 594t453.5 217q168 0 358 -67l-39 -146q-158 66 -324 66q-414 0 -413 -645q0 -627 391 -627q123 0 242 55v510h168zM700 1970l287 -248l-82 -82l-203 164l-198 -164 l-84 72z" />
<glyph unicode="&#x11d;" horiz-adv-x="929" d="M461 1135q86 0 153 -31q72 109 130.5 172t121.5 80l54 -135q-123 -33 -211 -187q90 -104 90 -286q0 -193 -93.5 -285t-246.5 -92q-51 0 -90 8q-25 -43 -25 -94q0 -61 55.5 -101.5t133 -66t156.5 -58t134.5 -105.5t55.5 -183q0 -76 -26 -134.5t-65.5 -94.5t-96 -59.5 t-113 -31.5t-117.5 -8q-180 0 -285.5 74.5t-105.5 224.5q0 41 10 80t19.5 65.5t36 64.5t36.5 50t46 52t40 46q-55 61 -55 156q0 78 59 166q-135 92 -135 326q0 197 91 292t243 95zM715 -246q0 53 -21.5 93t-64.5 67t-84 43l-100.5 37.5t-94.5 40.5q-72 -88 -102.5 -142.5 t-30.5 -119.5q0 -102 66.5 -154.5t177.5 -52.5q109 0 181.5 45t72.5 143zM647 748q0 260 -188 260q-182 0 -183 -258q0 -254 187 -254q184 0 184 252zM453 1569l284 -248l-82 -82l-202 164l-199 -164l-84 70z" />
<glyph unicode="&#x11e;" horiz-adv-x="1212" d="M1090 686v-604q-186 -109 -420 -109q-152 0 -262.5 55.5t-176 159t-96.5 237.5t-31 304q0 377 149.5 594t453.5 217q168 0 358 -67l-39 -146q-158 66 -324 66q-414 0 -413 -645q0 -627 391 -627q123 0 242 55v510h168zM877 1952l110 -13q-16 -139 -91 -218t-195.5 -79 t-196.5 79t-88 218l110 13q43 -188 174 -189q136 1 177 189z" />
<glyph unicode="&#x11f;" horiz-adv-x="929" d="M461 1135q86 0 153 -31q72 109 130.5 172t121.5 80l54 -135q-123 -33 -211 -187q90 -104 90 -286q0 -193 -93.5 -285t-246.5 -92q-51 0 -90 8q-25 -43 -25 -94q0 -61 55.5 -101.5t133 -66t156.5 -58t134.5 -105.5t55.5 -183q0 -76 -26 -134.5t-65.5 -94.5t-96 -59.5 t-113 -31.5t-117.5 -8q-180 0 -285.5 74.5t-105.5 224.5q0 41 10 80t19.5 65.5t36 64.5t36.5 50t46 52t40 46q-55 61 -55 156q0 78 59 166q-135 92 -135 326q0 197 91 292t243 95zM715 -246q0 53 -21.5 93t-64.5 67t-84 43l-100.5 37.5t-94.5 40.5q-72 -88 -102.5 -142.5 t-30.5 -119.5q0 -102 66.5 -154.5t177.5 -52.5q109 0 181.5 45t72.5 143zM647 748q0 260 -188 260q-182 0 -183 -258q0 -254 187 -254q184 0 184 252zM618 1552l127 -12q-14 -137 -92 -211t-204 -74q-121 0 -195 74t-86 211l125 12q18 -92 55 -138t107 -46q130 0 163 184z " />
<glyph unicode="&#x120;" horiz-adv-x="1212" d="M1090 686v-604q-186 -109 -420 -109q-152 0 -262.5 55.5t-176 159t-96.5 237.5t-31 304q0 377 149.5 594t453.5 217q168 0 358 -67l-39 -146q-158 66 -324 66q-414 0 -413 -645q0 -627 391 -627q123 0 242 55v510h168zM811 1870q0 -51 -33 -84t-80 -33q-49 0 -79.5 33 t-30.5 84t31.5 85t78.5 34t80 -34t33 -85z" />
<glyph unicode="&#x121;" horiz-adv-x="929" d="M461 1135q86 0 153 -31q72 109 130.5 172t121.5 80l54 -135q-123 -33 -211 -187q90 -104 90 -286q0 -193 -93.5 -285t-246.5 -92q-51 0 -90 8q-25 -43 -25 -94q0 -61 55.5 -101.5t133 -66t156.5 -58t134.5 -105.5t55.5 -183q0 -76 -26 -134.5t-65.5 -94.5t-96 -59.5 t-113 -31.5t-117.5 -8q-180 0 -285.5 74.5t-105.5 224.5q0 41 10 80t19.5 65.5t36 64.5t36.5 50t46 52t40 46q-55 61 -55 156q0 78 59 166q-135 92 -135 326q0 197 91 292t243 95zM715 -246q0 53 -21.5 93t-64.5 67t-84 43l-100.5 37.5t-94.5 40.5q-72 -88 -102.5 -142.5 t-30.5 -119.5q0 -102 66.5 -154.5t177.5 -52.5q109 0 181.5 45t72.5 143zM647 748q0 260 -188 260q-182 0 -183 -258q0 -254 187 -254q184 0 184 252zM565 1458q0 -51 -32.5 -84t-79.5 -33q-49 0 -80 33t-31 84t32 85t79 34t79.5 -34t32.5 -85z" />
<glyph unicode="&#x122;" horiz-adv-x="1212" d="M678 -645l-92 76q84 96 84 192q0 35 -21.5 71t-21.5 70q0 33 24.5 56.5t61.5 23.5q49 0 78.5 -47t29.5 -123q0 -155 -143 -319zM1090 686v-604q-186 -109 -420 -109q-152 0 -262.5 55.5t-176 159t-96.5 237.5t-31 304q0 377 149.5 594t453.5 217q168 0 358 -67l-39 -146 q-158 66 -324 66q-414 0 -413 -645q0 -627 391 -627q123 0 242 55v510h168z" />
<glyph unicode="&#x123;" horiz-adv-x="929" d="M461 1135q86 0 153 -31q72 109 130.5 172t121.5 80l54 -135q-123 -33 -211 -187q90 -104 90 -286q0 -193 -93.5 -285t-246.5 -92q-51 0 -90 8q-25 -43 -25 -94q0 -61 55.5 -101.5t133 -66t156.5 -58t134.5 -105.5t55.5 -183q0 -76 -26 -134.5t-65.5 -94.5t-96 -59.5 t-113 -31.5t-117.5 -8q-180 0 -285.5 74.5t-105.5 224.5q0 41 10 80t19.5 65.5t36 64.5t36.5 50t46 52t40 46q-55 61 -55 156q0 78 59 166q-135 92 -135 326q0 197 91 292t243 95zM715 -246q0 53 -21.5 93t-64.5 67t-84 43l-100.5 37.5t-94.5 40.5q-72 -88 -102.5 -142.5 t-30.5 -119.5q0 -102 66.5 -154.5t177.5 -52.5q109 0 181.5 45t72.5 143zM647 748q0 260 -188 260q-182 0 -183 -258q0 -254 187 -254q184 0 184 252zM492 1778l92 -76q-84 -96 -84 -193q0 -35 21.5 -70.5t21.5 -70.5q0 -33 -24.5 -56.5t-61.5 -23.5q-49 0 -79 47t-30 123 q1 156 144 320z" />
<glyph unicode="&#x124;" horiz-adv-x="1323" d="M1135 0h-177v723h-591v-723h-177v1513h177v-645h591v645h177v-1513zM670 1970l286 -248l-82 -82l-202 164l-199 -164l-84 72z" />
<glyph unicode="&#x125;" horiz-adv-x="1089" d="M926 0h-174v754q0 223 -140 223q-115 0 -272 -143v-834h-174v1665h174l-6 -684q184 150 342 149q250 0 250 -348v-782zM264 2130l285 -248l-82 -82l-203 164l-198 -164l-84 70z" />
<glyph unicode="&#x126;" horiz-adv-x="1323" d="M1133 0h-177v723h-591v-723h-177v1128h-120v123h120v262h177v-262h591v262h177v-262h133v-123h-133v-1128zM365 868h591v260h-591v-260z" />
<glyph unicode="&#x127;" horiz-adv-x="1052" d="M926 0h-174v754q0 223 -140 223q-115 0 -272 -143v-834h-174v1311h-172v123h172v231h174l-2 -231h272v-123h-274l-2 -330q184 150 342 149q250 0 250 -348v-782z" />
<glyph unicode="&#x128;" horiz-adv-x="552" d="M362 0h-172v1513h172v-1513zM516 1837l68 -80q-92 -102 -195 -102q-53 0 -113.5 30.5t-95.5 30.5q-49 0 -127 -61l-65 84q106 100 198 100q51 0 111.5 -29.5t97.5 -29.5q49 0 121 57z" />
<glyph unicode="&#x129;" horiz-adv-x="495" d="M336 0h-176v1104h176v-1104zM467 1470l70 -77q-90 -111 -195 -111q-59 0 -116.5 32t-90.5 32q-10 0 -19.5 -1.5t-19.5 -6.5t-16 -7t-19.5 -11t-16.5 -12t-19.5 -15.5t-20.5 -14.5l-63 84q100 106 196 106q55 0 113.5 -30.5t91.5 -30.5q53 0 125 63z" />
<glyph unicode="&#x12a;" horiz-adv-x="552" d="M362 0h-172v1513h172v-1513zM557 1704h-559v123h559v-123z" />
<glyph unicode="&#x12b;" horiz-adv-x="495" d="M336 0h-176v1104h176v-1104zM528 1294h-559v123h559v-123z" />
<glyph unicode="&#x12c;" horiz-adv-x="552" d="M362 0h-172v1513h172v-1513zM455 1952l110 -13q-16 -139 -91 -218t-195.5 -79t-196.5 79t-88 218l110 13q43 -188 175 -189q135 1 176 189z" />
<glyph unicode="&#x12d;" horiz-adv-x="495" d="M336 0h-176v1104h176v-1104zM414 1554l127 -12q-14 -137 -92 -211t-205 -74q-121 0 -195 74t-86 211l125 12q18 -92 55 -138t107 -46q131 0 164 184z" />
<glyph unicode="&#x12e;" horiz-adv-x="552" d="M348 -332l35 -102q-92 -51 -182 -51q-203 0 -203 206q0 182 192 306v1486h172v-1513q-102 -51 -161.5 -125t-59.5 -137q0 -106 88 -107q51 0 119 37z" />
<glyph unicode="&#x12f;" horiz-adv-x="495" d="M322 -332l34 -102q-92 -51 -182 -51q-203 0 -203 206q0 180 189 304v1079h176v-1104q-102 -51 -161.5 -125t-59.5 -137q0 -106 88 -107q51 0 119 37zM360 1460q0 -51 -32.5 -84t-79.5 -33q-49 0 -80 33t-31 84t32 85t79 34t79.5 -34t32.5 -85z" />
<glyph unicode="&#x130;" horiz-adv-x="552" d="M362 0h-172v1513h172v-1513zM391 1870q0 -51 -32.5 -84t-79.5 -33q-49 0 -80 33t-31 84t31.5 85t79 34t80 -34t32.5 -85z" />
<glyph unicode="&#x131;" horiz-adv-x="495" d="M336 0h-176v1104h176v-1104z" />
<glyph unicode="&#x132;" horiz-adv-x="1089" d="M901 1513v-1255q0 -102 -11 -183t-30.5 -140.5t-53.5 -106.5t-67.5 -78t-88 -57.5t-100.5 -43t-116 -36.5l-26 149q88 31 139 59.5t97 83t64.5 141.5t18.5 218v1249h174zM362 0h-172v1513h172v-1513z" />
<glyph unicode="&#x133;" horiz-adv-x="991" d="M336 0h-176v1104h176v-1104zM360 1460q0 -51 -32.5 -84t-79.5 -33q-49 0 -80 33t-31 84t32 85t79 34t79.5 -34t32.5 -85zM657 1104h174v-1073q0 -240 -79.5 -347.5t-311.5 -158.5l-32 141q94 25 144 56.5t77.5 103.5t27.5 194v1084zM858 1460q0 -51 -32.5 -84t-80.5 -33 q-49 0 -79.5 33t-30.5 84t31.5 85t79 34t80 -34t32.5 -85z" />
<glyph unicode="&#x134;" horiz-adv-x="657" d="M485 1513v-925q0 -141 -22.5 -244.5t-57 -167t-99 -111t-124 -71t-157.5 -51.5l-33 149q70 23 114 44.5t88 58t66.5 88t36.5 128t14 183.5v919h174zM401 1970l287 -248l-82 -82l-203 164l-198 -164l-84 72z" />
<glyph unicode="&#x135;" horiz-adv-x="495" d="M162 1104h174v-1073q0 -240 -80 -347.5t-311 -158.5l-33 141q94 25 144 56.5t78 103.5t28 194v1084zM252 1571l285 -248l-82 -82l-203 164l-199 -164l-84 70z" />
<glyph unicode="&#x136;" horiz-adv-x="1105" d="M1083 1513l-446 -639l498 -874h-226l-381 735l-163 -237v-498h-177v1513h177v-772l491 772h227zM539 -645l-93 76q84 96 84 192q0 35 -21.5 71t-21.5 70q0 33 25 56.5t61 23.5q49 0 79 -47t30 -123q0 -155 -143 -319z" />
<glyph unicode="&#x137;" horiz-adv-x="942" d="M909 1104l-354 -471l385 -633h-213l-276 494l-117 -158v-336h-168v1663h174v-825l-6 -281l364 547h211zM430 -645l-92 76q84 96 84 192q0 35 -21.5 71t-21.5 70q0 33 24.5 56.5t61.5 23.5q49 0 78.5 -47t29.5 -123q0 -155 -143 -319z" />
<glyph unicode="&#x138;" horiz-adv-x="839" d="M156 1104h161v-504l67 119q48 86 67 115l59 91q41 62 67.5 85.5t69.5 57.5t88 46t101 16l12 -147q-115 -10 -185.5 -83t-166.5 -241l370 -659h-188l-268 510q-29 -51 -93 -154v-356h-161v1104z" />
<glyph unicode="&#x139;" horiz-adv-x="937" d="M928 0h-740v1513h174v-1361h566v-152zM158 1696l188 329l139 -79l-225 -301z" />
<glyph unicode="&#x13a;" horiz-adv-x="516" d="M344 0h-176v1663h176v-1663zM143 1845l189 330l139 -80l-225 -301z" />
<glyph unicode="&#x13b;" horiz-adv-x="937" d="M526 -645l-92 76q84 96 84 192q0 35 -21.5 71t-21.5 70q0 33 24.5 56.5t61.5 23.5q49 0 79 -47t30 -123q-1 -155 -144 -319zM928 0h-740v1513h174v-1361h566v-152z" />
<glyph unicode="&#x13c;" horiz-adv-x="516" d="M236 -645l-93 76q84 96 84 192q0 35 -21.5 71t-21.5 70q0 33 24.5 56.5t61.5 23.5q49 0 79 -47t30 -123q0 -155 -143 -319zM344 0h-176v1663h176v-1663z" />
<glyph unicode="&#x13d;" horiz-adv-x="937" d="M928 0h-740v1513h174v-1361h566v-152zM629 1049l-92 75q86 100 86 193q0 35 -21.5 70.5t-21.5 70.5q0 33 23.5 56.5t60.5 23.5q49 0 78.5 -47t29.5 -123q0 -151 -143 -319z" />
<glyph unicode="&#x13e;" horiz-adv-x="516" d="M236 -645l-93 76q84 96 84 192q0 35 -21.5 71t-21.5 70q0 33 24.5 56.5t61.5 23.5q49 0 79 -47t30 -123q0 -155 -143 -319zM344 0h-176v1663h176v-1663z" />
<glyph unicode="&#x13f;" horiz-adv-x="937" d="M928 0h-740v1513h174v-1361h566v-152zM872 723q0 -51 -33.5 -86t-80.5 -35q-51 0 -85 35t-34 86t35 86t84 35q47 0 80.5 -35t33.5 -86z" />
<glyph unicode="&#x140;" horiz-adv-x="516" d="M344 0h-176v1663h176v-1663zM713 710.5q0 -51.5 -34 -86t-81 -34.5q-51 0 -85 34.5t-34 86t35 86t84 34.5q47 0 81 -34.5t34 -86z" />
<glyph unicode="&#x141;" horiz-adv-x="937" d="M928 0h-740v573l-114 -104l-39 127l153 135v782h174v-669l3 2l256 235l32 -133l-288 -262l-3 -2v-532h566v-152z" />
<glyph unicode="&#x142;" horiz-adv-x="514" d="M356 0h-176v666l-131 -109l-51 125l182 154v827h176v-694l121 100l49 -125l-170 -143v-801z" />
<glyph unicode="&#x143;" horiz-adv-x="1363" d="M1176 0h-129l-691 1159v-1159h-168v1513h136l686 -1142v1142h166v-1513zM578 1696l188 329l139 -79l-225 -301z" />
<glyph unicode="&#x144;" horiz-adv-x="1089" d="M924 0h-174v778q0 111 -32 155t-102 44q-119 0 -276 -146v-831h-174v1104h156l12 -127q98 78 178 115.5t172 37.5q117 0 178.5 -71.5t61.5 -247.5v-811zM469 1294l190 332l138 -78l-226 -305z" />
<glyph unicode="&#x145;" horiz-adv-x="1363" d="M670 -645l-92 76q84 96 84 192q0 35 -22 71t-22 70q0 33 25 56.5t62 23.5q49 0 78.5 -47t29.5 -123q0 -155 -143 -319zM1176 0h-129l-691 1159v-1159h-168v1513h136l686 -1142v1142h166v-1513z" />
<glyph unicode="&#x146;" horiz-adv-x="1089" d="M924 0h-174v778q0 111 -32 155t-102 44q-119 0 -276 -146v-831h-174v1104h156l12 -127q98 78 178 115.5t172 37.5q117 0 178.5 -71.5t61.5 -247.5v-811zM543 -645l-92 76q84 96 84 192q0 35 -21.5 71t-21.5 70q0 33 24.5 56.5t61.5 23.5q49 0 78.5 -47t29.5 -123 q0 -155 -143 -319z" />
<glyph unicode="&#x147;" horiz-adv-x="1363" d="M1176 0h-129l-691 1159v-1159h-168v1513h136l686 -1142v1142h166v-1513zM694 1765l197 162l80 -74l-211 -206h-131l-217 202l80 78z" />
<glyph unicode="&#x148;" horiz-adv-x="1089" d="M924 0h-174v778q0 111 -32 155t-102 44q-119 0 -276 -146v-831h-174v1104h156l12 -127q98 78 178 115.5t172 37.5q117 0 178.5 -71.5t61.5 -247.5v-811zM559 1393l197 163l80 -73l-211 -207h-131l-218 203l78 77z" />
<glyph unicode="&#x149;" horiz-adv-x="1089" d="M924 0h-174v778q0 111 -32 155t-102 44q-119 0 -276 -146v-831h-174v1104h156l12 -127q98 78 178 115.5t172 37.5q117 0 178.5 -71.5t61.5 -247.5v-811zM543 -645l-92 76q84 96 84 192q0 35 -21.5 71t-21.5 70q0 33 24.5 56.5t61.5 23.5q49 0 78.5 -47t29.5 -123 q0 -155 -143 -319z" />
<glyph unicode="&#x14a;" horiz-adv-x="1376" d="M727 -266q135 27 211 91t78 187v37l-660 1110v-1159h-168v1513h136l686 -1142v1142h166v-1501l14 -12q0 -98 -33 -173t-95.5 -121t-134 -72.5t-165.5 -41.5z" />
<glyph unicode="&#x14b;" horiz-adv-x="1052" d="M909 31q0 -236 -80.5 -347.5t-310.5 -162.5l-35 145q141 37 196.5 105.5t55.5 248.5v734q0 117 -32.5 170t-106.5 53q-115 0 -270 -146v-831h-174v1104h155l6 -131q201 158 349 157q248 0 247 -348v-751z" />
<glyph unicode="&#x14c;" horiz-adv-x="1277" d="M1188 786q0 -813 -565 -813q-532 0 -533 754q0 162 27.5 299t90 257t176.5 188.5t269 68.5q150 0 257.5 -61.5t166 -171t85 -238.5t26.5 -283zM1004 778q0 616 -361 617q-371 0 -371 -660q0 -616 359 -616q373 0 373 659zM928 1704h-559v123h559v-123z" />
<glyph unicode="&#x14d;" horiz-adv-x="1050" d="M106 541q0 268 104.5 428.5t324.5 160.5q403 0 403 -563q0 -274 -103.5 -434t-318.5 -160q-209 0 -309.5 154t-100.5 414zM285 549q0 -434 235 -434q240 0 240 448q0 428 -234 428q-241 0 -241 -442zM813 1294h-559v123h559v-123z" />
<glyph unicode="&#x14e;" horiz-adv-x="1277" d="M1188 786q0 -813 -565 -813q-532 0 -533 754q0 162 27.5 299t90 257t176.5 188.5t269 68.5q150 0 257.5 -61.5t166 -171t85 -238.5t26.5 -283zM1004 778q0 616 -361 617q-371 0 -371 -660q0 -616 359 -616q373 0 373 659zM825 1952l111 -13q-16 -139 -91 -218t-196 -79 t-196.5 79t-87.5 218l110 13q43 -188 174 -189q135 1 176 189z" />
<glyph unicode="&#x14f;" horiz-adv-x="1050" d="M106 541q0 268 104.5 428.5t324.5 160.5q403 0 403 -563q0 -274 -103.5 -434t-318.5 -160q-209 0 -309.5 154t-100.5 414zM285 549q0 -434 235 -434q240 0 240 448q0 428 -234 428q-241 0 -241 -442zM698 1554l127 -12q-14 -137 -92 -211t-205 -74q-121 0 -194.5 74 t-85.5 211l125 12q18 -92 55 -138t107 -46q130 0 163 184z" />
<glyph unicode="&#x150;" horiz-adv-x="1277" d="M1188 786q0 -813 -565 -813q-532 0 -533 754q0 162 27.5 299t90 257t176.5 188.5t269 68.5q150 0 257.5 -61.5t166 -171t85 -238.5t26.5 -283zM1004 778q0 616 -361 617q-371 0 -371 -660q0 -616 359 -616q373 0 373 659zM1116 1966l-237 -307l-117 16l151 291h203z M741 1966l-233 -307l-117 16l150 291h200z" />
<glyph unicode="&#x151;" horiz-adv-x="1050" d="M106 541q0 268 104.5 428.5t324.5 160.5q403 0 403 -563q0 -274 -103.5 -434t-318.5 -160q-209 0 -309.5 154t-100.5 414zM285 549q0 -434 235 -434q240 0 240 448q0 428 -234 428q-241 0 -241 -442zM1001 1556l-237 -307l-117 17l152 290h202zM627 1556l-234 -307 l-117 17l150 290h201z" />
<glyph unicode="&#x152;" horiz-adv-x="1699" d="M1640 0h-655q-39 0 -143.5 -10t-155.5 -10q-121 0 -219 39.5t-160.5 107.5t-106.5 147.5t-67.5 172t-33 166t-9.5 143.5q0 94 13.5 189t53.5 205t103.5 191.5t174 137t251.5 55.5q41 0 134 -10.5t149 -10.5h633v-145h-566v-491h490v-144h-490v-588h604v-145zM864 145 v1221q-74 20 -178 20q-98 0 -175 -46t-120 -114.5t-70.5 -158.5t-37 -165t-9.5 -146.5t7.5 -142t33 -164t67.5 -161t121 -115.5t183 -48q55 0 178 20z" />
<glyph unicode="&#x153;" horiz-adv-x="1454" d="M1374 643q0 -37 -10 -98h-526q23 -436 231 -436q109 0 240 96l47 -135q-143 -98 -305 -99q-205 0 -287 252q-92 -252 -291 -252q-115 0 -197.5 59.5t-121.5 156t-55.5 186.5t-16.5 184q0 66 9 133.5t36 150.5t68 145.5t115.5 105.5t168.5 43q201 0 285 -244 q92 244 274 244q170 0 252 -138.5t84 -353.5zM264 565q0 -70 7.5 -135t27.5 -142t66.5 -124t111.5 -47q197 0 197 438q0 434 -199 434q-66 0 -111 -44t-65 -116.5t-27.5 -134t-7.5 -129.5zM1030 1006q-88 0 -134 -96.5t-56 -250.5h370q4 347 -180 347z" />
<glyph unicode="&#x154;" horiz-adv-x="1085" d="M188 1513h301q252 0 372 -99t120 -314q0 -311 -248 -416l293 -684h-209l-244 639q-88 -14 -211 -10v-629h-174v1513zM362 1366v-596q94 -4 166 7t136.5 44t99.5 101.5t35 169.5q0 150 -76 215t-236 61zM412 1696l188 329l139 -79l-225 -301z" />
<glyph unicode="&#x155;" horiz-adv-x="778" d="M715 1124l-10 -159q-109 10 -196 -55.5t-171 -245.5v-664h-172v1104h172v-227q82 139 163 199t214 48zM266 1294l191 332l137 -78l-225 -305z" />
<glyph unicode="&#x156;" horiz-adv-x="1085" d="M188 1513h301q252 0 372 -99t120 -314q0 -311 -248 -416l293 -684h-209l-244 639q-88 -14 -211 -10v-629h-174v1513zM362 1366v-596q94 -4 166 7t136.5 44t99.5 101.5t35 169.5q0 150 -76 215t-236 61zM539 -645l-93 76q84 96 84 192q0 35 -21.5 71t-21.5 70 q0 33 25 56.5t61 23.5q49 0 79 -47t30 -123q0 -155 -143 -319z" />
<glyph unicode="&#x157;" horiz-adv-x="778" d="M242 -645l-92 76q84 96 83 192q0 35 -21.5 71t-21.5 70q0 33 25 56.5t61 23.5q49 0 79 -47t30 -123q0 -155 -143 -319zM715 1124l-10 -159q-109 10 -196 -55.5t-171 -245.5v-664h-172v1104h172v-227q82 139 163 199t214 48z" />
<glyph unicode="&#x158;" horiz-adv-x="1085" d="M188 1513h301q252 0 372 -99t120 -314q0 -311 -248 -416l293 -684h-209l-244 639q-88 -14 -211 -10v-629h-174v1513zM362 1366v-596q94 -4 166 7t136.5 44t99.5 101.5t35 169.5q0 150 -76 215t-236 61zM522 1802l197 164l80 -74l-211 -206h-131l-217 202l77 78z" />
<glyph unicode="&#x159;" horiz-adv-x="778" d="M715 1124l-10 -159q-109 10 -196 -55.5t-171 -245.5v-664h-172v1104h172v-227q82 139 163 199t214 48zM354 1393l197 163l80 -73l-211 -207h-131l-217 203l78 77z" />
<glyph unicode="&#x15a;" horiz-adv-x="921" d="M805 1468l-47 -143q-121 66 -262 66q-94 0 -158 -48.5t-64 -140.5q0 -72 44 -142.5t109 -124.5l141 -122q77 -68 141.5 -131.5t108.5 -154.5t44 -191q0 -168 -116.5 -263.5t-303.5 -95.5q-223 0 -393 99l57 164q156 -115 338 -115q106 0 170 55.5t64 149.5 q0 76 -44 147.5t-109 127.5l-141 123l-141.5 128.5t-108.5 148.5t-44 183q0 166 113.5 259t281.5 93q150 0 320 -72zM356 1696l189 329l139 -79l-225 -301z" />
<glyph unicode="&#x15b;" horiz-adv-x="784" d="M422 1137q102 0 244 -47l-33 -142q-117 49 -192.5 49t-120 -38.5t-44.5 -108.5q0 -63 44.5 -114.5t107.5 -92.5l127 -86q63 -45 107.5 -118.5t44.5 -170.5q0 -147 -92.5 -222t-239.5 -75q-162 0 -299 64l43 145q123 -72 239 -71q82 0 126 42t44 113q0 66 -44 120t-107 96 l-127 87q-63 45 -107.5 115t-44.5 158q0 141 92.5 219t231.5 78zM328 1294l190 332l137 -78l-225 -305z" />
<glyph unicode="&#x15c;" horiz-adv-x="921" d="M805 1468l-47 -143q-121 66 -262 66q-94 0 -158 -48.5t-64 -140.5q0 -72 44 -142.5t109 -124.5l141 -122q77 -68 141.5 -131.5t108.5 -154.5t44 -191q0 -168 -116.5 -263.5t-303.5 -95.5q-223 0 -393 99l57 164q156 -115 338 -115q106 0 170 55.5t64 149.5 q0 76 -44 147.5t-109 127.5l-141 123l-141.5 128.5t-108.5 148.5t-44 183q0 166 113.5 259t281.5 93q150 0 320 -72zM473 1970l287 -248l-82 -82l-203 164l-199 -164l-83 72z" />
<glyph unicode="&#x15d;" horiz-adv-x="784" d="M422 1137q102 0 244 -47l-33 -142q-117 49 -192.5 49t-120 -38.5t-44.5 -108.5q0 -63 44.5 -114.5t107.5 -92.5l127 -86q63 -45 107.5 -118.5t44.5 -170.5q0 -147 -92.5 -222t-239.5 -75q-162 0 -299 64l43 145q123 -72 239 -71q82 0 126 42t44 113q0 66 -44 120t-107 96 l-127 87q-63 45 -107.5 115t-44.5 158q0 141 92.5 219t231.5 78zM422 1571l285 -248l-82 -82l-203 164l-199 -164l-84 70z" />
<glyph unicode="&#x15e;" horiz-adv-x="921" d="M805 1468l-47 -143q-121 66 -262 66q-94 0 -158 -48.5t-64 -140.5q0 -72 44 -142.5t109 -124.5l141 -122q77 -68 141.5 -131.5t108.5 -154.5t44 -191q0 -154 -98 -247t-258 -107l-17 -123q190 -39 191 -197q0 -100 -70.5 -145t-175.5 -45q-70 0 -141 20l24 94 q59 -18 107 -18q131 0 131 102q0 53 -43 79t-133 32l22 199q-203 8 -352 96l57 164q156 -115 338 -115q106 0 170 55.5t64 149.5q0 76 -44 147.5t-109 127.5l-141 123l-141.5 128.5t-108.5 148.5t-44 183q0 166 113.5 259t281.5 93q150 0 320 -72z" />
<glyph unicode="&#x15f;" horiz-adv-x="784" d="M422 1137q102 0 244 -47l-33 -142q-117 49 -192.5 49t-120 -38.5t-44.5 -108.5q0 -63 44.5 -114.5t107.5 -92.5l127 -86q63 -45 107.5 -118.5t44.5 -170.5q0 -135 -77 -208.5t-206 -86.5l-16 -114q190 -39 190 -197q0 -100 -70.5 -145t-175.5 -45q-70 0 -141 20l25 94 q59 -18 106 -18q131 0 131 102q0 53 -43 79t-133 32l22 192q-145 14 -243 62l43 145q123 -72 239 -71q82 0 126 42t44 113q0 66 -44 120t-107 96l-127 87q-63 45 -107.5 115t-44.5 158q0 141 92.5 219t231.5 78z" />
<glyph unicode="&#x160;" horiz-adv-x="921" d="M805 1468l-47 -143q-121 66 -262 66q-94 0 -158 -48.5t-64 -140.5q0 -72 44 -142.5t109 -124.5l141 -122q77 -68 141.5 -131.5t108.5 -154.5t44 -191q0 -168 -116.5 -263.5t-303.5 -95.5q-223 0 -393 99l57 164q156 -115 338 -115q106 0 170 55.5t64 149.5 q0 76 -44 147.5t-109 127.5l-141 123l-141.5 128.5t-108.5 148.5t-44 183q0 166 113.5 259t281.5 93q150 0 320 -72zM467 1802l197 164l79 -74l-211 -206h-131l-217 202l78 78z" />
<glyph unicode="&#x161;" horiz-adv-x="784" d="M422 1137q102 0 244 -47l-33 -142q-117 49 -192.5 49t-120 -38.5t-44.5 -108.5q0 -63 44.5 -114.5t107.5 -92.5l127 -86q63 -45 107.5 -118.5t44.5 -170.5q0 -147 -92.5 -222t-239.5 -75q-162 0 -299 64l43 145q123 -72 239 -71q82 0 126 42t44 113q0 66 -44 120t-107 96 l-127 87q-63 45 -107.5 115t-44.5 158q0 141 92.5 219t231.5 78zM418 1393l196 163l80 -73l-211 -207h-131l-217 203l78 77z" />
<glyph unicode="&#x162;" horiz-adv-x="921" d="M958 1366h-413v-1366h-37l-19 -141q190 -39 191 -197q0 -100 -70.5 -145t-175.5 -45q-70 0 -141 20l24 94q59 -18 107 -18q131 0 131 102q0 53 -43 79t-133 32l27 219h-35v1366h-408v147h995v-147z" />
<glyph unicode="&#x163;" horiz-adv-x="667" d="M395 -645l-92 76q84 96 84 192q0 35 -21.5 71t-21.5 70q0 33 24.5 56.5t61.5 23.5q49 0 79 -47t30 -123q-1 -155 -144 -319zM623 160l30 -144q-86 -43 -211 -43q-145 0 -202.5 71t-57.5 239v690h-127v131h127v366l174 43v-409h254v-131h-254v-668q0 -98 27 -140t92 -42 q78 0 148 37z" />
<glyph unicode="&#x164;" horiz-adv-x="921" d="M958 1366h-413v-1366h-174v1366h-408v147h995v-147zM455 1802l196 164l80 -74l-211 -206h-131l-217 202l78 78z" />
<glyph unicode="&#x165;" horiz-adv-x="667" d="M623 160l30 -144q-86 -43 -211 -43q-145 0 -202.5 71t-57.5 239v690h-127v131h127v366l174 43v-409h254v-131h-254v-668q0 -98 27 -140t92 -42q78 0 148 37zM608 1272l-92 76q86 102 86 192q0 35 -21.5 71t-21.5 70q0 33 23.5 56.5t60.5 23.5q49 0 79 -47t30 -123 q-1 -151 -144 -319z" />
<glyph unicode="&#x166;" horiz-adv-x="921" d="M958 1366h-413v-1366h-174v1366h-408v147h995v-147zM811 1833h-631v135h631v-135z" />
<glyph unicode="&#x167;" horiz-adv-x="636" d="M612 160l31 -144q-86 -43 -211 -43q-145 0 -202.5 71t-57.5 239v360h-127v123h127v207h-127v131h127v366l174 43v-409h254v-131h-254v-207h254v-123h-254v-338q0 -98 26.5 -140t92.5 -42q77 0 147 37z" />
<glyph unicode="&#x168;" horiz-adv-x="1286" d="M1108 1513v-1044q0 -221 -114.5 -358.5t-360.5 -137.5q-244 0 -349.5 135.5t-105.5 356.5v1048h176v-1011q0 -184 64.5 -278.5t226.5 -94.5t225.5 99.5t63.5 277.5v1007h174zM889 1837l67 -80q-92 -102 -194 -102q-53 0 -113.5 30.5t-95.5 30.5q-49 0 -127 -61l-66 84 q106 100 199 100q51 0 111.5 -29.5t97.5 -29.5q49 0 121 57z" />
<glyph unicode="&#x169;" horiz-adv-x="1083" d="M162 1104h174v-778q0 -111 31.5 -154t101.5 -43q123 0 276 143v832h175v-1104h-156l-12 125q-100 -78 -179 -115t-170 -37q-117 0 -179 72t-62 250v809zM758 1470l69 -77q-90 -111 -194 -111q-59 0 -116.5 32t-90.5 32q-10 0 -19.5 -1.5t-19.5 -6.5t-16 -7t-19.5 -11 t-16.5 -12t-19.5 -15.5t-20.5 -14.5l-64 84q100 106 197 106q55 0 113.5 -30.5t91.5 -30.5q53 0 125 63z" />
<glyph unicode="&#x16a;" horiz-adv-x="1286" d="M1108 1513v-1044q0 -221 -114.5 -358.5t-360.5 -137.5q-244 0 -349.5 135.5t-105.5 356.5v1048h176v-1011q0 -184 64.5 -278.5t226.5 -94.5t225.5 99.5t63.5 277.5v1007h174zM930 1704h-559v123h559v-123z" />
<glyph unicode="&#x16b;" horiz-adv-x="1083" d="M162 1104h174v-778q0 -111 31.5 -154t101.5 -43q123 0 276 143v832h175v-1104h-156l-12 125q-100 -78 -179 -115t-170 -37q-117 0 -179 72t-62 250v809zM819 1294h-559v123h559v-123z" />
<glyph unicode="&#x16c;" horiz-adv-x="1286" d="M1108 1513v-1044q0 -221 -114.5 -358.5t-360.5 -137.5q-244 0 -349.5 135.5t-105.5 356.5v1048h176v-1011q0 -184 64.5 -278.5t226.5 -94.5t225.5 99.5t63.5 277.5v1007h174zM827 1952l111 -13q-16 -139 -91 -218t-196 -79t-196.5 79t-87.5 218l110 13q43 -188 174 -189 q135 1 176 189z" />
<glyph unicode="&#x16d;" horiz-adv-x="1083" d="M162 1104h174v-778q0 -111 31.5 -154t101.5 -43q123 0 276 143v832h175v-1104h-156l-12 125q-100 -78 -179 -115t-170 -37q-117 0 -179 72t-62 250v809zM705 1554l126 -12q-14 -137 -91.5 -211t-204.5 -74q-121 0 -195 74t-86 211l125 12q18 -92 55 -138t107 -46 q131 0 164 184z" />
<glyph unicode="&#x16e;" horiz-adv-x="1286" d="M1108 1513v-1044q0 -221 -114.5 -358.5t-360.5 -137.5q-244 0 -349.5 135.5t-105.5 356.5v1048h176v-1011q0 -184 64.5 -278.5t226.5 -94.5t225.5 99.5t63.5 277.5v1007h174zM858 1857.5q0 -98.5 -59.5 -167t-151.5 -68.5q-90 0 -148.5 68.5t-58.5 167t59.5 167 t147.5 68.5q92 0 151.5 -68.5t59.5 -167zM745 1858q0 55 -26.5 93t-71.5 38t-70.5 -38t-25.5 -93.5t25.5 -92t70.5 -36.5t71.5 39t26.5 90z" />
<glyph unicode="&#x16f;" horiz-adv-x="1083" d="M162 1104h174v-778q0 -111 31.5 -154t101.5 -43q123 0 276 143v832h175v-1104h-156l-12 125q-100 -78 -179 -115t-170 -37q-117 0 -179 72t-62 250v809zM748 1448q0 -98 -59.5 -167t-151.5 -69q-90 0 -148.5 69t-58.5 167t59.5 166.5t147.5 68.5q92 0 151.5 -68.5 t59.5 -166.5zM635 1448q0 55 -26.5 93t-71.5 38t-71 -38t-26 -93t26 -92t71 -37t71.5 39t26.5 90z" />
<glyph unicode="&#x170;" horiz-adv-x="1286" d="M1108 1513v-1044q0 -221 -114.5 -358.5t-360.5 -137.5q-244 0 -349.5 135.5t-105.5 356.5v1048h176v-1011q0 -184 64.5 -278.5t226.5 -94.5t225.5 99.5t63.5 277.5v1007h174zM1118 1966l-237 -307l-117 16l151 291h203zM743 1966l-233 -307l-117 16l150 291h200z" />
<glyph unicode="&#x171;" horiz-adv-x="1083" d="M162 1104h174v-778q0 -111 31.5 -154t101.5 -43q123 0 276 143v832h175v-1104h-156l-12 125q-100 -78 -179 -115t-170 -37q-117 0 -179 72t-62 250v809zM1008 1556l-238 -307l-117 17l152 290h203zM633 1556l-234 -307l-116 17l149 290h201z" />
<glyph unicode="&#x172;" horiz-adv-x="1286" d="M838 -311l34 -103q-92 -51 -182 -51q-203 0 -203 207q0 129 103 233q-412 25 -412 490v1048h176v-1011q0 -184 64.5 -278.5t226.5 -94.5t225.5 99.5t63.5 277.5v1007h174v-1044q0 -174 -72.5 -300t-226.5 -171q-84 -53 -131 -117.5t-47 -122.5q0 -106 88 -106 q51 0 119 37z" />
<glyph unicode="&#x173;" horiz-adv-x="1083" d="M905 -332l35 -102q-92 -51 -182 -51q-203 0 -203 206q0 86 52 169t153 145l-8 90q-100 -78 -179 -115t-170 -37q-117 0 -179 72t-62 250v809h174v-778q0 -111 31.5 -154t101.5 -43q123 0 276 143v832h175v-1104q-102 -51 -162 -125t-60 -137q0 -106 88 -107q51 0 119 37z " />
<glyph unicode="&#x174;" horiz-adv-x="1562" d="M1528 1513l-256 -1513h-137l-355 1217l-356 -1217h-137l-254 1513h186l174 -1177l326 1177h139l326 -1177l176 1177h168zM788 1970l287 -248l-82 -82l-202 164l-199 -164l-84 72z" />
<glyph unicode="&#x175;" horiz-adv-x="1355" d="M1311 1104l-254 -1104h-119l-258 856l-260 -856h-119l-262 1104h178l168 -825l240 825h118l242 -823l158 823h168zM688 1571l285 -248l-82 -82l-203 164l-199 -164l-83 70z" />
<glyph unicode="&#x176;" horiz-adv-x="974" d="M1006 1513l-431 -1017v-496h-174v492l-434 1021h199l326 -837l331 837h183zM496 1970l286 -248l-82 -82l-202 164l-199 -164l-84 72z" />
<glyph unicode="&#x177;" horiz-adv-x="890" d="M885 1104l-353 -1198q-59 -203 -154 -302.5t-263 -166.5l-64 141q127 57 200 136t116 218l32 107l-65 4l-320 1061h191l252 -940l248 940h180zM463 1571l285 -248l-82 -82l-203 164l-199 -164l-84 70z" />
<glyph unicode="&#x178;" horiz-adv-x="974" d="M1006 1513l-431 -1017v-496h-174v492l-434 1021h199l326 -837l331 837h183zM397 1767.5q0 -49.5 -31.5 -80t-76.5 -30.5q-51 0 -83 30.5t-32 80t33 82t82 32.5q47 0 77.5 -32.5t30.5 -82zM811 1767.5q0 -49.5 -34 -80t-85 -30.5q-43 0 -75.5 31.5t-32.5 78.5 q0 49 31.5 82t76.5 33q51 0 85 -32.5t34 -82z" />
<glyph unicode="&#x179;" horiz-adv-x="907" d="M907 0h-884l-23 123l678 1239h-623v151h824l22 -112l-678 -1249h684v-152zM381 1696l188 329l140 -79l-226 -301z" />
<glyph unicode="&#x17a;" horiz-adv-x="792" d="M737 0h-667l-7 109l463 860h-436v135h627l12 -109l-465 -858h473v-137zM338 1294l190 332l138 -78l-226 -305z" />
<glyph unicode="&#x17b;" horiz-adv-x="907" d="M907 0h-884l-23 123l678 1239h-623v151h824l22 -112l-678 -1249h684v-152zM608 1870q0 -51 -32.5 -84t-79.5 -33q-49 0 -80 33t-31 84t32 85t79 34t79.5 -34t32.5 -85z" />
<glyph unicode="&#x17c;" horiz-adv-x="792" d="M737 0h-667l-7 109l463 860h-436v135h627l12 -109l-465 -858h473v-137zM545 1460q0 -51 -33 -84t-80 -33q-49 0 -79.5 33t-30.5 84t31.5 85t78.5 34t80 -34t33 -85z" />
<glyph unicode="&#x17d;" horiz-adv-x="907" d="M907 0h-884l-23 123l678 1239h-623v151h824l22 -112l-678 -1249h684v-152zM498 1765l196 162l80 -74l-211 -206h-131l-217 202l80 78z" />
<glyph unicode="&#x17e;" horiz-adv-x="792" d="M737 0h-667l-7 109l463 860h-436v135h627l12 -109l-465 -858h473v-137zM428 1393l197 163l80 -73l-211 -207h-132l-217 203l78 77z" />
<glyph unicode="&#x17f;" horiz-adv-x="528" d="M725 1649l-37 -131q-90 39 -176 38q-98 0 -135 -54t-37 -183v-1319h-174v1323q0 188 75.5 279.5t252.5 91.5q112 0 231 -45z" />
<glyph unicode="&#x192;" horiz-adv-x="765" d="M459 1255l-39 -303h309l-14 -133h-314l-94 -745q-39 -272 -159.5 -380t-319.5 -126l-14 135q289 27 333 379l93 737h-177l15 133h178l41 320q29 223 125 315t268 92q119 0 228 -43l-41 -131q-80 37 -177 37q-115 0 -168 -61.5t-73 -225.5z" />
<glyph unicode="&#x1a0;" horiz-adv-x="1284" d="M1188 786q0 -813 -565 -813q-532 0 -533 754q0 162 27.5 299t90 257t176.5 188.5t269 68.5q342 0 469 -330q80 47 80 230v104h141v-96q0 -289 -188 -350q33 -144 33 -312zM1004 778q0 616 -361 617q-371 0 -371 -660q0 -616 359 -616q373 0 373 659z" />
<glyph unicode="&#x1a1;" horiz-adv-x="1024" d="M100 541q0 268 104.5 428.5t323.5 160.5q299 0 377 -319q70 51 70 221v103h137v-97q0 -289 -186 -346q6 -61 6 -125q0 -274 -103.5 -434t-318.5 -160q-209 0 -309.5 154t-100.5 414zM279 549q0 -434 235 -434q240 0 240 448q0 428 -234 428q-241 0 -241 -442z" />
<glyph unicode="&#x1af;" horiz-adv-x="1286" d="M1108 1513v-315q66 23 90.5 81t24.5 165v102h137v-94q0 -174 -61.5 -259t-190.5 -101v-623q0 -221 -114.5 -358.5t-360.5 -137.5q-244 0 -349.5 135.5t-105.5 356.5v1048h176v-1011q0 -184 64.5 -278.5t226.5 -94.5t225.5 99.5t63.5 277.5v1007h174z" />
<glyph unicode="&#x1b0;" horiz-adv-x="1083" d="M162 1104h174v-778q0 -111 31.5 -154t101.5 -43q123 0 276 143v832h175v-316q61 23 86.5 81.5t25.5 162.5v103h135v-97q0 -170 -61.5 -256t-185.5 -104v-678h-156l-12 125q-100 -78 -179 -115t-170 -37q-117 0 -179 72t-62 250v809z" />
<glyph unicode="&#x1cd;" horiz-adv-x="1064" d="M881 0l-129 440h-459l-125 -440h-176l432 1513h199l450 -1513h-192zM518 1354l-188 -772h383zM522 1765l197 162l80 -74l-211 -206h-131l-217 202l79 78z" />
<glyph unicode="&#x1ce;" horiz-adv-x="933" d="M788 0h-145l-18 106q-4 -2 -36 -25.5t-43 -30.5t-43 -25.5t-52.5 -25.5t-52 -14.5t-62.5 -7.5q-119 0 -182.5 84t-63.5 211q0 117 70.5 190t177 100.5t258.5 31.5v209q0 106 -37 149t-113 43q-109 0 -266 -77l-39 133q209 80 330 79q160 0 228.5 -82.5t68.5 -240.5v-496 q0 -96 20 -311zM598 209v276q-55 -2 -96 -5t-91.5 -15t-82 -31.5t-54 -56.5t-22.5 -86q0 -84 39 -134.5t106 -50.5q66 1 201 103zM473 1393l197 163l80 -73l-211 -207h-131l-218 203l78 77z" />
<glyph unicode="&#x1cf;" horiz-adv-x="552" d="M362 0h-172v1513h172v-1513zM281 1765l196 162l80 -74l-211 -206h-131l-217 202l80 78z" />
<glyph unicode="&#x1d0;" horiz-adv-x="495" d="M336 0h-176v1104h176v-1104zM244 1393l196 163l80 -73l-211 -207h-131l-217 203l78 77z" />
<glyph unicode="&#x1d1;" horiz-adv-x="1277" d="M1188 786q0 -813 -565 -813q-532 0 -533 754q0 162 27.5 299t90 257t176.5 188.5t269 68.5q150 0 257.5 -61.5t166 -171t85 -238.5t26.5 -283zM1004 778q0 616 -361 617q-371 0 -371 -660q0 -616 359 -616q373 0 373 659zM643 1802l197 164l80 -74l-211 -206h-131 l-218 202l78 78z" />
<glyph unicode="&#x1d2;" horiz-adv-x="1050" d="M106 541q0 268 104.5 428.5t324.5 160.5q403 0 403 -563q0 -274 -103.5 -434t-318.5 -160q-209 0 -309.5 154t-100.5 414zM285 549q0 -434 235 -434q240 0 240 448q0 428 -234 428q-241 0 -241 -442zM530 1393l197 163l80 -73l-211 -207h-131l-217 203l78 77z" />
<glyph unicode="&#x1d3;" horiz-adv-x="1286" d="M1108 1513v-1044q0 -221 -114.5 -358.5t-360.5 -137.5q-244 0 -349.5 135.5t-105.5 356.5v1048h176v-1011q0 -184 64.5 -278.5t226.5 -94.5t225.5 99.5t63.5 277.5v1007h174zM645 1802l197 164l80 -74l-211 -206h-131l-218 202l78 78z" />
<glyph unicode="&#x1d4;" horiz-adv-x="1083" d="M162 1104h174v-778q0 -111 31.5 -154t101.5 -43q123 0 276 143v832h175v-1104h-156l-12 125q-100 -78 -179 -115t-170 -37q-117 0 -179 72t-62 250v809zM535 1393l196 163l80 -73l-211 -207h-131l-217 203l78 77z" />
<glyph unicode="&#x1fa;" horiz-adv-x="1105" d="M776 1364q0 -72 -32.5 -130t-88.5 -85l457 -1149h-201l-139 381h-498l-137 -381h-184l459 1202q-53 63 -53.5 161.5t59 167t147.5 68.5q92 0 151.5 -68.5t59.5 -166.5zM705 522l-187 570l-182 -570h369zM467 1726l186 322l133 -76l-219 -297zM664 1364q0 55 -27 93 t-72 38t-70.5 -38t-25.5 -93q0 -68 29 -98h110l6 -15q50 37 50 113z" />
<glyph unicode="&#x1fb;" horiz-adv-x="933" d="M788 0h-145l-18 106q-4 -2 -36 -25.5t-43 -30.5t-43 -25.5t-52.5 -25.5t-52 -14.5t-62.5 -7.5q-119 0 -182.5 84t-63.5 211q0 117 70.5 190t177 100.5t258.5 31.5v209q0 106 -37 149t-113 43q-109 0 -266 -77l-39 133q209 80 330 79q160 0 228.5 -82.5t68.5 -240.5v-496 q0 -96 20 -311zM598 209v276q-55 -2 -96 -5t-91.5 -15t-82 -31.5t-54 -56.5t-22.5 -86q0 -84 39 -134.5t106 -50.5q66 1 201 103zM686 1423q0 -96 -59.5 -162.5t-151.5 -66.5q-90 0 -148.5 66.5t-58.5 162.5q0 94 59.5 161t147.5 67q92 0 151.5 -67t59.5 -161zM573 1423 q0 53 -26.5 90t-71.5 37t-70.5 -36.5t-25.5 -90t25.5 -90.5t70.5 -37t71.5 38t26.5 89zM381 1745l186 321l133 -75l-219 -297z" />
<glyph unicode="&#x1fc;" horiz-adv-x="1484" d="M1434 0h-547l-70 473h-469l-201 -473h-206l704 1513h725v-145h-526l80 -498h426v-143h-408l94 -582h398v-145zM801 610l-107 733l-280 -733h387zM748 1696l188 329l139 -79l-225 -301z" />
<glyph unicode="&#x1fd;" horiz-adv-x="1370" d="M954 -29q-174 0 -270 150q-182 -143 -332 -144q-123 0 -195.5 86.5t-72.5 223.5q0 180 133 270t365 96v127q0 215 -138 215q-104 0 -266 -77l-39 133q209 80 326 79q170 0 221 -188q119 193 264 193q166 0 247 -135.5t81 -352.5q0 -49 -6 -96h-541q12 -442 248 -442 q109 0 235 96l43 -137q-139 -97 -303 -97zM403 106q98 0 234 109q-51 131 -57 330q-158 -4 -247 -62.5t-89 -175.5q0 -86 44.5 -143.5t114.5 -57.5zM930 1006q-90 0 -143.5 -98.5t-63.5 -241.5h393q7 340 -186 340zM594 1294l190 332l138 -78l-226 -305z" />
<glyph unicode="&#x1fe;" horiz-adv-x="1284" d="M1188 786q0 -813 -565 -813q-231 0 -365 144l-121 -158l-106 115l139 180q-80 176 -80 473q0 162 27.5 299t90 257t176.5 188.5t269 68.5q256 0 389 -184l154 192l102 -112l-178 -226q68 -172 68 -424zM272 735q0 -197 33 -321l625 796q-92 184 -287 185 q-371 -1 -371 -660zM1004 778q0 152 -23 264l-612 -782q88 -141 262 -141q373 0 373 659zM555 1704l190 332l138 -78l-226 -305z" />
<glyph unicode="&#x1ff;" horiz-adv-x="1050" d="M106 541q0 268 104.5 428.5t324.5 160.5q184 0 284 -122l131 131l115 -121l-164 -166q37 -117 37 -285q0 -274 -103.5 -434t-318.5 -160q-203 0 -307 150l-129 -127l-111 121l166 166q-29 106 -29 258zM760 563q0 80 -10 162l-428 -455q57 -156 198 -155q240 -1 240 448z M285 549q0 -72 6 -133l420 450q-57 125 -185 125q-241 0 -241 -442zM440 1294l191 332l137 -78l-225 -305z" />
<glyph unicode="&#x218;" horiz-adv-x="921" d="M805 1468l-47 -143q-121 66 -262 66q-94 0 -158 -48.5t-64 -140.5q0 -72 44 -142.5t109 -124.5l141 -122q77 -68 141.5 -131.5t108.5 -154.5t44 -191q0 -168 -116.5 -263.5t-303.5 -95.5q-223 0 -393 99l57 164q156 -115 338 -115q106 0 170 55.5t64 149.5 q0 76 -44 147.5t-109 127.5l-141 123l-141.5 128.5t-108.5 148.5t-44 183q0 166 113.5 259t281.5 93q150 0 320 -72zM438 -645l-92 76q84 96 84 192q0 35 -21.5 71t-21.5 70q0 33 24.5 56.5t61.5 23.5q49 0 79 -47t30 -123q-1 -155 -144 -319z" />
<glyph unicode="&#x219;" horiz-adv-x="784" d="M358 -645l-92 76q84 96 84 192q0 35 -21.5 71t-21.5 70q0 33 24.5 56.5t61.5 23.5q49 0 79 -47t30 -123q-1 -155 -144 -319zM422 1137q102 0 244 -47l-33 -142q-117 49 -192.5 49t-120 -38.5t-44.5 -108.5q0 -63 44.5 -114.5t107.5 -92.5l127 -86q63 -45 107.5 -118.5 t44.5 -170.5q0 -147 -92.5 -222t-239.5 -75q-162 0 -299 64l43 145q123 -72 239 -71q82 0 126 42t44 113q0 66 -44 120t-107 96l-127 87q-63 45 -107.5 115t-44.5 158q0 141 92.5 219t231.5 78z" />
<glyph unicode="&#x21a;" horiz-adv-x="921" d="M438 -645l-92 76q84 96 84 192q0 35 -21.5 71t-21.5 70q0 33 24.5 56.5t61.5 23.5q49 0 79 -47t30 -123q-1 -155 -144 -319zM958 1366h-413v-1366h-174v1366h-408v147h995v-147z" />
<glyph unicode="&#x21b;" horiz-adv-x="667" d="M395 -645l-92 76q84 96 84 192q0 35 -21.5 71t-21.5 70q0 33 24.5 56.5t61.5 23.5q49 0 79 -47t30 -123q-1 -155 -144 -319zM623 160l30 -144q-86 -43 -211 -43q-145 0 -202.5 71t-57.5 239v690h-127v131h127v366l174 43v-409h254v-131h-254v-668q0 -98 27 -140t92 -42 q78 0 148 37z" />
<glyph unicode="&#x226;" horiz-adv-x="1064" d="M881 0l-129 440h-459l-125 -440h-176l432 1513h199l450 -1513h-192zM518 1354l-188 -772h383zM633 1870q0 -51 -33 -84t-80 -33q-49 0 -79.5 33t-30.5 84t31.5 85t78.5 34t80 -34t33 -85z" />
<glyph unicode="&#x227;" horiz-adv-x="933" d="M788 0h-145l-18 106q-4 -2 -36 -25.5t-43 -30.5t-43 -25.5t-52.5 -25.5t-52 -14.5t-62.5 -7.5q-119 0 -182.5 84t-63.5 211q0 117 70.5 190t177 100.5t258.5 31.5v209q0 106 -37 149t-113 43q-109 0 -266 -77l-39 133q209 80 330 79q160 0 228.5 -82.5t68.5 -240.5v-496 q0 -96 20 -311zM598 209v276q-55 -2 -96 -5t-91.5 -15t-82 -31.5t-54 -56.5t-22.5 -86q0 -84 39 -134.5t106 -50.5q66 1 201 103zM590 1460q0 -51 -33 -84t-80 -33q-49 0 -79.5 33t-30.5 84t31.5 85t78.5 34t80 -34t33 -85z" />
<glyph unicode="&#x228;" horiz-adv-x="1019" d="M958 0h-364l-19 -141q190 -39 191 -197q0 -100 -70.5 -145t-175.5 -45q-70 0 -141 20l24 94q59 -18 107 -18q131 0 131 102q0 53 -43 79t-133 32l27 219h-304v1513h734v-145h-560v-508h504v-143h-504v-572h596v-145z" />
<glyph unicode="&#x229;" d="M852 551h-584q2 -229 62.5 -333.5t201.5 -104.5q111 0 265 80l41 -134q-139 -72 -271 -84l-16 -116q190 -39 190 -197q0 -100 -70.5 -145t-174.5 -45q-70 0 -142 20l25 94q59 -18 106 -18q131 0 131 102q0 53 -43 79t-133 32l23 196q-352 33 -352 566q0 588 399 587 q350 0 350 -464q0 -68 -8 -115zM502 1006q-207 0 -232 -340h426q2 170 -40.5 255t-153.5 85z" />
<glyph unicode="&#x232;" horiz-adv-x="974" d="M1006 1513l-431 -1017v-496h-174v492l-434 1021h199l326 -837l331 837h183zM774 1704h-559v123h559v-123z" />
<glyph unicode="&#x233;" horiz-adv-x="892" d="M881 1104l-353 -1198q-59 -203 -154 -302.5t-263 -166.5l-64 141q127 57 199.5 136t115.5 218l33 107l-65 4l-320 1061h191l252 -940l247 940h181zM741 1294h-559v123h559v-123z" />
<glyph unicode="&#x237;" horiz-adv-x="495" d="M162 1104h174v-1073q0 -240 -80 -347.5t-311 -158.5l-33 141q94 25 144 56.5t78 103.5t28 194v1084z" />
<glyph unicode="&#x2bc;" horiz-adv-x="266" d="M76 1110l-107 90q100 119 101 223q0 39 -27 81t-27 83t28 68.5t73 27.5q61 0 97 -55t36 -143q0 -185 -174 -375z" />
<glyph unicode="&#x2c6;" horiz-adv-x="487" d="M246 1571l284 -248l-81 -82l-203 164l-199 -164l-84 70z" />
<glyph unicode="&#x2c7;" horiz-adv-x="512" d="M252 1393l197 163l79 -73l-211 -207h-131l-217 203l78 77z" />
<glyph unicode="&#x2d8;" horiz-adv-x="604" d="M455 1554l127 -12q-14 -137 -92 -211t-205 -74q-121 0 -195 74t-86 211l125 12q18 -92 55 -138t107 -46q131 0 164 184z" />
<glyph unicode="&#x2d9;" horiz-adv-x="194" d="M203 1460q0 -51 -33 -84t-80 -33q-49 0 -79.5 33t-30.5 84t31.5 85t78.5 34t80 -34t33 -85z" />
<glyph unicode="&#x2da;" horiz-adv-x="387" d="M395 1446q0 -98 -59.5 -167t-151.5 -69q-90 0 -148.5 69t-58.5 167t59.5 166.5t147.5 68.5q92 0 151.5 -68.5t59.5 -166.5zM283 1446q0 55 -27 93t-72 38t-70.5 -38t-25.5 -93t25.5 -92t70.5 -37t72 39t27 90z" />
<glyph unicode="&#x2db;" horiz-adv-x="417" d="M324 -334l34 -102q-92 -51 -182 -51q-203 0 -203 206q0 94 62.5 184.5t181.5 151.5l121 -57q-102 -51 -161.5 -125t-59.5 -137q0 -106 88 -107q51 0 119 37z" />
<glyph unicode="&#x2dc;" horiz-adv-x="647" d="M530 1470l70 -77q-88 -111 -194 -111q-59 0 -117 32t-90 32q-10 0 -19.5 -1.5t-19.5 -6.5t-16.5 -7t-19.5 -11t-16.5 -12t-19.5 -15.5t-20 -14.5l-64 84q100 106 197 106q55 0 113.5 -30.5t91.5 -30.5q52 0 124 63z" />
<glyph unicode="&#x2dd;" horiz-adv-x="718" d="M723 1556l-238 -307l-116 17l151 290h203zM348 1556l-233 -307l-117 17l149 290h201z" />
<glyph unicode="&#x384;" horiz-adv-x="161" d="M-152 1268l140 362l151 -49l-180 -344z" />
<glyph unicode="&#x385;" horiz-adv-x="1056" d="M352 1438q0 -47 -29.5 -77t-72.5 -30q-47 0 -78 30t-31 77t32 77.5t77 30.5q43 0 72.5 -31.5t29.5 -76.5zM848 1438q0 -47 -32 -77t-79 -30q-43 0 -72.5 30t-29.5 77q0 45 29.5 76.5t72.5 31.5q47 0 79 -31.5t32 -76.5zM381 1313l115 368l153 -45l-157 -350z" />
<glyph unicode="&#x386;" horiz-adv-x="1064" d="M881 0l-129 440h-459l-125 -440h-176l432 1513h199l450 -1513h-192zM518 1354l-188 -772h383zM31 1268l139 362l152 -49l-181 -344z" />
<glyph unicode="&#x387;" horiz-adv-x="442" d="M352 710.5q0 -51.5 -33.5 -86t-80.5 -34.5q-51 0 -85 34.5t-34 86t34.5 86t84.5 34.5q47 0 80.5 -34.5t33.5 -86z" />
<glyph unicode="&#x388;" horiz-adv-x="1017" d="M961 0h-771v1513h734v-145h-559v-508h503v-143h-503v-572h596v-145zM-164 1268l139 362l152 -49l-180 -344z" />
<glyph unicode="&#x389;" horiz-adv-x="1323" d="M1133 0h-177v723h-591v-723h-177v1513h177v-645h591v645h177v-1513zM-166 1268l139 362l152 -49l-180 -344z" />
<glyph unicode="&#x38a;" horiz-adv-x="552" d="M362 0h-172v1513h172v-1513zM-150 1268l140 362l151 -49l-180 -344z" />
<glyph unicode="&#x38c;" horiz-adv-x="1284" d="M1188 786q0 -813 -565 -813q-532 0 -533 754q0 162 27.5 299t90 257t176.5 188.5t269 68.5q150 0 257.5 -61.5t166 -171t85 -238.5t26.5 -283zM1004 778q0 616 -361 617q-371 0 -371 -660q0 -616 359 -616q373 0 373 659zM-117 1268l140 362l151 -49l-180 -344z" />
<glyph unicode="&#x38e;" horiz-adv-x="950" d="M991 1513l-430 -1017v-496h-174v492l-434 1021h199l325 -837l332 837h182zM-387 1268l139 362l152 -49l-180 -344z" />
<glyph unicode="&#x38f;" horiz-adv-x="1337" d="M1225 0h-385l-39 119q113 170 173 330.5t60 392.5q0 246 -98 399.5t-272 153.5q-178 0 -278.5 -155t-100.5 -413q0 -403 233 -708l-41 -119h-383v139h230q-213 303 -213 692q0 334 154.5 522.5t404.5 188.5q252 0 395 -186.5t143 -495.5q0 -133 -17 -241.5t-58 -204 t-65 -138.5t-83 -137h240v-139zM-113 1268l140 362l151 -49l-180 -344z" />
<glyph unicode="&#x390;" horiz-adv-x="512" d="M477 139l12 -139q-39 -8 -98 -8q-141 0 -187 82t-46 254v776h172v-776q0 -106 22.5 -148.5t75.5 -42.5q33 0 49 2zM92 1438q0 -47 -28.5 -77t-71.5 -30q-45 0 -75 30t-30 77q0 49 30 78.5t75 29.5q43 0 71.5 -30.5t28.5 -77.5zM573 1438q0 -47 -30.5 -77t-75.5 -30 q-43 0 -71.5 30t-28.5 77t28.5 77.5t71.5 30.5q45 0 75.5 -31.5t30.5 -76.5zM121 1313l110 368l150 -45l-154 -350z" />
<glyph unicode="&#x391;" horiz-adv-x="1064" d="M881 0l-129 440h-459l-125 -440h-176l432 1513h199l450 -1513h-192zM518 1354l-188 -772h383z" />
<glyph unicode="&#x392;" horiz-adv-x="1069" d="M1016 430q0 -242 -129 -336t-373 -94h-326v1513h332q446 0 447 -378q0 -231 -176 -324q225 -102 225 -381zM829 432q0 293 -323 293h-144v-582h162q154 0 229.5 63.5t75.5 225.5zM780 1124q0 246 -264 246h-154v-510h123q295 0 295 264z" />
<glyph unicode="&#x393;" horiz-adv-x="888" d="M190 1513h740v-145h-565v-1368h-175v1513z" />
<glyph unicode="&#x394;" horiz-adv-x="1056" d="M1034 115l-30 -115h-943l-36 117l440 1407h149zM838 143l-301 1157l-316 -1157h617z" />
<glyph unicode="&#x2206;" horiz-adv-x="1056" d="M1034 115l-30 -115h-943l-36 117l440 1407h149zM838 143l-301 1157l-316 -1157h617z" />
<glyph unicode="&#x395;" horiz-adv-x="1017" d="M961 0h-771v1513h734v-145h-559v-508h503v-143h-503v-572h596v-145z" />
<glyph unicode="&#x396;" horiz-adv-x="911" d="M901 0h-885l-22 123l678 1239h-623v151h823l23 -112l-678 -1249h684v-152z" />
<glyph unicode="&#x397;" horiz-adv-x="1323" d="M1133 0h-177v723h-591v-723h-177v1513h177v-645h591v645h177v-1513z" />
<glyph unicode="&#x398;" horiz-adv-x="1284" d="M823 696h-338v135h338v-135zM1188 786q0 -813 -565 -813q-532 0 -533 754q0 162 27.5 299t90 257t176.5 188.5t269 68.5q150 0 257.5 -61.5t166 -171t85 -238.5t26.5 -283zM1004 778q0 616 -361 617q-371 0 -371 -660q0 -616 359 -616q373 0 373 659z" />
<glyph unicode="&#x399;" horiz-adv-x="552" d="M362 0h-172v1513h172v-1513z" />
<glyph unicode="&#x39a;" horiz-adv-x="1103" d="M1083 1513l-446 -639l498 -874h-226l-381 735l-163 -237v-498h-177v1513h177v-772l491 772h227z" />
<glyph unicode="&#x39b;" horiz-adv-x="1015" d="M111 0l497 1513h107l499 -1513h-192l-365 1206l-362 -1206h-184z" />
<glyph unicode="&#x39c;" horiz-adv-x="1538" d="M1417 0h-178l-57 1157l-371 -1157h-100l-373 1157l-59 -1157h-156l86 1513h170l389 -1196l397 1196h164z" />
<glyph unicode="&#x39d;" horiz-adv-x="1376" d="M1176 0h-129l-691 1159v-1159h-168v1513h136l686 -1142v1142h166v-1513z" />
<glyph unicode="&#x39e;" horiz-adv-x="972" d="M838 1364h-736v149h736v-149zM102 150h768v-150h-768v150zM209 866h520v-151h-520v151z" />
<glyph unicode="&#x39f;" horiz-adv-x="1284" d="M1188 786q0 -813 -565 -813q-532 0 -533 754q0 162 27.5 299t90 257t176.5 188.5t269 68.5q150 0 257.5 -61.5t166 -171t85 -238.5t26.5 -283zM1004 778q0 616 -361 617q-371 0 -371 -660q0 -616 359 -616q373 0 373 659z" />
<glyph unicode="&#x3a0;" horiz-adv-x="1308" d="M1124 0h-174v1368h-588v-1368h-174v1513h936v-1513z" />
<glyph unicode="&#x3a1;" horiz-adv-x="1040" d="M993 1047q0 -233 -119.5 -361.5t-343.5 -128.5q-109 0 -165 18v-575h-177v1513h324q481 1 481 -466zM805 1030q0 168 -71.5 253t-239.5 85h-129v-649q63 -18 145 -19q158 0 226.5 83t68.5 247z" />
<glyph unicode="&#x3a3;" horiz-adv-x="917" d="M463 774l-412 619l31 120h807v-145h-576l383 -590l-448 -633h657v-145h-872l-23 123z" />
<glyph unicode="&#x3a4;" horiz-adv-x="921" d="M958 1366h-413v-1366h-174v1366h-408v147h995v-147z" />
<glyph unicode="&#x3a5;" horiz-adv-x="944" d="M991 1513l-430 -1017v-496h-174v492l-434 1021h199l325 -837l332 837h182z" />
<glyph unicode="&#x3a6;" horiz-adv-x="1314" d="M760 -168h-172v270q-139 12 -240.5 70.5t-156 150t-79 192.5t-24.5 220q0 123 25.5 231.5t82 205t157 161t235.5 80.5v283h172v-281q133 -14 231.5 -71.5t153.5 -146.5t80.5 -192.5t25.5 -222.5q0 -129 -24.5 -237.5t-78.5 -204.5t-152.5 -157.5t-235.5 -78.5v-272z M260 739q0 -449 334 -495v1022q-334 -50 -334 -527zM1081 774q0 442 -327 492v-1020q327 55 327 528z" />
<glyph unicode="&#x3a7;" horiz-adv-x="1003" d="M811 0l-315 645l-310 -645h-196l395 788l-367 725h211l287 -589l275 589h196l-371 -725l406 -788h-211z" />
<glyph unicode="&#x3a8;" horiz-adv-x="1347" d="M27 1470l127 70q63 -59 85.5 -150.5t30.5 -242.5q8 -170 84 -287t232 -141v794h172v-792q291 51 313 426q4 147 26.5 240.5t88.5 152.5l127 -67q-80 -74 -84 -314q-23 -532 -471 -586v-573h-172v571q-457 43 -480 588q1 237 -79 311z" />
<glyph unicode="&#x3a9;" horiz-adv-x="1314" d="M1223 0h-385l-39 119q113 170 173 330.5t60 392.5q0 246 -98 399.5t-272 153.5q-178 0 -278.5 -155t-100.5 -413q0 -403 233 -708l-41 -119h-383v139h230q-213 303 -213 692q0 334 154.5 522.5t404.5 188.5q252 0 395 -186.5t143 -495.5q0 -133 -17.5 -241.5t-58 -204 t-64.5 -138.5t-83 -137h240v-139z" />
<glyph unicode="&#x2126;" horiz-adv-x="1314" d="M1223 0h-385l-39 119q113 170 173 330.5t60 392.5q0 246 -98 399.5t-272 153.5q-178 0 -278.5 -155t-100.5 -413q0 -403 233 -708l-41 -119h-383v139h230q-213 303 -213 692q0 334 154.5 522.5t404.5 188.5q252 0 395 -186.5t143 -495.5q0 -133 -17.5 -241.5t-58 -204 t-64.5 -138.5t-83 -137h240v-139z" />
<glyph unicode="&#x3aa;" horiz-adv-x="552" d="M184 1767.5q0 -49.5 -32.5 -80t-77.5 -30.5q-51 0 -83 30.5t-32 79.5q0 51 32 83t83 32q47 0 78.5 -32.5t31.5 -82zM596 1767.5q0 -49.5 -33 -80t-84 -30.5q-47 0 -77.5 30.5t-30.5 80t30.5 82t77.5 32.5q51 0 84 -32.5t33 -82zM362 0h-172v1513h172v-1513z" />
<glyph unicode="&#x3ab;" horiz-adv-x="944" d="M369 1767.5q0 -49.5 -33 -80t-76 -30.5q-53 0 -86 30.5t-33 79.5q0 51 34 83t85 32q47 0 78 -32.5t31 -82zM780 1767.5q0 -49.5 -32.5 -80t-83.5 -30.5q-45 0 -77 30.5t-32 80t30.5 82t78.5 32.5q51 0 83.5 -32.5t32.5 -82zM991 1513l-430 -1017v-496h-174v492l-434 1021 h199l325 -837l332 837h182z" />
<glyph unicode="&#x3ac;" horiz-adv-x="1085" d="M1061 43l-154 -68q-29 72 -76 203l-53 148q-74 -176 -145.5 -264.5t-179.5 -88.5q-174 0 -264.5 158t-90.5 414t90.5 420.5t268.5 164.5q121 0 189.5 -82.5t137.5 -263.5q41 123 129 346l150 -65q-70 -164 -193 -504q27 -66 87.5 -242t103.5 -276zM461 117 q37 0 67.5 24.5t61.5 92t46 109.5t52 155q10 29 14 43q-8 27 -26 80l-34 102q-11 33 -30.5 85t-34 76.5t-35 52.5t-43 39t-46.5 11q-88 0 -130 -126t-42 -306q0 -193 46 -315.5t134 -122.5zM545 1268l139 362l152 -49l-181 -344z" />
<glyph unicode="&#x3ad;" horiz-adv-x="770" d="M80 303q0 199 166 293q-137 76 -137 250q0 131 95 205.5t265 74.5q121 0 264 -49l-26 -137q-113 47 -232 47q-90 0 -138 -41t-48 -112q0 -82 64.5 -138.5t181.5 -58.5l92 -4l2 -113l-105 6q-127 6 -193.5 -49t-66.5 -162q0 -98 60.5 -148t164.5 -50q102 0 226 43l24 -137 q-143 -43 -260 -43q-184 0 -291.5 79.5t-107.5 243.5zM438 1268l140 362l151 -49l-180 -344z" />
<glyph unicode="&#x3ae;" horiz-adv-x="1071" d="M922 -590h-174v1329q0 127 -33 185.5t-103 58.5q-125 0 -274 -186v-797h-176v1104h164v-146q166 176 336 177q260 0 260 -381v-1344zM516 1268l139 362l152 -49l-180 -344z" />
<glyph unicode="&#x3af;" horiz-adv-x="512" d="M477 139l12 -139q-39 -8 -98 -8q-141 0 -187 82t-46 254v776h172v-776q0 -106 22.5 -148.5t75.5 -42.5q33 0 49 2zM164 1268l139 362l152 -49l-181 -344z" />
<glyph unicode="&#x3b0;" horiz-adv-x="1009" d="M598 1069l170 72q156 -295 139 -643q-8 -231 -111.5 -376t-308.5 -145q-373 0 -352 502l4 131q16 274 -14 494h172q27 -207 18 -492l-6 -143q-12 -346 191 -346q213 0 227 371q14 307 -129 575zM338 1438q0 -47 -29.5 -77t-72.5 -30q-47 0 -78 30t-31 77t31.5 77.5 t77.5 30.5q43 0 72.5 -31.5t29.5 -76.5zM834 1438q0 -47 -32 -77t-79 -30q-43 0 -72.5 30t-29.5 77q0 45 29.5 76.5t72.5 31.5q47 0 79 -31.5t32 -76.5zM367 1313l114 368l154 -45l-158 -350z" />
<glyph unicode="&#x3b1;" horiz-adv-x="1083" d="M1059 43l-154 -68q-29 72 -76 203l-53 148q-74 -176 -145.5 -264.5t-179.5 -88.5q-174 0 -264.5 158t-90.5 414t90 420.5t269 164.5q121 0 189.5 -82.5t137.5 -263.5q41 123 129 346l150 -65q-70 -164 -193 -504q27 -66 87.5 -242t103.5 -276zM459 117q37 0 67.5 24.5 t61 92t46 109.5t52.5 155q10 29 14 43q-8 27 -26 80l-34 102q-11 33 -30.5 85t-34 76.5t-35 52.5t-43 39t-46.5 11q-88 0 -130 -126t-42 -306q0 -193 46 -315.5t134 -122.5z" />
<glyph unicode="&#x3b2;" horiz-adv-x="1021" d="M874 1296q0 -229 -147 -397q106 -49 156.5 -170t50.5 -264q0 -94 -21.5 -177t-66.5 -157t-129 -117t-197 -43q-68 0 -186 70v-510h-174v1649q0 225 97 362t284 139q172 4 252.5 -106.5t80.5 -278.5zM334 1188v-987q98 -84 184 -84q119 0 176.5 99t57.5 251 q0 129 -51.5 227.5t-145.5 98.5q-39 0 -131 -25l-10 131q143 27 149 27q135 119 135 348q0 113 -38.5 191.5t-127.5 76.5q-102 -2 -150 -100t-48 -254z" />
<glyph unicode="&#x3b3;" horiz-adv-x="837" d="M813 1104q-2 -166 -49 -350.5t-101.5 -320.5t-187.5 -443q31 -322 31 -568h-172q4 266 -19 566q-49 520 -358 1116h205q88 -164 163.5 -389.5t114.5 -442.5q96 250 144.5 442.5t52.5 389.5h176z" />
<glyph unicode="&#x3b4;" horiz-adv-x="876" d="M436 -27q-174 0 -274.5 133.5t-100.5 329.5q0 174 86 315.5t224 237.5q-209 205 -209 379q0 129 74.5 193.5t201.5 64.5q119 0 307 -92l-47 -129q-147 84 -252 84q-113 0 -112 -121q0 -63 46 -132t167 -185q129 -133 209 -276.5t80 -330.5q0 -229 -109 -350t-291 -121z M662 432q0 217 -197 457q-233 -193 -234 -453q0 -143 62.5 -233t157.5 -90q90 0 150.5 83.5t60.5 235.5z" />
<glyph unicode="&#x3b5;" horiz-adv-x="770" d="M78 303q0 199 166 293q-137 76 -138 250q0 131 95.5 205.5t265.5 74.5q119 0 264 -49l-26 -137q-113 47 -232 47q-90 0 -138 -41t-48 -112q0 -82 64.5 -138.5t180.5 -58.5l93 -4l2 -113l-105 6q-127 6 -193.5 -49t-66.5 -162q0 -98 60.5 -148t164.5 -50q102 0 226 43 l24 -137q-143 -43 -260 -43q-184 0 -291.5 79.5t-107.5 243.5z" />
<glyph unicode="&#x3b6;" horiz-adv-x="706" d="M655 -481l-131 67q96 188 97 281q0 55 -27 79.5t-94 24.5q-209 0 -312.5 105.5t-103.5 361.5q0 279 132 566.5t319 525.5h-422v133h612l37 -109q-207 -221 -354.5 -504.5t-147.5 -596.5q0 -195 61.5 -265.5t194.5 -70.5q264 0 264 -223q0 -146 -125 -375z" />
<glyph unicode="&#x3b7;" horiz-adv-x="1071" d="M920 -590h-175v1329q0 127 -32.5 185.5t-102.5 58.5q-125 0 -274 -186v-797h-176v1104h164v-146q166 176 335 177q260 0 261 -381v-1344z" />
<glyph unicode="&#x3b8;" horiz-adv-x="1003" d="M895 836q0 -858 -397 -859q-119 0 -202 82t-122 220.5t-54.5 271.5t-15.5 285q0 166 18.5 306t60.5 265t122 196.5t193 71.5q397 1 397 -839zM502 117q217 0 225 669h-453q4 -279 57.5 -474t170.5 -195zM496 1536q-57 0 -100.5 -53t-68 -145.5t-36.5 -196t-17 -223.5h451 q-4 168 -27.5 301t-74.5 225t-127 92z" />
<glyph unicode="&#x3b9;" horiz-adv-x="507" d="M475 139l12 -139q-39 -8 -98 -8q-141 0 -187 82t-46 254v776h172v-776q0 -106 22.5 -148.5t75.5 -42.5q33 0 49 2z" />
<glyph unicode="&#x3ba;" horiz-adv-x="884" d="M336 1104v-467q31 0 45 -2l295 469h213l-350 -500q164 -61 245 -280l123 -324h-196l-88 262q-47 139 -108.5 184.5t-178.5 51.5v-498h-174v1104h174z" />
<glyph unicode="&#x3bb;" horiz-adv-x="829" d="M657 0l-239 844l-260 -844h-181l375 1071l-28 100q-47 168 -126 236t-214 70l18 147q190 -2 303 -99.5t191 -326.5l348 -1198h-187z" />
<glyph unicode="&#x3bd;" horiz-adv-x="841" d="M375 0l-377 1104h199l252 -860l153 471q66 203 62 389h174q0 -217 -76 -420l-260 -684h-127z" />
<glyph unicode="&#x3be;" horiz-adv-x="692" d="M70 383q0 147 65.5 276t175.5 205q-92 35 -148.5 119t-56.5 215q0 209 150 331t391 163l23 -133q-178 -43 -280.5 -124t-102.5 -231q0 -133 75.5 -187t192.5 -32l84 19l39 -130l-92 -28q-152 -41 -243 -163t-91 -286q0 -281 272 -280q121 -4 186.5 -52.5t65.5 -164.5 q0 -160 -131 -381l-137 67q96 199 96 283q0 61 -31.5 81.5t-95.5 20.5q-188 2 -297.5 107.5t-109.5 304.5z" />
<glyph unicode="&#x3bf;" horiz-adv-x="1005" d="M100 541q0 268 104.5 428.5t323.5 160.5q403 0 404 -563q0 -274 -103.5 -434t-318.5 -160q-209 0 -309.5 154t-100.5 414zM279 549q0 -434 235 -434q240 0 240 448q0 428 -234 428q-241 0 -241 -442z" />
<glyph unicode="&#x3c0;" horiz-adv-x="1017" d="M969 139l10 -139q-35 -8 -94 -8q-137 0 -182.5 82t-45.5 254v641h-301q0 -430 -11 -612.5t-54 -356.5h-170q45 184 58.5 376.5t13.5 590.5q-88 -6 -160 -33l-29 127q92 43 260 43h703v-135h-142v-641q0 -104 21.5 -147.5t73.5 -43.5q35 0 49 2z" />
<glyph unicode="&#x3c1;" horiz-adv-x="1003" d="M139 -559v1202q0 240 101.5 366t287.5 126q135 0 224.5 -87t124 -213t34.5 -286q0 -104 -20.5 -199.5t-65.5 -183.5t-128 -141.5t-193 -53.5q-84 0 -191 64v-594h-174zM313 641v-440q96 -84 181 -84q119 0 176 124t57 302q0 86 -9 160.5t-31.5 142t-65.5 107.5t-103 40 q-98 0 -151.5 -91t-53.5 -261z" />
<glyph unicode="&#x3c2;" horiz-adv-x="759" d="M657 -461l-137 72q94 188 94 280q0 53 -26.5 80t-93.5 27q-209 0 -309.5 97.5t-100.5 350.5q0 301 168 491.5t434 246.5l37 -142q-211 -51 -337 -203.5t-126 -377.5q0 -190 64.5 -255t191.5 -65q270 0 270 -227q0 -131 -129 -375z" />
<glyph unicode="&#x3c3;" horiz-adv-x="1032" d="M1036 967h-266q137 -166 137 -439q0 -98 -23.5 -193t-70.5 -178t-128 -134.5t-185 -51.5q-203 0 -306.5 162t-103.5 447q0 526 479 526l467 -2v-137zM729 522q0 293 -139 445h-17q-172 0 -238.5 -95.5t-66.5 -287.5q0 -215 61.5 -342t176.5 -127q106 0 164.5 127.5 t58.5 279.5z" />
<glyph unicode="&#x3c4;" horiz-adv-x="714" d="M750 969h-306v-641q0 -106 22.5 -148.5t76.5 -42.5q31 0 49 2l8 -139q-35 -8 -94 -8q-141 0 -188.5 82t-47.5 254v641h-39q-156 0 -239 -39l-35 127q90 47 258 47h535v-135z" />
<glyph unicode="&#x3c5;" horiz-adv-x="1009" d="M596 1069l170 72q156 -295 139 -643q-8 -231 -111.5 -376t-308.5 -145q-375 0 -352 502l4 131q16 274 -14 494h172q27 -207 18 -492l-6 -143q-12 -346 191 -346q213 0 227 371q14 307 -129 575z" />
<glyph unicode="&#x3c6;" horiz-adv-x="1183" d="M494 -541v604q-223 25 -319.5 166.5t-96.5 341.5q0 184 77.5 330t252.5 209l59 -127q-217 -88 -217 -405.5t244 -368.5v561q0 172 69.5 265t200.5 93q160 0 250 -142t90 -357q0 -229 -103.5 -384t-334.5 -182v-604h-172zM666 766v-559q266 45 266 407q0 172 -51.5 272.5 t-118.5 100.5q-96 0 -96 -221z" />
<glyph unicode="&#x3c7;" horiz-adv-x="688" d="M143 1104l213 -572l179 572h192l-289 -787l314 -839h-193l-242 645l-211 -668l-169 43l303 836l-287 770h190z" />
<glyph unicode="&#x3c8;" horiz-adv-x="1251" d="M709 -268h-177v252q-397 49 -397 503v123q0 266 -49 494h170q53 -260 53 -492v-112q0 -319 223 -367v1180h177v-1186q279 41 278 416q0 268 -162 514l150 90q186 -279 186 -592q0 -535 -452 -573v-250z" />
<glyph unicode="&#x3c9;" horiz-adv-x="1404" d="M1026 1073l162 62q115 -266 115 -539q0 -158 -37 -294t-124 -230.5t-210 -94.5q-164 0 -240 138q-90 -137 -241 -138q-174 0 -258 130.5t-84 353.5q0 307 106 674l164 -56q-98 -358 -98 -610q0 -346 172 -346q72 0 120 114.5t48 280.5v363h167v-412q0 -346 148 -346 q92 0 140 142.5t48 320.5q0 137 -21.5 242.5t-76.5 244.5z" />
<glyph unicode="&#x3ca;" horiz-adv-x="512" d="M477 139l12 -139q-39 -8 -98 -8q-141 0 -187 82t-46 254v776h172v-776q0 -106 22.5 -148.5t75.5 -42.5q33 0 49 2zM162 1434q0 -47 -30 -78t-73 -31q-49 0 -79.5 29.5t-30.5 79.5q0 51 30.5 81.5t79.5 30.5q43 0 73 -31.5t30 -80.5zM561 1433.5q0 -49.5 -30.5 -79 t-79.5 -29.5q-43 0 -73 29.5t-30 79t29 81t74 31.5q47 0 78.5 -31.5t31.5 -81z" />
<glyph unicode="&#x3cb;" horiz-adv-x="1009" d="M598 1069l170 72q156 -295 139 -643q-8 -231 -111.5 -376t-308.5 -145q-373 0 -352 502l4 131q16 274 -14 494h172q27 -207 18 -492l-6 -143q-12 -346 191 -346q213 0 227 371q14 307 -129 575zM416 1434q0 -47 -30 -78t-73 -31q-49 0 -79.5 29.5t-30.5 79.5 q0 51 30.5 81.5t79.5 30.5q43 0 73 -31.5t30 -80.5zM815 1433.5q0 -49.5 -30.5 -79t-79.5 -29.5q-43 0 -73 29.5t-30 79t28.5 81t74.5 31.5q47 0 78.5 -31.5t31.5 -81z" />
<glyph unicode="&#x3cc;" horiz-adv-x="1005" d="M100 541q0 268 104.5 428.5t323.5 160.5q403 0 404 -563q0 -274 -103.5 -434t-318.5 -160q-209 0 -309.5 154t-100.5 414zM279 549q0 -434 235 -434q240 0 240 448q0 428 -234 428q-241 0 -241 -442zM506 1268l139 362l152 -49l-181 -344z" />
<glyph unicode="&#x3cd;" horiz-adv-x="1009" d="M598 1069l170 72q156 -295 139 -643q-8 -231 -111.5 -376t-308.5 -145q-373 0 -352 502l4 131q16 274 -14 494h172q27 -207 18 -492l-6 -143q-12 -346 191 -346q213 0 227 371q14 307 -129 575zM457 1268l139 362l152 -49l-181 -344z" />
<glyph unicode="&#x3ce;" horiz-adv-x="1419" d="M1036 1073l162 62q115 -266 115 -539q0 -158 -37 -294t-124 -230.5t-210 -94.5q-164 0 -240 138q-90 -137 -241 -138q-174 0 -258 130.5t-84 353.5q0 307 106 674l164 -56q-98 -358 -98 -610q0 -346 172 -346q72 0 120 114.5t48 280.5v363h168v-412q0 -346 147 -346 q92 0 140.5 142.5t48.5 320.5q0 137 -22 242.5t-77 244.5zM709 1268l139 362l151 -49l-180 -344z" />
<glyph unicode="&#x400;" horiz-adv-x="1017" d="M348 1939l158 84l192 -319l-114 -55zM961 0h-771v1513h734v-145h-559v-508h503v-143h-503v-572h596v-145z" />
<glyph unicode="&#x401;" horiz-adv-x="1017" d="M465 1767.5q0 -49.5 -33 -80t-78 -30.5q-51 0 -83.5 30.5t-32.5 79.5q0 51 32.5 83t83.5 32q47 0 79 -32.5t32 -82zM874 1767.5q0 -49.5 -31.5 -80t-82.5 -30.5q-47 0 -78 30.5t-31 80t31 82t78 32.5q51 0 82.5 -32.5t31.5 -82zM961 0h-771v1513h734v-145h-559v-508h503 v-143h-503v-572h596v-145z" />
<glyph unicode="&#x402;" horiz-adv-x="1130" d="M-10 1513h762v-145h-367v-371q141 68 270 68q207 0 315.5 -137t108.5 -383q0 -240 -126 -388.5t-382 -181.5l-24 138q348 53 348 430q0 174 -65.5 275.5t-186.5 101.5q-133 0 -258 -66v-854h-172v1368h-223v145z" />
<glyph unicode="&#x403;" horiz-adv-x="888" d="M410 1696l190 329l137 -79l-225 -301zM190 1513h740v-145h-565v-1368h-175v1513z" />
<glyph unicode="&#x404;" d="M913 182l21 -149q-137 -57 -293 -58q-555 0 -555 770q0 795 567 795q141 0 279 -49l-31 -148q-27 14 -100.5 32t-145.5 18q-360 0 -383 -547h572v-131h-574q16 -592 375 -592q135 0 268 59z" />
<glyph unicode="&#x405;" horiz-adv-x="921" d="M805 1468l-47 -143q-121 66 -262 66q-94 0 -158 -48.5t-64 -140.5q0 -72 44 -142.5t109 -124.5l141 -122q77 -68 141.5 -131.5t108.5 -154.5t44 -191q0 -168 -116.5 -263.5t-303.5 -95.5q-223 0 -393 99l57 164q156 -115 338 -115q106 0 170 55.5t64 149.5 q0 76 -44 147.5t-109 127.5l-141 123l-141.5 128.5t-108.5 148.5t-44 183q0 166 113.5 259t281.5 93q150 0 320 -72z" />
<glyph unicode="&#x406;" horiz-adv-x="552" d="M362 0h-172v1513h172v-1513z" />
<glyph unicode="&#x407;" horiz-adv-x="552" d="M184 1767.5q0 -49.5 -32.5 -80t-77.5 -30.5q-51 0 -83 30.5t-32 79.5q0 51 32 83t83 32q47 0 78.5 -32.5t31.5 -82zM596 1767.5q0 -49.5 -33 -80t-84 -30.5q-47 0 -77.5 30.5t-30.5 80t30.5 82t77.5 32.5q51 0 84 -32.5t33 -82zM362 0h-172v1513h172v-1513z" />
<glyph unicode="&#x408;" horiz-adv-x="657" d="M485 1513v-925q0 -141 -22.5 -244.5t-57 -167t-99 -111t-124 -71t-157.5 -51.5l-33 149q70 23 114 44.5t88 58t66.5 88t36.5 128t14 183.5v919h174z" />
<glyph unicode="&#x409;" horiz-adv-x="1652" d="M997 1513v-602h160q211 0 325.5 -118.5t114.5 -323.5q0 -213 -121.5 -341t-342.5 -128h-310v1368h-342l-37 -590q-23 -365 -106.5 -544t-298.5 -291l-57 141q150 82 214 240.5t85 478.5l45 710l4 -2v2h667zM1411 465q0 305 -278 305h-136v-625h113q158 0 229.5 87.5 t71.5 232.5z" />
<glyph unicode="&#x40a;" horiz-adv-x="1703" d="M1651 459q0 -211 -121 -335t-342 -124h-309v748h-514v-748h-177v1513h177v-620h514v620h174v-620h157q213 0 327 -114.5t114 -319.5zM1464 457q0 291 -276 291h-135v-603h112q299 1 299 312z" />
<glyph unicode="&#x40b;" horiz-adv-x="1265" d="M817 1368h-391v-491q170 154 373 153q158 0 239.5 -88t81.5 -293v-649h-176v631q0 127 -44 186.5t-142 59.5q-164 0 -332 -166v-711h-176v1368h-291v145h858v-145z" />
<glyph unicode="&#x40c;" horiz-adv-x="1142" d="M365 1513v-659q39 0 57 -2l432 661h227l-489 -688q123 -35 209 -125t145 -260l162 -440h-211l-125 377q-35 104 -74 169.5t-90 100.5t-106.5 47.5t-136.5 14.5v-709h-175v1513h175zM469 1696l190 329l138 -79l-228 -301z" />
<glyph unicode="&#x40d;" horiz-adv-x="1341" d="M475 1939l156 84l190 -319l-112 -55zM326 0h-136v1513h175v-1151l651 1151h135v-1513h-174v1159z" />
<glyph unicode="&#x40e;" horiz-adv-x="921" d="M-43 1513h207l303 -792l305 792h195l-615 -1513h-192l217 528zM635 1937l113 -12q-16 -139 -91 -218t-198 -79t-197 79t-86 218l109 12q23 -92 62.5 -140t111.5 -48q135 0 176 188z" />
<glyph unicode="&#x40f;" horiz-adv-x="1312" d="M950 1513h174v-1513h-387v-307h-149v307h-400v1513h174v-1368h588v1368z" />
<glyph unicode="&#x410;" horiz-adv-x="1085" d="M891 0l-129 440h-459l-125 -440h-176l432 1513h199l450 -1513h-192zM528 1354l-188 -772h383z" />
<glyph unicode="&#x411;" horiz-adv-x="1034" d="M979 463q0 -213 -123 -338t-350 -125h-316v1513h709v-145h-534v-465h163q219 0 335 -117.5t116 -322.5zM797 459q0 303 -289 303h-143v-621h118q162 0 238 87.5t76 230.5z" />
<glyph unicode="&#x412;" horiz-adv-x="1071" d="M1018 430q0 -242 -129 -336t-373 -94h-326v1513h332q446 0 447 -378q0 -231 -176 -324q225 -102 225 -381zM831 432q0 293 -323 293h-143v-582h161q154 0 229.5 63.5t75.5 225.5zM782 1124q0 246 -264 246h-153v-510h122q295 0 295 264z" />
<glyph unicode="&#x413;" horiz-adv-x="888" d="M188 1513h740v-145h-566v-1368h-174v1513z" />
<glyph unicode="&#x414;" horiz-adv-x="1245" d="M1071 0h-942v-307h-147v442h81q102 74 152.5 224.5t71.5 443.5l45 710h731v-1378h158v-442h-150v307zM887 1372h-400l-32 -575q-14 -270 -63.5 -419t-135.5 -243h631v1237z" />
<glyph unicode="&#x415;" horiz-adv-x="1019" d="M958 0h-770v1513h734v-145h-560v-508h504v-143h-504v-572h596v-145z" />
<glyph unicode="&#x416;" horiz-adv-x="1372" d="M225 1513l277 -667q33 4 94 8v659h172v-659q43 -2 111 -10l290 669h201l-358 -714q109 -61 166 -226l190 -573h-188l-162 520q-37 119 -91.5 154t-158.5 37v-711h-172v711q-100 -2 -154.5 -38t-89.5 -153l-166 -520h-178l189 573q55 168 168 230l-345 710h205z" />
<glyph unicode="&#x417;" horiz-adv-x="880" d="M809 1182q0 -123 -64.5 -216.5t-164.5 -148.5q133 -47 200.5 -149.5t67.5 -239.5q0 -211 -135 -332t-359 -125q-147 -6 -327 52l36 147q150 -53 275 -53q143 0 234.5 81t91.5 226t-101.5 222t-296.5 77h-137l-4 141l151 2q147 2 248 82t101 201q0 117 -75 180.5 t-196 63.5q-135 0 -268 -37l-25 145q162 37 334 37q188 0 301 -94t113 -262z" />
<glyph unicode="&#x418;" horiz-adv-x="1341" d="M326 0h-136v1513h175v-1151l651 1151h135v-1513h-174v1159z" />
<glyph unicode="&#x419;" horiz-adv-x="1341" d="M858 1937l111 -12q-16 -139 -91 -218t-198 -79q-121 0 -195.5 79t-91.5 218l115 12q41 -188 172 -188q133 0 178 188zM326 0h-136v1513h175v-1151l651 1151h135v-1513h-174v1159z" />
<glyph unicode="&#x41a;" horiz-adv-x="1099" d="M365 1513v-659q39 0 57 -2l432 661h227l-489 -688q123 -35 209 -125t145 -260l162 -440h-211l-125 377q-35 104 -74 169.5t-90 100.5t-106.5 47.5t-136.5 14.5v-709h-175v1513h175z" />
<glyph unicode="&#x41b;" horiz-adv-x="1261" d="M1073 0h-174v1372h-418l-32 -577q-25 -369 -116 -559.5t-294 -292.5l-57 141q150 82 214 240.5t85 478.5l45 710l4 -2v2h743v-1513z" />
<glyph unicode="&#x41c;" horiz-adv-x="1542" d="M1419 0h-178l-57 1157l-371 -1157h-100l-373 1157l-59 -1157h-156l86 1513h170l389 -1196l397 1196h164z" />
<glyph unicode="&#x41d;" horiz-adv-x="1323" d="M1135 0h-177v723h-591v-723h-177v1513h177v-645h591v645h177v-1513z" />
<glyph unicode="&#x41e;" horiz-adv-x="1277" d="M1188 786q0 -813 -565 -813q-532 0 -533 754q0 162 27.5 299t90 257t176.5 188.5t269 68.5q150 0 257.5 -61.5t166 -171t85 -238.5t26.5 -283zM1004 778q0 616 -361 617q-371 0 -371 -660q0 -616 359 -616q373 0 373 659z" />
<glyph unicode="&#x41f;" horiz-adv-x="1316" d="M1126 0h-174v1368h-587v-1368h-175v1513h936v-1513z" />
<glyph unicode="&#x420;" horiz-adv-x="1048" d="M991 1047q0 -233 -119.5 -361.5t-343.5 -128.5q-109 0 -166 18v-575h-176v1513h324q481 1 481 -466zM803 1030q0 168 -72 253t-239 85h-130v-649q63 -18 146 -19q158 0 226.5 83t68.5 247z" />
<glyph unicode="&#x421;" d="M913 182l21 -149q-137 -57 -293 -58q-555 0 -555 770q0 795 567 795q141 0 279 -49l-31 -148q-27 14 -100.5 32t-145.5 18q-385 0 -385 -627q0 -643 375 -643q135 0 268 59z" />
<glyph unicode="&#x422;" horiz-adv-x="921" d="M958 1366h-413v-1366h-174v1366h-408v147h995v-147z" />
<glyph unicode="&#x423;" horiz-adv-x="946" d="M-33 1513h207l303 -792l305 792h195l-615 -1513h-192l217 528z" />
<glyph unicode="&#x424;" horiz-adv-x="1333" d="M756 -168h-172v270q-139 12 -240.5 70.5t-156 150t-79 192.5t-24.5 220q0 123 25.5 231.5t82 205t157 161t235.5 80.5v283h172v-281q133 -14 231 -71.5t153.5 -146.5t81 -192.5t25.5 -222.5q0 -129 -24.5 -237.5t-78.5 -204.5t-152.5 -157.5t-235.5 -78.5v-272zM256 739 q0 -449 334 -495v1022q-334 -50 -334 -527zM1077 774q0 442 -327 492v-1020q327 55 327 528z" />
<glyph unicode="&#x425;" horiz-adv-x="1007" d="M811 0l-315 645l-310 -645h-196l395 788l-367 725h211l287 -589l275 589h196l-371 -725l406 -788h-211z" />
<glyph unicode="&#x426;" horiz-adv-x="1333" d="M950 1513h174v-1368h160v-452h-147v307h-949v1513h174v-1368h588v1368z" />
<glyph unicode="&#x427;" horiz-adv-x="1189" d="M111 1513h174v-595q0 -168 68.5 -244t178.5 -76q127 0 295 125v790h174v-1513h-174v557q-10 -4 -45 -22l-46 -25q-11 -6 -40.5 -19.5t-47 -18.5l-44 -12t-52.5 -10.5t-52 -3.5q-389 0 -389 449v618z" />
<glyph unicode="&#x428;" horiz-adv-x="1708" d="M1348 1513h174v-1513h-1334v1513h174v-1368h408v1368h172v-1368h406v1368z" />
<glyph unicode="&#x429;" horiz-adv-x="1738" d="M1350 1513h174v-1368h172v-452h-150v307h-1356v1513h175v-1368h407v1368h172v-1368h406v1368z" />
<glyph unicode="&#x42a;" horiz-adv-x="1183" d="M-12 1368v145h549v-602h159q211 0 326 -118.5t115 -323.5q0 -213 -122 -341t-341 -128h-312v1368h-374zM950 465q0 305 -276 305h-137v-625h112q158 0 229.5 87.5t71.5 232.5z" />
<glyph unicode="&#x42b;" horiz-adv-x="1439" d="M1251 0h-174v1513h174v-1513zM948 469q0 -215 -118.5 -342t-335.5 -127h-306v1513h174v-602h154q209 0 320.5 -118.5t111.5 -323.5zM764 465q0 305 -268 305h-134v-625h111q152 0 221.5 87.5t69.5 232.5z" />
<glyph unicode="&#x42c;" horiz-adv-x="1017" d="M963 469q0 -213 -122 -341t-341 -128h-312v1513h174v-602h160q211 0 326 -118.5t115 -323.5zM776 465q0 305 -276 305h-138v-625h113q158 0 229.5 87.5t71.5 232.5z" />
<glyph unicode="&#x42d;" horiz-adv-x="966" d="M68 1309l-35 147q152 84 327 84q125 0 221.5 -51t153 -131t93 -190.5t49 -217t12.5 -225.5q0 -109 -18.5 -213t-60.5 -202.5t-102.5 -172.5t-152.5 -118t-203 -44q-106 0 -165.5 16.5t-155.5 63.5l35 152q135 -84 286 -84q125 0 207 93t112.5 221t30.5 282v2h-577v135 h571q-8 106 -28.5 195.5t-59.5 170.5t-105.5 126t-156.5 45q-131 0 -278 -84z" />
<glyph unicode="&#x42e;" horiz-adv-x="1656" d="M362 0h-174v1513h174v-677h218q8 135 39.5 254.5t89 224t152.5 165t220 60.5q106 0 191.5 -45t139.5 -118.5t91 -173t52.5 -203t15.5 -214.5q0 -125 -15.5 -236.5t-52.5 -219t-93 -185t-145 -125t-204 -47.5q-131 0 -228.5 62.5t-150.5 169t-77.5 224.5t-29.5 253h-213 v-682zM1386 778q0 113 -14 214.5t-47 195.5t-96.5 149.5t-151.5 55.5q-90 0 -156.5 -61.5t-100.5 -164t-48 -209t-14 -223.5q0 -119 15 -222t49 -194.5t96.5 -144.5t146.5 -53q86 0 150.5 55t100.5 150.5t53 208t17 243.5z" />
<glyph unicode="&#x42f;" horiz-adv-x="1097" d="M608 1513h301v-1513h-176v627q-117 -4 -201 10l-270 -637h-207l320 682q-260 109 -260 412q0 201 123.5 310t369.5 109zM733 770v596l-125 2q-309 6 -309 -270q0 -180 122 -257t312 -71z" />
<glyph unicode="&#x430;" horiz-adv-x="927" d="M788 0h-145l-18 106q-4 -2 -36 -25.5t-43 -30.5t-43 -25.5t-52.5 -25.5t-52 -14.5t-62.5 -7.5q-119 0 -182.5 84t-63.5 211q0 117 70.5 190t177 100.5t258.5 31.5v209q0 106 -37 149t-113 43q-109 0 -266 -77l-39 133q209 80 330 79q160 0 228.5 -82.5t68.5 -240.5v-496 q0 -96 20 -311zM598 209v276q-55 -2 -96 -5t-91.5 -15t-82 -31.5t-54 -56.5t-22.5 -86q0 -84 39 -134.5t106 -50.5q66 1 201 103z" />
<glyph unicode="&#x431;" horiz-adv-x="976" d="M649 1419q-174 0 -257 -125t-101 -395q119 111 268 111q162 0 249 -127t87 -361q0 -252 -103.5 -401.5t-293.5 -149.5q-117 0 -197 55.5t-121 159t-57.5 221t-16.5 271.5q0 436 125 660.5t412 224.5q121 0 184 14v-141q-65 -17 -178 -17zM518 872q-61 0 -125.5 -35.5 t-107.5 -91.5v-71q0 -115 7 -202t28.5 -176t66.5 -137t115 -48q104 0 158.5 112.5t54.5 294.5q0 354 -197 354z" />
<glyph unicode="&#x432;" horiz-adv-x="905" d="M829 322q0 -178 -102 -252t-301 -72l-274 2v1104l264 4q365 2 364 -283q0 -182 -155 -250l82 -10q122 -79 122 -243zM664 319q0 102 -64.5 148.5t-146.5 46.5h-140v-385h125q226 0 226 190zM616 807q0 72 -46 120t-146 48h-117v-346h99q210 0 210 178z" />
<glyph unicode="&#x433;" horiz-adv-x="763" d="M160 1104h592v-148h-418v-956h-174v1104z" />
<glyph unicode="&#x434;" horiz-adv-x="1036" d="M864 1104v-969h137v-422h-149v287h-705v-287h-147v422h100q55 45 75 131t30 281l24 557h635zM369 543q-18 -295 -95 -408h416v830h-303z" />
<glyph unicode="&#x435;" horiz-adv-x="942" d="M850 551h-584q2 -229 62.5 -333.5t201.5 -104.5q111 0 265 80l41 -134q-168 -86 -320 -86q-217 0 -312 148.5t-95 421.5q0 588 399 587q350 0 350 -464q0 -68 -8 -115zM500 1006q-207 0 -232 -340h426q2 170 -40.5 255t-153.5 85z" />
<glyph unicode="&#x436;" horiz-adv-x="1144" d="M223 1104l193 -471q43 8 71 10v461h170v-461q45 -4 80 -12l205 473h191l-275 -524q82 -55 131 -183l139 -397h-176l-114 346q-29 86 -70 121t-111 41v-508h-170v508q-72 -6 -112.5 -40t-65.5 -122l-116 -346h-170l137 397q45 125 127 183l-262 524h198z" />
<glyph unicode="&#x437;" horiz-adv-x="770" d="M717 319q0 -166 -106.5 -254t-282.5 -88q-150 0 -297 54l39 141q125 -57 256 -57q96 0 154.5 54t58.5 148q0 106 -69 162t-191 49l-105 -4l-2 125l88 2q115 4 173.5 56.5t58.5 132.5q0 68 -42 107.5t-120 39.5q-98 0 -219 -59l-52 127q154 74 301 73q139 0 227.5 -69.5 t88.5 -196.5q0 -96 -39 -151.5t-109 -94.5q189 -80 189 -297z" />
<glyph unicode="&#x438;" horiz-adv-x="1054" d="M295 0h-135v1104h164v-782l434 782h137v-1104h-164v795z" />
<glyph unicode="&#x439;" horiz-adv-x="1054" d="M295 0h-135v1104h164v-782l434 782h137v-1104h-164v795zM713 1554l127 -12q-14 -137 -92 -211t-205 -74q-121 0 -195 74t-86 211l125 12q18 -92 55 -138t107 -46q131 0 164 184z" />
<glyph unicode="&#x43a;" horiz-adv-x="901" d="M334 1104v-467q31 0 45 -2l295 469h213l-350 -500q164 -61 245 -280l123 -324h-196l-88 262q-47 139 -108.5 184.5t-178.5 51.5v-498h-174v1104h174z" />
<glyph unicode="&#x43b;" horiz-adv-x="1009" d="M854 0h-172v965h-293l-41 -512q-16 -195 -85.5 -310.5t-219.5 -173.5l-68 129q100 43 150.5 130t62.5 245l48 631h618v-1104z" />
<glyph unicode="&#x43c;" horiz-adv-x="1269" d="M1157 0h-174l-39 803l-258 -803h-102l-267 803l-45 -803h-159l71 1104h162l293 -846l289 846h162z" />
<glyph unicode="&#x43d;" horiz-adv-x="1075" d="M913 0h-174v512h-403v-512h-174v1104h174v-451h403v451h174v-1104z" />
<glyph unicode="&#x43e;" horiz-adv-x="1044" d="M106 541q0 268 104.5 428.5t324.5 160.5q403 0 403 -563q0 -274 -103.5 -434t-318.5 -160q-209 0 -309.5 154t-100.5 414zM285 549q0 -434 235 -434q240 0 240 448q0 428 -234 428q-241 0 -241 -442z" />
<glyph unicode="&#x43f;" horiz-adv-x="1075" d="M913 0h-172v965h-407v-965h-172v1104h751v-1104z" />
<glyph unicode="&#x440;" horiz-adv-x="1046" d="M166 -557v1624q193 68 362 68q412 0 412 -574q0 -260 -103.5 -425t-324.5 -165q-82 0 -172 27v-555h-174zM340 961v-801q72 -43 174 -43q246 0 246 438q0 436 -240 436q-96 1 -180 -30z" />
<glyph unicode="&#x441;" horiz-adv-x="821" d="M739 176l37 -135q-115 -61 -272 -61q-195 0 -296.5 144t-101.5 423q0 289 109 433t311 144q145 0 246 -49l-37 -145q-94 55 -200 55q-248 0 -248 -418q0 -215 65.5 -330.5t184.5 -115.5q93 0 202 55z" />
<glyph unicode="&#x442;" horiz-adv-x="755" d="M780 961h-315v-961h-172v961h-318v143h805v-143z" />
<glyph unicode="&#x443;" horiz-adv-x="886" d="M881 1104l-353 -1198q-59 -203 -154 -302.5t-263 -166.5l-64 141q127 57 199.5 136t115.5 218l33 107l-65 4l-320 1061h191l252 -940l247 940h181z" />
<glyph unicode="&#x444;" horiz-adv-x="1445" d="M809 1663v-543q82 14 147 15q113 0 196 -53.5t127 -143.5t64.5 -187.5t20.5 -202t-20.5 -199.5t-65.5 -183t-129 -141.5t-197 -53.5q-70 0 -143 45v-575h-174v545q-82 -14 -146 -15q-113 0 -195.5 53.5t-126.5 142.5t-64.5 186.5t-20.5 201.5t20.5 200.5t65.5 184.5 t129 141.5t197 53.5q66 0 141 -45v573h174zM809 954v-776q66 -61 143 -61q115 0 171.5 124t56.5 302q0 74 -11.5 145.5t-36 143t-74.5 115.5t-120 44q-59 0 -129 -37zM635 150v778q-66 61 -143 61q-115 0 -171.5 -125t-56.5 -301q0 -74 11.5 -146.5t37 -143t75.5 -114.5 t120 -44q64 0 127 35z" />
<glyph unicode="&#x445;" horiz-adv-x="876" d="M240 1104l235 -426l178 426h187l-265 -555l-28 -2l303 -547h-201l-235 424l-176 -426h-187l262 555h29l-303 551h201z" />
<glyph unicode="&#x446;" horiz-adv-x="1093" d="M748 1104h174v-959h139v-452h-148v307h-751v1104h172v-963h414v963z" />
<glyph unicode="&#x447;" horiz-adv-x="1015" d="M680 0v492q-145 -119 -287 -119q-139 0 -214 78.5t-75 287.5v365h175v-352q0 -131 37.5 -179.5t125.5 -48.5q109 0 238 111v469h174v-1104h-174z" />
<glyph unicode="&#x448;" horiz-adv-x="1484" d="M1161 1104h174v-1104h-1183v1104h172v-965h331v965h174v-965h332v965z" />
<glyph unicode="&#x449;" horiz-adv-x="1507" d="M1161 1104h174v-959h148v-452h-152v307h-1179v1104h172v-965h331v965h174v-965h332v965z" />
<glyph unicode="&#x44a;" horiz-adv-x="937" d="M-14 967v137h448v-393q45 6 84 6q215 0 313.5 -99.5t98.5 -257.5q0 -66 -20.5 -126t-66.5 -117.5t-135.5 -91t-209.5 -33.5q-129 0 -238 12v963h-274zM514 580q-23 0 -80 -5v-446q29 -2 78 -2q125 0 180.5 66.5t55.5 166.5q-1 220 -234 220z" />
<glyph unicode="&#x44b;" horiz-adv-x="1249" d="M336 1104v-391q53 4 76 4q207 0 300 -98.5t93 -258.5q0 -66 -20.5 -126t-64.5 -117.5t-128 -91t-199 -33.5q-129 0 -231 12v1100h174zM1096 0h-176v1104h176v-1104zM406 580q-20 0 -70 -5v-446q27 -2 70 -2q117 0 169 67.5t52 165.5q0 220 -221 220z" />
<glyph unicode="&#x44c;" horiz-adv-x="856" d="M336 1104v-393q45 6 84 6q215 0 313 -99.5t98 -257.5q0 -66 -20 -126t-66.5 -117.5t-135.5 -91t-210 -33.5q-129 0 -237 12v1100h174zM416 580q-23 0 -80 -5v-446q29 -2 78 -2q125 0 180 66.5t55 166.5q0 220 -233 220z" />
<glyph unicode="&#x44d;" horiz-adv-x="800" d="M98 932l-37 139q117 63 256 64q395 0 396 -586q0 -283 -110.5 -429.5t-305.5 -146.5q-150 0 -242 54l33 147q96 -59 213 -59q221 0 227 391h-376v137h372q-18 348 -213 348q-119 0 -213 -59z" />
<glyph unicode="&#x44e;" horiz-adv-x="1372" d="M332 0h-172v1104h172v-471h174q16 225 114.5 363.5t276.5 138.5q197 0 289 -162t92 -404q0 -262 -100.5 -430t-292.5 -168q-180 0 -276.5 143.5t-106.5 377.5h-170v-492zM680 549q0 -195 53 -314.5t156 -119.5q72 0 120 64.5t68.5 161.5t20.5 222q0 193 -49.5 310.5 t-153.5 117.5q-109 0 -162 -120.5t-53 -321.5z" />
<glyph unicode="&#x44f;" horiz-adv-x="925" d="M94 756q0 55 16.5 109.5t56.5 111.5t123 92t199 35h279v-1104h-172v418q-104 0 -166 12l-164 -430h-190l211 471q-193 82 -193 285zM270 766q0 -113 78 -162t248 -47v408h-117q-111 0 -160 -55.5t-49 -143.5z" />
<glyph unicode="&#x450;" horiz-adv-x="942" d="M850 551h-584q2 -229 62.5 -333.5t201.5 -104.5q111 0 265 80l41 -134q-168 -86 -320 -86q-217 0 -312 148.5t-95 421.5q0 588 399 587q350 0 350 -464q0 -68 -8 -115zM500 1006q-207 0 -232 -340h426q2 170 -40.5 255t-153.5 85zM264 1540l156 84l192 -319l-114 -56z " />
<glyph unicode="&#x451;" horiz-adv-x="942" d="M850 551h-584q2 -229 62.5 -333.5t201.5 -104.5q111 0 265 80l41 -134q-168 -86 -320 -86q-217 0 -312 148.5t-95 421.5q0 588 399 587q350 0 350 -464q0 -68 -8 -115zM500 1006q-207 0 -232 -340h426q2 170 -40.5 255t-153.5 85zM408 1434q0 -47 -30 -78t-73 -31 q-49 0 -79.5 29.5t-30.5 79.5q0 51 30.5 81.5t79.5 30.5q43 0 73 -31.5t30 -80.5zM807 1433.5q0 -49.5 -31 -79t-80 -29.5q-43 0 -72.5 29.5t-29.5 79t28.5 81t73.5 31.5q47 0 79 -31.5t32 -81z" />
<glyph unicode="&#x452;" horiz-adv-x="1052" d="M618 1319h-280v-332q193 147 315 148q66 0 114 -21.5t88 -76t59.5 -161t19.5 -264.5q0 -254 -53.5 -453.5t-132 -328.5t-211.5 -276l-111 96q82 106 131 183t101.5 192.5t76 256t23.5 318.5q0 215 -35 298t-135 83q-96 0 -250 -145v-836h-174v1319h-105v123h105v223h174 v-223h280v-123z" />
<glyph unicode="&#x453;" horiz-adv-x="763" d="M160 1104h592v-148h-418v-956h-174v1104zM375 1294l190 332l137 -78l-225 -305z" />
<glyph unicode="&#x454;" horiz-adv-x="804" d="M705 174l34 -141q-119 -59 -254 -60q-395 0 -395 582q0 285 109.5 432.5t306.5 147.5q141 0 239 -54l-32 -147q-90 59 -213 59q-211 0 -228 -358h377v-135h-377q8 -193 58.5 -289t156.5 -96q124 0 218 59z" />
<glyph unicode="&#x455;" horiz-adv-x="780" d="M426 1137q102 0 244 -47l-33 -142q-117 49 -192.5 49t-119.5 -38.5t-44 -108.5q0 -63 44 -114.5t107 -92.5l127 -86q63 -45 107.5 -118.5t44.5 -170.5q0 -147 -92.5 -222t-239.5 -75q-162 0 -299 64l43 145q123 -72 239 -71q82 0 126 42t44 113q0 66 -44 120t-107 96 l-127 87q-63 45 -107.5 115t-44.5 158q0 141 92.5 219t231.5 78z" />
<glyph unicode="&#x456;" horiz-adv-x="495" d="M336 0h-176v1104h176v-1104zM360 1460q0 -51 -32.5 -84t-79.5 -33q-49 0 -80 33t-31 84t32 85t79 34t79.5 -34t32.5 -85z" />
<glyph unicode="&#x457;" horiz-adv-x="495" d="M336 0h-176v1104h176v-1104zM150 1434q0 -47 -30 -78t-73 -31q-49 0 -79.5 29.5t-30.5 79.5q0 51 30.5 81.5t79.5 30.5q43 0 73 -31.5t30 -80.5zM549 1433.5q0 -49.5 -31 -79t-80 -29.5q-43 0 -72.5 29.5t-29.5 79t28.5 81t73.5 31.5q47 0 79 -31.5t32 -81z" />
<glyph unicode="&#x458;" horiz-adv-x="495" d="M162 1104h174v-1073q0 -240 -80 -347.5t-311 -158.5l-33 141q94 25 144 56.5t78 103.5t28 194v1084zM362 1460q0 -51 -32.5 -84t-79.5 -33q-49 0 -80 33t-31 84t32 85t79 34t79.5 -34t32.5 -85z" />
<glyph unicode="&#x459;" horiz-adv-x="1327" d="M827 1104v-393q43 6 80 6q211 0 307.5 -99.5t96.5 -257.5q0 -66 -20.5 -126t-65.5 -117.5t-131 -91t-205 -33.5q-127 0 -236 12v961h-268l-39 -519q-14 -190 -88 -303.5t-227 -167.5l-47 140q100 39 143 119.5t55 242.5l47 627h598zM903 580q-18 0 -76 -5v-446 q29 -2 74 -2q121 0 175 67.5t54 165.5q0 220 -227 220z" />
<glyph unicode="&#x45a;" horiz-adv-x="1353" d="M852 1104v-426q57 4 82 4q209 0 305 -93t96 -247q0 -61 -20.5 -118.5t-65.5 -113t-132 -88t-206 -32.5q-31 0 -115 5l-120 7v530h-340v-532h-176v1104h176v-428h340v428h176zM928 549q-10 0 -36 -1t-40 -1v-424q29 -2 76 -2q119 0 171 63.5t52 157.5q0 98 -50 152.5 t-173 54.5z" />
<glyph unicode="&#x45b;" horiz-adv-x="1083" d="M926 0h-174v754q0 223 -140 223q-115 0 -272 -143v-834h-174v1665h174l-6 -684q184 150 342 149q250 0 250 -348v-782zM541 1853h-559v123h559v-123z" />
<glyph unicode="&#x45c;" horiz-adv-x="901" d="M334 1104v-467q31 0 45 -2l295 469h213l-350 -500q164 -61 245 -280l123 -324h-196l-88 262q-47 139 -108.5 184.5t-178.5 51.5v-498h-174v1104h174zM432 1294l191 332l137 -78l-225 -305z" />
<glyph unicode="&#x45d;" horiz-adv-x="1054" d="M295 0h-135v1104h164v-782l434 782h137v-1104h-164v795zM336 1540l156 84l192 -319l-115 -56z" />
<glyph unicode="&#x45e;" horiz-adv-x="886" d="M881 1104l-353 -1198q-59 -203 -154 -302.5t-263 -166.5l-64 141q127 57 199.5 136t115.5 218l33 107l-65 4l-320 1061h191l252 -940l247 940h181zM625 1554l127 -12q-14 -137 -92 -211t-205 -74q-121 0 -195 74t-86 211l125 12q18 -92 55 -138t107 -46q131 0 164 184z " />
<glyph unicode="&#x45f;" horiz-adv-x="1081" d="M748 1104h174v-1104h-304v-307h-149v307h-307v1104h172v-963h414v963z" />
<glyph unicode="&#x490;" horiz-adv-x="888" d="M190 1513h586v273h152v-273h2v-145h-565v-1368h-175v1513z" />
<glyph unicode="&#x491;" horiz-adv-x="761" d="M162 1104h434v291h156v-291h2v-148h-418v-956h-174v1104z" />
<glyph unicode="&#x492;" horiz-adv-x="940" d="M242 1513h739v-145h-565v-537h342v-143h-342v-688h-174v688h-232v143h232v682z" />
<glyph unicode="&#x493;" horiz-adv-x="761" d="M162 1104h592v-148h-418v-333h219v-146h-219v-477h-174v477h-146v146h146v481z" />
<glyph unicode="&#x496;" horiz-adv-x="1394" d="M770 1513v-659q43 -2 111 -10l290 669h201l-358 -714q109 -61 166 -226l141 -428h133v-452h-149v307h-125v6l-160 514q-37 119 -91.5 154t-158.5 37v-711h-172v711q-100 -2 -154.5 -38t-89.5 -153l-166 -520h-178l189 573q55 168 168 230l-344 710h204l277 -667 q33 4 94 8v659h172z" />
<glyph unicode="&#x497;" horiz-adv-x="1144" d="M659 1104v-461q45 -4 80 -12l205 473h191l-275 -524q82 -55 131 -183l88 -252h144v-452h-150v307h-119l-114 346q-29 86 -70 121t-111 41v-508h-170v508q-72 -6 -112.5 -40t-65.5 -122l-116 -346h-170l137 397q45 125 127 183l-262 524h198l193 -471q43 8 71 10v461h170z " />
<glyph unicode="&#x49a;" horiz-adv-x="1097" d="M365 1513v-659q39 0 57 -2l432 661h227l-489 -688q123 -35 209 -125t145 -260l109 -295h190v-452h-147v307h-201l-125 377q-35 104 -74 169.5t-90 100.5t-106.5 47.5t-136.5 14.5v-709h-175v1513h175z" />
<glyph unicode="&#x49b;" horiz-adv-x="901" d="M336 1104v-467q31 0 45 -2l295 469h213l-350 -500q164 -61 245 -280l68 -179h143v-452h-151v307h-133l-88 262q-47 139 -108.5 184.5t-178.5 51.5v-498h-174v1104h174z" />
<glyph unicode="&#x4a2;" horiz-adv-x="1337" d="M1288 -307h-149v307h-183v723h-591v-723h-177v1513h177v-645h591v645h177v-1368h155v-452z" />
<glyph unicode="&#x4a3;" horiz-adv-x="1075" d="M1065 -307h-152v307h-174v512h-403v-512h-174v1104h174v-451h403v451h174v-959h152v-452z" />
<glyph unicode="&#x4ae;" horiz-adv-x="974" d="M1006 1513l-431 -1017v-496h-174v492l-434 1021h199l326 -837l331 837h183z" />
<glyph unicode="&#x4af;" horiz-adv-x="811" d="M829 1104l-337 -1036v-627h-170v627l-342 1036h194l238 -842l243 842h174z" />
<glyph unicode="&#x4b0;" horiz-adv-x="974" d="M866 496h-291v-496h-174v492l-2 4h-290v141h229l-371 876h199l326 -837l331 837h183l-371 -876h231v-141z" />
<glyph unicode="&#x4b1;" horiz-adv-x="811" d="M735 2h-243v-561h-170v561h-306v139h281l-317 963h194l238 -842l243 842h174l-315 -963h221v-139z" />
<glyph unicode="&#x4b2;" horiz-adv-x="1003" d="M1108 -307h-150v307h-147l-315 645l-310 -645h-196l395 788l-367 725h211l287 -589l275 589h196l-371 -725l330 -643h162v-452z" />
<glyph unicode="&#x4b3;" horiz-adv-x="854" d="M240 1104l235 -426l178 426h187l-265 -555l-28 -2l223 -402h172v-452h-147v307h-146l-235 424l-176 -426h-187l262 555h29l-303 551h201z" />
<glyph unicode="&#x4b6;" horiz-adv-x="1200" d="M113 1513h174v-595q0 -168 68.5 -244t179.5 -76q127 0 294 125v790h175v-1368h180v-452h-150v307h-205v557q-10 -4 -45 -22l-46 -25q-11 -6 -40.5 -19.5t-47 -18.5l-44 -12t-52.5 -10.5t-52 -3.5q-389 0 -389 449v618z" />
<glyph unicode="&#x4b7;" horiz-adv-x="1015" d="M279 1104v-352q0 -131 37.5 -179.5t125.5 -48.5q109 0 238 111v469h174v-959h176v-452h-149v307h-201v492q-145 -119 -287 -119q-139 0 -214 78.5t-75 287.5v365h175z" />
<glyph unicode="&#x4ba;" horiz-adv-x="1210" d="M1081 -2h-174v596q0 168 -68.5 243.5t-179.5 75.5q-127 0 -294 -125v-790h-175v1513h175v-557q10 4 45 23l46 24q11 6 40.5 19.5t47 18.5l44 12.5t52.5 10.5t52 3q389 0 389 -449v-618z" />
<glyph unicode="&#x4bb;" horiz-adv-x="1083" d="M926 0h-174v754q0 223 -140 223q-115 0 -272 -143v-834h-174v1665h174l-6 -684q184 150 342 149q250 0 250 -348v-782z" />
<glyph unicode="&#x4c0;" horiz-adv-x="552" d="M362 0h-172v1513h172v-1513z" />
<glyph unicode="&#x4cf;" horiz-adv-x="516" d="M346 0h-176v1663h176v-1663z" />
<glyph unicode="&#x4d8;" horiz-adv-x="1261" d="M111 629q0 57 8 108h878q0 293 -101 475.5t-314 182.5q-184 0 -383 -140l-58 142q127 74 229.5 108.5t231.5 34.5q131 0 233.5 -45t166 -118.5t103.5 -180t55.5 -219.5t15.5 -244q-2 -344 -144.5 -554t-406.5 -210q-256 0 -387 185.5t-127 474.5zM639 113q150 0 241 134 t111 361h-700q-4 -219 88 -357t260 -138z" />
<glyph unicode="&#x4d9;" horiz-adv-x="942" d="M84 438q0 68 8 115h584q-4 229 -63.5 333.5t-200.5 104.5q-111 0 -265 -80l-41 133q168 86 320 86q217 0 312.5 -148t95.5 -421q0 -588 -400 -588q-350 0 -350 465zM442 98q207 0 230 340h-424q-2 -170 40.5 -255t153.5 -85z" />
<glyph unicode="&#x4e2;" horiz-adv-x="1341" d="M326 0h-136v1513h175v-1151l651 1151h135v-1513h-174v1159zM965 1704h-559v123h559v-123z" />
<glyph unicode="&#x4e3;" horiz-adv-x="1054" d="M295 0h-135v1104h164v-782l434 782h137v-1104h-164v795zM809 1294h-559v123h559v-123z" />
<glyph unicode="&#x4e8;" horiz-adv-x="1284" d="M1188 786q0 -813 -565 -813q-532 0 -533 754q0 162 27.5 299t90 257t176.5 188.5t269 68.5q150 0 257.5 -61.5t166 -171t85 -238.5t26.5 -283zM631 119q350 0 370 571h-729q11 -571 359 -571zM643 1395q-346 0 -369 -561h727q-16 561 -358 561z" />
<glyph unicode="&#x4e9;" horiz-adv-x="999" d="M84 543q0 256 110.5 421.5t315.5 165.5q141 0 235.5 -81.5t132 -203.5t37.5 -276q0 -260 -108.5 -428t-310.5 -168q-199 0 -305.5 160t-106.5 410zM500 106q106 0 167.5 106.5t73.5 276.5h-481q10 -174 70.5 -278.5t169.5 -104.5zM506 999q-109 0 -171.5 -102t-72.5 -276 h479q-8 170 -68.5 274t-166.5 104z" />
<glyph unicode="&#x4ee;" horiz-adv-x="946" d="M-33 1513h207l303 -792l305 792h195l-615 -1513h-192l217 528zM760 1704h-559v123h559v-123z" />
<glyph unicode="&#x4ef;" horiz-adv-x="886" d="M881 1104l-353 -1198q-59 -203 -154 -302.5t-263 -166.5l-64 141q127 57 199.5 136t115.5 218l33 107l-65 4l-320 1061h191l252 -940l247 940h181zM739 1294h-559v123h559v-123z" />
<glyph unicode="&#x1e80;" horiz-adv-x="1562" d="M1528 1513l-256 -1513h-137l-355 1217l-356 -1217h-137l-254 1513h186l174 -1177l326 1177h139l326 -1177l176 1177h168zM563 1939l156 84l192 -317l-114 -55z" />
<glyph unicode="&#x1e81;" horiz-adv-x="1355" d="M1311 1104l-254 -1104h-119l-258 856l-260 -856h-119l-262 1104h178l168 -825l240 825h118l242 -823l158 823h168zM444 1540l156 84l193 -319l-115 -56z" />
<glyph unicode="&#x1e82;" horiz-adv-x="1562" d="M1528 1513l-256 -1513h-137l-355 1217l-356 -1217h-137l-254 1513h186l174 -1177l326 1177h139l326 -1177l176 1177h168zM672 1696l188 329l139 -79l-225 -301z" />
<glyph unicode="&#x1e83;" horiz-adv-x="1355" d="M1311 1104l-254 -1104h-119l-258 856l-260 -856h-119l-262 1104h178l168 -825l240 825h118l242 -823l158 823h168zM594 1294l190 332l138 -78l-226 -305z" />
<glyph unicode="&#x1e84;" horiz-adv-x="1562" d="M1528 1513l-256 -1513h-137l-355 1217l-356 -1217h-137l-254 1513h186l174 -1177l326 1177h139l326 -1177l176 1177h168zM692 1767.5q0 -49.5 -31.5 -80t-76.5 -30.5q-51 0 -83 30.5t-32 80t33 82t82 32.5q47 0 77.5 -32.5t30.5 -82zM1106 1767.5q0 -49.5 -34 -80 t-85 -30.5q-43 0 -75.5 31.5t-32.5 78.5q0 49 31.5 82t76.5 33q51 0 85 -32.5t34 -82z" />
<glyph unicode="&#x1e85;" horiz-adv-x="1355" d="M1311 1104l-254 -1104h-119l-258 856l-260 -856h-119l-262 1104h178l168 -825l240 825h118l242 -823l158 823h168zM590 1434q0 -47 -30 -78t-73 -31q-49 0 -79.5 29.5t-30.5 79.5q0 51 30.5 81.5t79.5 30.5q43 0 73 -31.5t30 -80.5zM989 1433.5q0 -49.5 -30.5 -79 t-79.5 -29.5q-43 0 -73 29.5t-30 79t29 81t74 31.5q47 0 78.5 -31.5t31.5 -81z" />
<glyph unicode="&#x1ef2;" horiz-adv-x="974" d="M1006 1513l-431 -1017v-496h-174v492l-434 1021h199l326 -837l331 837h183zM268 1939l156 84l192 -317l-114 -55z" />
<glyph unicode="&#x1ef3;" horiz-adv-x="890" d="M885 1104l-353 -1198q-59 -203 -154 -302.5t-263 -166.5l-64 141q127 57 200 136t116 218l32 107l-65 4l-320 1061h191l252 -940l248 940h180zM219 1540l156 84l192 -319l-114 -56z" />
<glyph unicode="&#x2000;" horiz-adv-x="1087" />
<glyph unicode="&#x2001;" horiz-adv-x="2174" />
<glyph unicode="&#x2002;" horiz-adv-x="1087" />
<glyph unicode="&#x2003;" horiz-adv-x="2174" />
<glyph unicode="&#x2004;" horiz-adv-x="724" />
<glyph unicode="&#x2005;" horiz-adv-x="542" />
<glyph unicode="&#x2006;" horiz-adv-x="362" />
<glyph unicode="&#x2007;" horiz-adv-x="362" />
<glyph unicode="&#x2008;" horiz-adv-x="270" />
<glyph unicode="&#x2009;" horiz-adv-x="434" />
<glyph unicode="&#x200a;" horiz-adv-x="120" />
<glyph unicode="&#x2010;" horiz-adv-x="755" d="M645 596h-541v145h541v-145z" />
<glyph unicode="&#x2011;" horiz-adv-x="755" d="M645 596h-541v145h541v-145z" />
<glyph unicode="&#x2012;" horiz-adv-x="755" d="M645 596h-541v145h541v-145z" />
<glyph unicode="&#x2013;" horiz-adv-x="1144" d="M1034 596h-930v145h930v-145z" />
<glyph unicode="&#x2014;" horiz-adv-x="1730" d="M1620 596h-1516v145h1516v-145z" />
<glyph unicode="&#x2017;" horiz-adv-x="839" d="M852 -125h-864v125h864v-125zM852 -375h-864v123h864v-123z" />
<glyph unicode="&#x2018;" horiz-adv-x="358" d="M289 1755l106 -90q-100 -119 -100 -223q0 -39 26.5 -81t26.5 -83t-27.5 -68.5t-72.5 -27.5q-61 0 -97 55t-36 143q0 185 174 375z" />
<glyph unicode="&#x2019;" horiz-adv-x="358" d="M131 1135l-106 90q100 119 100 223q0 39 -26.5 81t-26.5 83t27.5 68.5t72.5 27.5q61 0 97 -55.5t36 -143.5q0 -184 -174 -374z" />
<glyph unicode="&#x201a;" horiz-adv-x="428" d="M172 -336l-106 90q100 119 100 223q0 39 -26.5 81t-26.5 83t27.5 69t72.5 28q61 0 97 -55.5t36 -143.5q0 -185 -174 -375z" />
<glyph unicode="&#x201b;" horiz-adv-x="335" d="M8 1688l107 90q174 -190 174 -375q0 -88 -36 -143.5t-97 -55.5q-45 0 -73 28t-28 68.5t27 82.5t27 81q-1 105 -101 224z" />
<glyph unicode="&#x201c;" horiz-adv-x="712" d="M289 1755l106 -90q-100 -119 -100 -223q0 -39 26.5 -81t26.5 -83t-27.5 -68.5t-72.5 -27.5q-61 0 -97 55t-36 143q0 185 174 375zM678 1755l106 -90q-100 -119 -100 -223q0 -39 26.5 -81t26.5 -83t-27.5 -68.5t-72.5 -27.5q-61 0 -97 55t-36 143q0 185 174 375z" />
<glyph unicode="&#x201d;" horiz-adv-x="712" d="M131 1135l-106 90q100 119 100 223q0 39 -26.5 81t-26.5 83t27.5 68.5t72.5 27.5q61 0 97 -55.5t36 -143.5q0 -184 -174 -374zM522 1135l-106 90q100 119 100 223q0 39 -26.5 81t-26.5 83t27.5 68.5t72.5 27.5q61 0 97 -55.5t36 -143.5q0 -184 -174 -374z" />
<glyph unicode="&#x201e;" horiz-adv-x="782" d="M172 -334l-106 90q100 119 100 224q0 39 -26.5 80.5t-26.5 82.5t27.5 69t72.5 28q61 0 97 -55.5t36 -143.5q0 -185 -174 -375zM563 -334l-106 90q100 119 100 224q0 39 -26.5 80.5t-26.5 82.5t27.5 69t72.5 28q61 0 97 -55.5t36 -143.5q0 -185 -174 -375z" />
<glyph unicode="&#x2020;" horiz-adv-x="884" d="M819 969h-297v-969h-160v969h-299v135h299v407h160v-407h297v-135z" />
<glyph unicode="&#x2021;" horiz-adv-x="884" d="M819 438h-297v-438h-160v438h-299v131h299v420h-299v131h299v393h160v-393h297v-131h-297v-420h297v-131z" />
<glyph unicode="&#x2022;" horiz-adv-x="638" d="M33 702q0 127 82 216.5t198 89.5q119 0 203 -89.5t84 -216.5q0 -125 -84 -214t-203 -89q-117 0 -198.5 88t-81.5 215z" />
<glyph unicode="&#x2026;" horiz-adv-x="1216" d="M338 92q0 -51 -34 -86t-81 -35q-51 0 -85 35t-34 86t35 86t84 35q47 0 81 -35t34 -86zM772 92q0 -51 -33.5 -86t-81.5 -35q-51 0 -84.5 35t-33.5 86t34.5 86t83.5 35q47 0 81 -35t34 -86zM1206 92q0 -51 -33.5 -86t-80.5 -35q-51 0 -85 35t-34 86t34.5 86t84.5 35 q47 0 80.5 -35t33.5 -86z" />
<glyph unicode="&#x202f;" horiz-adv-x="434" />
<glyph unicode="&#x2030;" horiz-adv-x="1886" d="M1145 1208l-926 -1095l-98 104l926 1098zM602 1126q0 -119 -71.5 -210t-194.5 -91q-121 0 -189.5 88t-68.5 213q0 113 66.5 205t197.5 92q123 0 191.5 -79t68.5 -218zM463 1126q0 76 -35 123t-88 47q-61 0 -91 -52t-30 -118q0 -74 31 -124t90 -50q61 0 92 51t31 123z M1182 272q0 -119 -69 -210t-193 -91q-121 0 -192 88t-71 213q0 113 67 205t198 92q125 0 192.5 -78t67.5 -219zM1042 272q0 78 -33.5 124t-88.5 46q-61 0 -91 -51t-30 -119q0 -74 30.5 -123t90.5 -49q61 0 91.5 51t30.5 121zM1802 272q0 -121 -68.5 -211t-193.5 -90 q-121 0 -191.5 88t-70.5 213q0 113 66.5 205t197.5 92q125 0 192.5 -78t67.5 -219zM1663 272q0 78 -34 124t-89 46q-61 0 -90 -51t-29 -119q0 -74 30 -123t89 -49q63 0 93 50t30 122z" />
<glyph unicode="&#x2039;" horiz-adv-x="653" d="M543 965l-236 -408l236 -401l-137 -62l-316 463l316 463z" />
<glyph unicode="&#x203a;" horiz-adv-x="653" d="M350 557l-239 404l135 59l317 -463l-319 -461l-133 56z" />
<glyph unicode="&#x2044;" horiz-adv-x="264" d="M633 1403l-905 -1350l-111 101l909 1353z" />
<glyph unicode="&#x205f;" horiz-adv-x="542" />
<glyph unicode="&#x20ac;" horiz-adv-x="1036" d="M805 862h-404q-2 -33 -2 -102q0 -47 2 -70h404v-131h-395q25 -209 101.5 -325.5t209.5 -116.5q98 0 219 63l45 -143q-154 -66 -278 -66q-217 0 -337 158t-149 430h-131v131h121v58q0 76 2 114h-123v135h137q39 248 160 395.5t336 147.5q123 0 250 -59l-47 -148 q-100 59 -195 60q-260 0 -317 -396h391v-135z" />
<glyph unicode="&#x20b4;" horiz-adv-x="970" d="M846 549l-496 20q-68 -94 -67 -211q0 -119 65.5 -182t169.5 -63q170 0 332 98l43 -139q-188 -98 -391 -99q-168 0 -277.5 91.5t-109.5 285.5q0 129 51 225l-76 5l8 114l148 -6q55 59 213 176l-357 15l9 112l475 -18q94 100 94 221q0 90 -50 148.5t-159 58.5 q-131 0 -256 -66l-39 138q160 68 305 67q164 0 263.5 -79t99.5 -253q0 -135 -72 -243l94 -2l-6 -115l-186 6q-39 -35 -115 -92t-104 -82l397 -16z" />
<glyph unicode="&#x2116;" horiz-adv-x="1699" d="M1649 1204q0 -61 -12.5 -118.5t-40 -115t-85 -92t-135.5 -34.5q-66 0 -116 26.5t-78.5 65.5t-46 91t-22.5 93t-5 82q0 45 7 89t25.5 93.5t48.5 86t80 61t113 24.5q80 0 136.5 -35.5t83 -93t37 -112t10.5 -111.5zM1505 1194q0 51 -9 98t-41 90t-81 43q-123 0 -123 -217 q0 -37 5.5 -71.5t17.5 -74.5t38.5 -64.5t65.5 -24.5q68 0 97.5 66.5t29.5 154.5zM1649 580h-529v147h529v-147zM991 0h-147l-475 1133v-1133h-158v1513h149l474 -1112v1112h157v-1513z" />
<glyph unicode="&#x2122;" horiz-adv-x="1417" d="M569 1550h-219v-731h-131v731h-221v113h571v-113zM1350 821h-136l-26 615l-195 -615h-69l-199 613l-33 -613h-123l49 842h130l213 -641l215 641h122z" />
<glyph unicode="&#x212e;" horiz-adv-x="1318" d="M1227 772h-934q-2 -188 43 -331.5t150.5 -234.5t263.5 -91q195 0 407 137l57 -139q-131 -74 -237.5 -109t-245.5 -35t-247.5 45t-177 119t-114 180.5t-62.5 220t-15 244.5q2 342 151.5 552t427.5 210q270 0 408.5 -185.5t136.5 -475.5q0 -48 -12 -107zM682 1395 q-162 0 -262.5 -133.5t-122.5 -360.5h762q4 219 -96.5 356.5t-280.5 137.5z" />
<glyph unicode="&#x215b;" horiz-adv-x="1372" d="M815 213q0 129 131 231q-109 80 -108 205q0 100 65.5 157.5t157.5 57.5q94 0 161.5 -56t67.5 -155q0 -125 -106 -215q129 -88 129 -219q0 -119 -72 -177t-178 -58q-111 0 -179.5 57t-68.5 172zM1180 1403l-906 -1350l-110 101l909 1353zM383 672h-145l2 690l-187 -107 l-41 105l254 172h117v-860zM1171 221q0 51 -33.5 86t-101.5 76q-82 -74 -82 -164q0 -57 32 -91t77 -34q49 0 78.5 34t29.5 93zM973 649q0 -47 27.5 -79.5t80.5 -67.5q74 70 74 141q0 51 -25.5 82t-66.5 31q-39 0 -64.5 -30t-25.5 -77z" />
<glyph unicode="&#x215c;" horiz-adv-x="1388" d="M834 213q0 127 129 231q-109 82 -109 205q0 100 66.5 157.5t158.5 57.5q94 0 162 -56t68 -155q0 -119 -105 -215q127 -88 127 -219q0 -119 -71.5 -177t-178.5 -58q-109 0 -178 57t-69 172zM1200 1403l-905 -1350l-111 101l910 1353zM502 926q0 -133 -81 -202t-222 -69 q-84 0 -168 25l30 121q76 -29 134 -29q70 0 112.5 38t42.5 110q0 150 -174 149h-70l-2 102h46q68 0 117.5 37t49.5 107q0 47 -27.5 73.5t-74.5 26.5q-61 0 -133 -39l-39 109q109 51 205 51q100 0 163.5 -50t63.5 -147q0 -127 -108 -196q135 -51 135 -217zM1190 221 q0 51 -34 86t-101 78q-82 -82 -82 -166q0 -57 31.5 -91t76.5 -34q49 0 79 34t30 93zM991 649q0 -78 107 -147q76 68 76 141q0 51 -26 82t-67 31q-39 0 -64.5 -30t-25.5 -77z" />
<glyph unicode="&#x215d;" horiz-adv-x="1429" d="M872 213q0 121 129 233q-106 80 -106 203q0 100 66.5 157.5t158.5 57.5t160 -56t68 -155q0 -125 -107 -215q131 -88 131 -219q0 -119 -72.5 -177t-177.5 -58q-111 0 -180.5 57t-69.5 172zM1225 1403l-906 -1350l-110 101l909 1353zM197 1405l-11 -197q31 6 62 6 q113 0 180.5 -65.5t67.5 -192.5q0 -145 -80 -223t-226 -78q-104 0 -172 25l25 117q70 -25 135 -25q168 0 168 178q0 160 -160 160q-39 0 -129 -23l27 433h383v-115h-270zM1231 221q0 51 -34 87t-103 77q-84 -84 -84 -166q0 -57 32.5 -91t79.5 -34q49 0 79 34t30 93z M1030 649q0 -47 27.5 -79.5t81.5 -67.5q76 72 75 141q0 49 -26.5 81t-65.5 32t-65.5 -30t-26.5 -77z" />
<glyph unicode="&#x215e;" horiz-adv-x="1269" d="M713 213q0 125 129 233q-106 80 -107 203q0 100 64.5 157.5t161.5 57.5q94 0 161.5 -56t67.5 -155q0 -117 -109 -213q131 -88 131 -221q0 -119 -72.5 -177t-178.5 -58q-111 0 -179.5 57t-68.5 172zM1063 1403l-905 -1350l-111 101l909 1353zM305 1401h-307v119h459 l12 -86l-276 -762h-158zM1071 221q0 51 -33.5 87t-103.5 77q-84 -84 -84 -166q0 -57 31.5 -91t79 -34t79 34t31.5 93zM870 649q0 -47 28 -79.5t81 -67.5q76 68 76 141q0 51 -27 82t-67 31q-37 0 -64 -30t-27 -77z" />
<glyph unicode="&#x2190;" horiz-adv-x="1746" d="M670 256l-86 -117l-533 488v114l533 484l86 -117l-400 -352h1297v-148h-1297z" />
<glyph unicode="&#x2191;" horiz-adv-x="1091" d="M199 868l-111 88l401 654h109l399 -654l-108 -88l-273 475v-1587h-147v1581z" />
<glyph unicode="&#x2192;" horiz-adv-x="1624" d="M948 1108l86 115l533 -486v-114l-533 -484l-86 117l400 352h-1297v148h1297z" />
<glyph unicode="&#x2193;" horiz-adv-x="1091" d="M889 494l108 -86l-399 -652h-111l-399 652l111 86l270 -469v1585h147v-1592z" />
<glyph unicode="&#x2194;" horiz-adv-x="1681" d="M1006 1108l84 115l532 -486v-114l-532 -484l-84 117l401 352h-1133l402 -352l-86 -117l-533 486v114l533 484l86 -115l-402 -352h1133z" />
<glyph unicode="&#x2195;" horiz-adv-x="1091" d="M199 868l-111 88l401 654h109l399 -654l-108 -88l-273 475v-1404l273 475l108 -86l-399 -654h-111l-399 654l111 86l270 -469v1392z" />
<glyph unicode="&#x2202;" horiz-adv-x="1048" d="M225 1456l-14 139q63 12 131 13q268 0 417.5 -225.5t149.5 -598.5q0 -371 -118.5 -591t-335.5 -220q-176 0 -276.5 134.5t-100.5 322.5q0 215 110.5 349t307.5 134q123 0 231 -63q-4 119 -25.5 220t-64.5 194.5t-121 147.5t-184 54q-50 0 -107 -10zM506 774 q-119 0 -188.5 -91t-69.5 -245q0 -127 57 -223t156 -96q125 0 191.5 156.5t74.5 429.5q-110 69 -221 69z" />
<glyph unicode="&#x220f;" horiz-adv-x="1183" d="M1178 1366h-203v-1673h-168v1673h-430v-1673h-174v1673h-199v147h1174v-147z" />
<glyph unicode="&#x2211;" horiz-adv-x="995" d="M963 -307h-904l-16 123l457 792l-420 778l18 125h803v-143h-608l412 -758l-443 -774h701v-143z" />
<glyph unicode="&#x2212;" horiz-adv-x="999" d="M899 512h-801v147h801v-147z" />
<glyph unicode="&#x221a;" horiz-adv-x="753" d="M96 963h-162v141h291l92 -574l187 1258h567l-2 -143l-422 -3l-219 -1345l-201 -2z" />
<glyph unicode="&#x221e;" horiz-adv-x="1634" d="M1198 27q-242 0 -387 309q-160 -303 -375 -303q-158 0 -257 137t-99 344q0 209 99.5 349.5t256.5 140.5q242 0 387 -310q162 309 375 310q162 0 258 -138.5t96 -355.5q0 -207 -98 -345t-256 -138zM233 514q0 -145 57.5 -239.5t151.5 -94.5q98 0 166 80t135 250 q-68 182 -137 262t-164 80q-96 0 -152.5 -94t-56.5 -244zM1399 509.5q0 149.5 -55.5 245t-153.5 95.5q-94 0 -160.5 -80t-136.5 -250q70 -188 133.5 -266t163.5 -78q98 0 153.5 92t55.5 241.5z" />
<glyph unicode="&#x222b;" horiz-adv-x="593" d="M670 1810l-23 -143q-72 20 -131 21q-178 0 -178 -295q0 -162 43 -707t43 -786q0 -225 -82 -343t-262 -118q-72 0 -166 24l25 148q82 -23 133 -23q94 0 133 77t39 224q0 199 -42 762t-42 735q0 223 82 336t262 113q94 0 166 -25z" />
<glyph unicode="&#x2248;" horiz-adv-x="1015" d="M905 313h-801v148h801v-148zM872 889l48 -131q-127 -117 -258 -117q-76 0 -178.5 59.5t-170.5 59.5q-88 0 -188 -76l-43 133q127 94 242 94q86 0 191.5 -60t156.5 -60q23 0 44 6t45.5 19t38 21.5t40 28t32.5 23.5z" />
<glyph unicode="&#x2260;" horiz-adv-x="997" d="M924 313h-506l-293 -434l-111 101l215 333h-106v148h192l177 248h-369v147h461l319 473l107 -102l-250 -371h164v-147h-250l-168 -248h418v-148z" />
<glyph unicode="&#x2264;" horiz-adv-x="997" d="M799 242l-666 446l668 453l67 -133l-471 -320l475 -317zM862 45h-735v141h735v-141z" />
<glyph unicode="&#x2265;" horiz-adv-x="997" d="M201 1139l680 -449l-682 -450l-66 133l481 317l-487 320zM852 45h-733v141h733v-141z" />
<glyph unicode="&#x25ca;" horiz-adv-x="784" d="M51 756l236 757h215l229 -757l-231 -756h-217zM217 756l176 -617l174 617l-174 616z" />
<glyph unicode="&#xe000;" horiz-adv-x="1105" d="M0 1105h1105v-1105h-1105v1105z" />
<glyph horiz-adv-x="526" d="M352 0h-176v1104h176v-1104zM375 1460q0 -51 -33 -84t-80 -33q-49 0 -79.5 33t-30.5 84t31.5 85t78.5 34t80 -34t33 -85z" />
<glyph horiz-adv-x="1042" d="M530 1970l287 -248l-82 -82l-203 164l-198 -164l-84 72z" />
<glyph horiz-adv-x="1042" d="M709 1952l110 -13q-16 -139 -91 -218t-195.5 -79t-196.5 79t-88 218l110 13q43 -188 174 -189q136 1 177 189z" />
<glyph horiz-adv-x="1042" d="M440 1696l189 329l139 -79l-225 -301z" />
<glyph horiz-adv-x="1042" d="M414 1767.5q0 -49.5 -32 -80t-77 -30.5q-51 0 -83 30.5t-32 80t33 82t82 32.5q47 0 78 -32.5t31 -82zM827 1767.5q0 -49.5 -33.5 -80t-84.5 -30.5q-43 0 -76 31.5t-33 78.5q0 49 32 82t77 33q51 0 84.5 -32.5t33.5 -82z" />
<glyph horiz-adv-x="1042" d="M307 1939l156 84l192 -317l-114 -55z" />
<glyph horiz-adv-x="608" d="M311 1765l197 162l80 -74l-211 -206h-131l-217 202l80 78z" />
<glyph horiz-adv-x="577" d="M514 1837l68 -80q-92 -102 -195 -102q-53 0 -113.5 30.5t-95.5 30.5q-49 0 -127 -61l-65 84q106 100 198 100q51 0 111.5 -29.5t97.5 -29.5q49 0 121 57z" />
<glyph horiz-adv-x="387" d="M395 1642q0 -98 -59.5 -166.5t-151.5 -68.5q-90 0 -148.5 67.5t-58.5 167.5q0 98 59.5 166t147.5 68q92 0 151.5 -69t59.5 -165zM283 1642.5q0 55.5 -26 93.5t-73 38t-71.5 -38t-24.5 -93.5t24.5 -92.5t71.5 -37t73 37t26 92.5z" />
<glyph horiz-adv-x="921" d="M350 -279l107 2040h135l-111 -2040h-131z" />
<glyph horiz-adv-x="483" d="M270 1049l-92 75q86 100 86 193q0 35 -21.5 70.5t-21.5 70.5q0 33 23.5 56.5t60.5 23.5q49 0 79 -47t30 -123q-1 -151 -144 -319z" />
</font>
</defs>
</svg>
